G04 EAGLE Gerber X2 export*
%TF.Part,Single*%
%TF.FileFunction,Copper,L2,Bot,Mixed*%
%TF.FilePolarity,Positive*%
%TF.GenerationSoftware,Autodesk,EAGLE,9.0.0*%
%TF.CreationDate,2019-08-27T11:30:24Z*%
G75*
%MOMM*%
%FSLAX34Y34*%
%LPD*%
%AMOC8*
5,1,8,0,0,1.08239X$1,22.5*%
G01*
%ADD10C,1.508000*%
%ADD11P,2.089446X8X202.500000*%
%ADD12P,2.089446X8X22.500000*%
%ADD13C,1.308000*%
%ADD14C,1.358000*%
%ADD15C,1.879600*%
%ADD16P,2.089446X8X112.500000*%
%ADD17P,2.089446X8X292.500000*%
%ADD18C,1.408000*%
%ADD19C,1.270000*%
%ADD20C,1.350000*%


D10*
X396240Y123190D03*
X421640Y123190D03*
X447040Y123190D03*
D11*
X336550Y166370D03*
X260350Y166370D03*
D12*
X260350Y193040D03*
X336550Y193040D03*
D13*
X381000Y245110D03*
X381000Y219710D03*
X381000Y194310D03*
X381000Y168910D03*
D14*
X222250Y170180D03*
X222250Y195580D03*
X222250Y220980D03*
D15*
X266700Y342900D03*
X266700Y317500D03*
X368300Y317500D03*
X368300Y342900D03*
D16*
X309880Y222250D03*
X309880Y298450D03*
D17*
X215900Y342900D03*
X215900Y266700D03*
D18*
X330300Y99200D03*
X309900Y99200D03*
X289500Y99200D03*
X320100Y73800D03*
X299700Y73800D03*
X279300Y73800D03*
D19*
X320100Y73800D02*
X327580Y81280D01*
X419100Y120650D02*
X421640Y123190D01*
X419100Y120650D02*
X419100Y101600D01*
X398780Y81280D01*
X327580Y81280D01*
X207010Y205740D02*
X222250Y220980D01*
X207010Y205740D02*
X207010Y152400D01*
X222250Y220980D02*
X246380Y245110D01*
X381000Y245110D01*
D20*
X270510Y133350D03*
X309880Y133350D03*
D19*
X270510Y133350D02*
X262890Y140970D01*
X218440Y140970D02*
X207010Y152400D01*
X218440Y140970D02*
X262890Y140970D01*
X309880Y133350D02*
X309880Y99220D01*
X309900Y99200D01*
X261620Y191770D02*
X260350Y193040D01*
X261620Y191770D02*
X292100Y191770D01*
X309880Y173990D01*
X309880Y172720D01*
X316230Y166370D01*
X336550Y166370D01*
X350520Y152400D01*
X407670Y152400D01*
X419100Y152400D01*
X426720Y152400D01*
X447040Y132080D01*
X406400Y219710D02*
X381000Y219710D01*
X406400Y219710D02*
X414020Y212090D01*
X414020Y158750D01*
X407670Y152400D01*
X414020Y157480D02*
X414020Y158750D01*
X414020Y157480D02*
X419100Y152400D01*
X414020Y227330D02*
X414020Y304800D01*
X414020Y227330D02*
X414020Y212090D01*
X406400Y219710D02*
X414020Y227330D01*
X295910Y317500D02*
X266700Y317500D01*
X321310Y342900D02*
X368300Y342900D01*
X321310Y342900D02*
X295910Y317500D01*
X368300Y342900D02*
X375920Y342900D01*
X414020Y304800D01*
X447040Y132080D02*
X447040Y123190D01*
X448820Y121410D01*
X299700Y73800D02*
X299700Y62250D01*
X339460Y22490D02*
X397140Y22490D01*
X339460Y22490D02*
X299700Y62250D01*
X448820Y74170D02*
X448820Y121410D01*
X448820Y74170D02*
X397140Y22490D01*
X372250Y99200D02*
X330300Y99200D01*
X372250Y99200D02*
X396240Y123190D01*
X379730Y193040D02*
X336550Y193040D01*
X379730Y193040D02*
X381000Y194310D01*
X212725Y244475D02*
X187960Y219710D01*
X212725Y263525D02*
X215900Y266700D01*
X212725Y263525D02*
X212725Y244475D01*
D20*
X336550Y266700D03*
X336550Y224790D03*
D19*
X336550Y266700D02*
X215900Y266700D01*
X336550Y224790D02*
X336550Y193040D01*
X242610Y110490D02*
X279300Y73800D01*
X242610Y110490D02*
X203200Y110490D01*
X187960Y127000D02*
X187960Y219710D01*
X187960Y127000D02*
X203200Y111760D01*
X203200Y110490D01*
X260350Y166370D02*
X222250Y195580D01*
X248920Y222250D01*
X309880Y222250D01*
X289500Y149800D02*
X289500Y99200D01*
X272930Y166370D02*
X260350Y166370D01*
X272930Y166370D02*
X289500Y149800D01*
X309880Y298450D02*
X349250Y298450D01*
X368300Y317500D01*
X266700Y342900D02*
X215900Y342900D01*
M02*
