M48
;GenerationSoftware,Autodesk,EAGLE,9.0.0*%
;CreationDate,2019-08-27T11:30:23Z*%
FMAT,2
ICI,OFF
METRIC,TZ,000.000
T8C0.800
T7C0.813
T6C0.850
T5C0.900
T4C1.000
T3C2.360
T2C3.000
T1C8.200
%
G90
M71
T1
X31496Y53848
T2
X17907Y34925
X17907Y762
X44577Y762
X44704Y35052
T3
X24480Y5080
X36480Y5080
T4
X39624Y12319
X42164Y12319
X44704Y12319
T5
X27051Y13335
X30988Y13335
X33655Y26670
X33655Y22479
X33655Y16637
X26035Y16637
X26035Y19304
X33655Y19304
X29970Y7380
X27930Y7380
X30988Y22225
X30988Y29845
X21590Y34290
X21590Y26670
X33030Y9920
X30990Y9920
X28950Y9920
X32010Y7380
T6
X22225Y17018
X22225Y19558
X22225Y22098
T7
X26670Y34290
X26670Y31750
X36830Y31750
X36830Y34290
T8
X38100Y24511
X38100Y19431
X38100Y16891
X38100Y21971
M30