G04 EAGLE Gerber X2 export*
%TF.Part,Single*%
%TF.FileFunction,Profile,NP*%
%TF.FilePolarity,Positive*%
%TF.GenerationSoftware,Autodesk,EAGLE,9.0.0*%
%TF.CreationDate,2019-08-27T11:30:24Z*%
G75*
%MOMM*%
%FSLAX34Y34*%
%LPD*%
%AMOC8*
5,1,8,0,0,1.08239X$1,22.5*%
G01*
%ADD10C,0.254000*%


D10*
X161290Y-11430D02*
X465330Y-11430D01*
X465330Y669470D01*
X161290Y669470D01*
X161290Y-11430D01*
X194070Y348714D02*
X193994Y347646D01*
X193841Y346585D01*
X193613Y345538D01*
X193311Y344510D01*
X192937Y343506D01*
X192492Y342531D01*
X191978Y341591D01*
X191399Y340690D01*
X190757Y339832D01*
X190055Y339022D01*
X189298Y338265D01*
X188488Y337563D01*
X187630Y336921D01*
X186729Y336342D01*
X185789Y335828D01*
X184814Y335383D01*
X183810Y335009D01*
X182782Y334707D01*
X181735Y334479D01*
X180674Y334326D01*
X179606Y334250D01*
X178534Y334250D01*
X177466Y334326D01*
X176405Y334479D01*
X175358Y334707D01*
X174330Y335009D01*
X173326Y335383D01*
X172351Y335828D01*
X171411Y336342D01*
X170510Y336921D01*
X169652Y337563D01*
X168842Y338265D01*
X168085Y339022D01*
X167383Y339832D01*
X166741Y340690D01*
X166162Y341591D01*
X165648Y342531D01*
X165203Y343506D01*
X164829Y344510D01*
X164527Y345538D01*
X164299Y346585D01*
X164146Y347646D01*
X164070Y348714D01*
X164070Y349786D01*
X164146Y350854D01*
X164299Y351915D01*
X164527Y352962D01*
X164829Y353990D01*
X165203Y354994D01*
X165648Y355969D01*
X166162Y356909D01*
X166741Y357810D01*
X167383Y358668D01*
X168085Y359478D01*
X168842Y360235D01*
X169652Y360937D01*
X170510Y361579D01*
X171411Y362158D01*
X172351Y362672D01*
X173326Y363117D01*
X174330Y363491D01*
X175358Y363793D01*
X176405Y364021D01*
X177466Y364174D01*
X178534Y364250D01*
X179606Y364250D01*
X180674Y364174D01*
X181735Y364021D01*
X182782Y363793D01*
X183810Y363491D01*
X184814Y363117D01*
X185789Y362672D01*
X186729Y362158D01*
X187630Y361579D01*
X188488Y360937D01*
X189298Y360235D01*
X190055Y359478D01*
X190757Y358668D01*
X191399Y357810D01*
X191978Y356909D01*
X192492Y355969D01*
X192937Y354994D01*
X193311Y353990D01*
X193613Y352962D01*
X193841Y351915D01*
X193994Y350854D01*
X194070Y349786D01*
X194070Y348714D01*
X194070Y7084D02*
X193994Y6016D01*
X193841Y4955D01*
X193613Y3908D01*
X193311Y2880D01*
X192937Y1876D01*
X192492Y901D01*
X191978Y-39D01*
X191399Y-940D01*
X190757Y-1798D01*
X190055Y-2608D01*
X189298Y-3365D01*
X188488Y-4067D01*
X187630Y-4709D01*
X186729Y-5288D01*
X185789Y-5802D01*
X184814Y-6247D01*
X183810Y-6621D01*
X182782Y-6923D01*
X181735Y-7151D01*
X180674Y-7304D01*
X179606Y-7380D01*
X178534Y-7380D01*
X177466Y-7304D01*
X176405Y-7151D01*
X175358Y-6923D01*
X174330Y-6621D01*
X173326Y-6247D01*
X172351Y-5802D01*
X171411Y-5288D01*
X170510Y-4709D01*
X169652Y-4067D01*
X168842Y-3365D01*
X168085Y-2608D01*
X167383Y-1798D01*
X166741Y-940D01*
X166162Y-39D01*
X165648Y901D01*
X165203Y1876D01*
X164829Y2880D01*
X164527Y3908D01*
X164299Y4955D01*
X164146Y6016D01*
X164070Y7084D01*
X164070Y8156D01*
X164146Y9224D01*
X164299Y10285D01*
X164527Y11332D01*
X164829Y12360D01*
X165203Y13364D01*
X165648Y14339D01*
X166162Y15279D01*
X166741Y16180D01*
X167383Y17038D01*
X168085Y17848D01*
X168842Y18605D01*
X169652Y19307D01*
X170510Y19949D01*
X171411Y20528D01*
X172351Y21042D01*
X173326Y21487D01*
X174330Y21861D01*
X175358Y22163D01*
X176405Y22391D01*
X177466Y22544D01*
X178534Y22620D01*
X179606Y22620D01*
X180674Y22544D01*
X181735Y22391D01*
X182782Y22163D01*
X183810Y21861D01*
X184814Y21487D01*
X185789Y21042D01*
X186729Y20528D01*
X187630Y19949D01*
X188488Y19307D01*
X189298Y18605D01*
X190055Y17848D01*
X190757Y17038D01*
X191399Y16180D01*
X191978Y15279D01*
X192492Y14339D01*
X192937Y13364D01*
X193311Y12360D01*
X193613Y11332D01*
X193841Y10285D01*
X193994Y9224D01*
X194070Y8156D01*
X194070Y7084D01*
X460770Y7084D02*
X460694Y6016D01*
X460541Y4955D01*
X460313Y3908D01*
X460011Y2880D01*
X459637Y1876D01*
X459192Y901D01*
X458678Y-39D01*
X458099Y-940D01*
X457457Y-1798D01*
X456755Y-2608D01*
X455998Y-3365D01*
X455188Y-4067D01*
X454330Y-4709D01*
X453429Y-5288D01*
X452489Y-5802D01*
X451514Y-6247D01*
X450510Y-6621D01*
X449482Y-6923D01*
X448435Y-7151D01*
X447374Y-7304D01*
X446306Y-7380D01*
X445234Y-7380D01*
X444166Y-7304D01*
X443105Y-7151D01*
X442058Y-6923D01*
X441030Y-6621D01*
X440026Y-6247D01*
X439051Y-5802D01*
X438111Y-5288D01*
X437210Y-4709D01*
X436352Y-4067D01*
X435542Y-3365D01*
X434785Y-2608D01*
X434083Y-1798D01*
X433441Y-940D01*
X432862Y-39D01*
X432348Y901D01*
X431903Y1876D01*
X431529Y2880D01*
X431227Y3908D01*
X430999Y4955D01*
X430846Y6016D01*
X430770Y7084D01*
X430770Y8156D01*
X430846Y9224D01*
X430999Y10285D01*
X431227Y11332D01*
X431529Y12360D01*
X431903Y13364D01*
X432348Y14339D01*
X432862Y15279D01*
X433441Y16180D01*
X434083Y17038D01*
X434785Y17848D01*
X435542Y18605D01*
X436352Y19307D01*
X437210Y19949D01*
X438111Y20528D01*
X439051Y21042D01*
X440026Y21487D01*
X441030Y21861D01*
X442058Y22163D01*
X443105Y22391D01*
X444166Y22544D01*
X445234Y22620D01*
X446306Y22620D01*
X447374Y22544D01*
X448435Y22391D01*
X449482Y22163D01*
X450510Y21861D01*
X451514Y21487D01*
X452489Y21042D01*
X453429Y20528D01*
X454330Y19949D01*
X455188Y19307D01*
X455998Y18605D01*
X456755Y17848D01*
X457457Y17038D01*
X458099Y16180D01*
X458678Y15279D01*
X459192Y14339D01*
X459637Y13364D01*
X460011Y12360D01*
X460313Y11332D01*
X460541Y10285D01*
X460694Y9224D01*
X460770Y8156D01*
X460770Y7084D01*
X462040Y349984D02*
X461964Y348916D01*
X461811Y347855D01*
X461583Y346808D01*
X461281Y345780D01*
X460907Y344776D01*
X460462Y343801D01*
X459948Y342861D01*
X459369Y341960D01*
X458727Y341102D01*
X458025Y340292D01*
X457268Y339535D01*
X456458Y338833D01*
X455600Y338191D01*
X454699Y337612D01*
X453759Y337098D01*
X452784Y336653D01*
X451780Y336279D01*
X450752Y335977D01*
X449705Y335749D01*
X448644Y335596D01*
X447576Y335520D01*
X446504Y335520D01*
X445436Y335596D01*
X444375Y335749D01*
X443328Y335977D01*
X442300Y336279D01*
X441296Y336653D01*
X440321Y337098D01*
X439381Y337612D01*
X438480Y338191D01*
X437622Y338833D01*
X436812Y339535D01*
X436055Y340292D01*
X435353Y341102D01*
X434711Y341960D01*
X434132Y342861D01*
X433618Y343801D01*
X433173Y344776D01*
X432799Y345780D01*
X432497Y346808D01*
X432269Y347855D01*
X432116Y348916D01*
X432040Y349984D01*
X432040Y351056D01*
X432116Y352124D01*
X432269Y353185D01*
X432497Y354232D01*
X432799Y355260D01*
X433173Y356264D01*
X433618Y357239D01*
X434132Y358179D01*
X434711Y359080D01*
X435353Y359938D01*
X436055Y360748D01*
X436812Y361505D01*
X437622Y362207D01*
X438480Y362849D01*
X439381Y363428D01*
X440321Y363942D01*
X441296Y364387D01*
X442300Y364761D01*
X443328Y365063D01*
X444375Y365291D01*
X445436Y365444D01*
X446504Y365520D01*
X447576Y365520D01*
X448644Y365444D01*
X449705Y365291D01*
X450752Y365063D01*
X451780Y364761D01*
X452784Y364387D01*
X453759Y363942D01*
X454699Y363428D01*
X455600Y362849D01*
X456458Y362207D01*
X457268Y361505D01*
X458025Y360748D01*
X458727Y359938D01*
X459369Y359080D01*
X459948Y358179D01*
X460462Y357239D01*
X460907Y356264D01*
X461281Y355260D01*
X461583Y354232D01*
X461811Y353185D01*
X461964Y352124D01*
X462040Y351056D01*
X462040Y349984D01*
X355960Y537585D02*
X355882Y535798D01*
X355726Y534015D01*
X355492Y532241D01*
X355182Y530479D01*
X354795Y528733D01*
X354331Y527004D01*
X353793Y525298D01*
X353181Y523617D01*
X352497Y521963D01*
X351741Y520342D01*
X350914Y518755D01*
X350020Y517205D01*
X349058Y515696D01*
X348032Y514231D01*
X346943Y512811D01*
X345793Y511440D01*
X344584Y510121D01*
X343319Y508856D01*
X342000Y507647D01*
X340629Y506497D01*
X339209Y505408D01*
X337744Y504382D01*
X336235Y503420D01*
X334685Y502526D01*
X333098Y501699D01*
X331477Y500943D01*
X329824Y500259D01*
X328142Y499647D01*
X326436Y499109D01*
X324707Y498646D01*
X322961Y498258D01*
X321199Y497948D01*
X319425Y497714D01*
X317642Y497558D01*
X315855Y497480D01*
X314065Y497480D01*
X312278Y497558D01*
X310495Y497714D01*
X308721Y497948D01*
X306959Y498258D01*
X305213Y498646D01*
X303484Y499109D01*
X301778Y499647D01*
X300097Y500259D01*
X298443Y500943D01*
X296822Y501699D01*
X295235Y502526D01*
X293685Y503420D01*
X292176Y504382D01*
X290711Y505408D01*
X289291Y506497D01*
X287920Y507647D01*
X286601Y508856D01*
X285336Y510121D01*
X284127Y511440D01*
X282977Y512811D01*
X281888Y514231D01*
X280862Y515696D01*
X279900Y517205D01*
X279006Y518755D01*
X278179Y520342D01*
X277423Y521963D01*
X276739Y523617D01*
X276127Y525298D01*
X275589Y527004D01*
X275126Y528733D01*
X274738Y530479D01*
X274428Y532241D01*
X274194Y534015D01*
X274038Y535798D01*
X273960Y537585D01*
X273960Y539375D01*
X274038Y541162D01*
X274194Y542945D01*
X274428Y544719D01*
X274738Y546481D01*
X275126Y548227D01*
X275589Y549956D01*
X276127Y551662D01*
X276739Y553344D01*
X277423Y554997D01*
X278179Y556618D01*
X279006Y558205D01*
X279900Y559755D01*
X280862Y561264D01*
X281888Y562729D01*
X282977Y564149D01*
X284127Y565520D01*
X285336Y566839D01*
X286601Y568104D01*
X287920Y569313D01*
X289291Y570463D01*
X290711Y571552D01*
X292176Y572578D01*
X293685Y573540D01*
X295235Y574434D01*
X296822Y575261D01*
X298443Y576017D01*
X300097Y576701D01*
X301778Y577313D01*
X303484Y577851D01*
X305213Y578315D01*
X306959Y578702D01*
X308721Y579012D01*
X310495Y579246D01*
X312278Y579402D01*
X314065Y579480D01*
X315855Y579480D01*
X317642Y579402D01*
X319425Y579246D01*
X321199Y579012D01*
X322961Y578702D01*
X324707Y578315D01*
X326436Y577851D01*
X328142Y577313D01*
X329824Y576701D01*
X331477Y576017D01*
X333098Y575261D01*
X334685Y574434D01*
X336235Y573540D01*
X337744Y572578D01*
X339209Y571552D01*
X340629Y570463D01*
X342000Y569313D01*
X343319Y568104D01*
X344584Y566839D01*
X345793Y565520D01*
X346943Y564149D01*
X348032Y562729D01*
X349058Y561264D01*
X350020Y559755D01*
X350914Y558205D01*
X351741Y556618D01*
X352497Y554997D01*
X353181Y553344D01*
X353793Y551662D01*
X354331Y549956D01*
X354795Y548227D01*
X355182Y546481D01*
X355492Y544719D01*
X355726Y542945D01*
X355882Y541162D01*
X355960Y539375D01*
X355960Y537585D01*
X194070Y348714D02*
X193994Y347646D01*
X193841Y346585D01*
X193613Y345538D01*
X193311Y344510D01*
X192937Y343506D01*
X192492Y342531D01*
X191978Y341591D01*
X191399Y340690D01*
X190757Y339832D01*
X190055Y339022D01*
X189298Y338265D01*
X188488Y337563D01*
X187630Y336921D01*
X186729Y336342D01*
X185789Y335828D01*
X184814Y335383D01*
X183810Y335009D01*
X182782Y334707D01*
X181735Y334479D01*
X180674Y334326D01*
X179606Y334250D01*
X178534Y334250D01*
X177466Y334326D01*
X176405Y334479D01*
X175358Y334707D01*
X174330Y335009D01*
X173326Y335383D01*
X172351Y335828D01*
X171411Y336342D01*
X170510Y336921D01*
X169652Y337563D01*
X168842Y338265D01*
X168085Y339022D01*
X167383Y339832D01*
X166741Y340690D01*
X166162Y341591D01*
X165648Y342531D01*
X165203Y343506D01*
X164829Y344510D01*
X164527Y345538D01*
X164299Y346585D01*
X164146Y347646D01*
X164070Y348714D01*
X164070Y349786D01*
X164146Y350854D01*
X164299Y351915D01*
X164527Y352962D01*
X164829Y353990D01*
X165203Y354994D01*
X165648Y355969D01*
X166162Y356909D01*
X166741Y357810D01*
X167383Y358668D01*
X168085Y359478D01*
X168842Y360235D01*
X169652Y360937D01*
X170510Y361579D01*
X171411Y362158D01*
X172351Y362672D01*
X173326Y363117D01*
X174330Y363491D01*
X175358Y363793D01*
X176405Y364021D01*
X177466Y364174D01*
X178534Y364250D01*
X179606Y364250D01*
X180674Y364174D01*
X181735Y364021D01*
X182782Y363793D01*
X183810Y363491D01*
X184814Y363117D01*
X185789Y362672D01*
X186729Y362158D01*
X187630Y361579D01*
X188488Y360937D01*
X189298Y360235D01*
X190055Y359478D01*
X190757Y358668D01*
X191399Y357810D01*
X191978Y356909D01*
X192492Y355969D01*
X192937Y354994D01*
X193311Y353990D01*
X193613Y352962D01*
X193841Y351915D01*
X193994Y350854D01*
X194070Y349786D01*
X194070Y348714D01*
X194070Y7084D02*
X193994Y6016D01*
X193841Y4955D01*
X193613Y3908D01*
X193311Y2880D01*
X192937Y1876D01*
X192492Y901D01*
X191978Y-39D01*
X191399Y-940D01*
X190757Y-1798D01*
X190055Y-2608D01*
X189298Y-3365D01*
X188488Y-4067D01*
X187630Y-4709D01*
X186729Y-5288D01*
X185789Y-5802D01*
X184814Y-6247D01*
X183810Y-6621D01*
X182782Y-6923D01*
X181735Y-7151D01*
X180674Y-7304D01*
X179606Y-7380D01*
X178534Y-7380D01*
X177466Y-7304D01*
X176405Y-7151D01*
X175358Y-6923D01*
X174330Y-6621D01*
X173326Y-6247D01*
X172351Y-5802D01*
X171411Y-5288D01*
X170510Y-4709D01*
X169652Y-4067D01*
X168842Y-3365D01*
X168085Y-2608D01*
X167383Y-1798D01*
X166741Y-940D01*
X166162Y-39D01*
X165648Y901D01*
X165203Y1876D01*
X164829Y2880D01*
X164527Y3908D01*
X164299Y4955D01*
X164146Y6016D01*
X164070Y7084D01*
X164070Y8156D01*
X164146Y9224D01*
X164299Y10285D01*
X164527Y11332D01*
X164829Y12360D01*
X165203Y13364D01*
X165648Y14339D01*
X166162Y15279D01*
X166741Y16180D01*
X167383Y17038D01*
X168085Y17848D01*
X168842Y18605D01*
X169652Y19307D01*
X170510Y19949D01*
X171411Y20528D01*
X172351Y21042D01*
X173326Y21487D01*
X174330Y21861D01*
X175358Y22163D01*
X176405Y22391D01*
X177466Y22544D01*
X178534Y22620D01*
X179606Y22620D01*
X180674Y22544D01*
X181735Y22391D01*
X182782Y22163D01*
X183810Y21861D01*
X184814Y21487D01*
X185789Y21042D01*
X186729Y20528D01*
X187630Y19949D01*
X188488Y19307D01*
X189298Y18605D01*
X190055Y17848D01*
X190757Y17038D01*
X191399Y16180D01*
X191978Y15279D01*
X192492Y14339D01*
X192937Y13364D01*
X193311Y12360D01*
X193613Y11332D01*
X193841Y10285D01*
X193994Y9224D01*
X194070Y8156D01*
X194070Y7084D01*
X460770Y7084D02*
X460694Y6016D01*
X460541Y4955D01*
X460313Y3908D01*
X460011Y2880D01*
X459637Y1876D01*
X459192Y901D01*
X458678Y-39D01*
X458099Y-940D01*
X457457Y-1798D01*
X456755Y-2608D01*
X455998Y-3365D01*
X455188Y-4067D01*
X454330Y-4709D01*
X453429Y-5288D01*
X452489Y-5802D01*
X451514Y-6247D01*
X450510Y-6621D01*
X449482Y-6923D01*
X448435Y-7151D01*
X447374Y-7304D01*
X446306Y-7380D01*
X445234Y-7380D01*
X444166Y-7304D01*
X443105Y-7151D01*
X442058Y-6923D01*
X441030Y-6621D01*
X440026Y-6247D01*
X439051Y-5802D01*
X438111Y-5288D01*
X437210Y-4709D01*
X436352Y-4067D01*
X435542Y-3365D01*
X434785Y-2608D01*
X434083Y-1798D01*
X433441Y-940D01*
X432862Y-39D01*
X432348Y901D01*
X431903Y1876D01*
X431529Y2880D01*
X431227Y3908D01*
X430999Y4955D01*
X430846Y6016D01*
X430770Y7084D01*
X430770Y8156D01*
X430846Y9224D01*
X430999Y10285D01*
X431227Y11332D01*
X431529Y12360D01*
X431903Y13364D01*
X432348Y14339D01*
X432862Y15279D01*
X433441Y16180D01*
X434083Y17038D01*
X434785Y17848D01*
X435542Y18605D01*
X436352Y19307D01*
X437210Y19949D01*
X438111Y20528D01*
X439051Y21042D01*
X440026Y21487D01*
X441030Y21861D01*
X442058Y22163D01*
X443105Y22391D01*
X444166Y22544D01*
X445234Y22620D01*
X446306Y22620D01*
X447374Y22544D01*
X448435Y22391D01*
X449482Y22163D01*
X450510Y21861D01*
X451514Y21487D01*
X452489Y21042D01*
X453429Y20528D01*
X454330Y19949D01*
X455188Y19307D01*
X455998Y18605D01*
X456755Y17848D01*
X457457Y17038D01*
X458099Y16180D01*
X458678Y15279D01*
X459192Y14339D01*
X459637Y13364D01*
X460011Y12360D01*
X460313Y11332D01*
X460541Y10285D01*
X460694Y9224D01*
X460770Y8156D01*
X460770Y7084D01*
X462040Y349984D02*
X461964Y348916D01*
X461811Y347855D01*
X461583Y346808D01*
X461281Y345780D01*
X460907Y344776D01*
X460462Y343801D01*
X459948Y342861D01*
X459369Y341960D01*
X458727Y341102D01*
X458025Y340292D01*
X457268Y339535D01*
X456458Y338833D01*
X455600Y338191D01*
X454699Y337612D01*
X453759Y337098D01*
X452784Y336653D01*
X451780Y336279D01*
X450752Y335977D01*
X449705Y335749D01*
X448644Y335596D01*
X447576Y335520D01*
X446504Y335520D01*
X445436Y335596D01*
X444375Y335749D01*
X443328Y335977D01*
X442300Y336279D01*
X441296Y336653D01*
X440321Y337098D01*
X439381Y337612D01*
X438480Y338191D01*
X437622Y338833D01*
X436812Y339535D01*
X436055Y340292D01*
X435353Y341102D01*
X434711Y341960D01*
X434132Y342861D01*
X433618Y343801D01*
X433173Y344776D01*
X432799Y345780D01*
X432497Y346808D01*
X432269Y347855D01*
X432116Y348916D01*
X432040Y349984D01*
X432040Y351056D01*
X432116Y352124D01*
X432269Y353185D01*
X432497Y354232D01*
X432799Y355260D01*
X433173Y356264D01*
X433618Y357239D01*
X434132Y358179D01*
X434711Y359080D01*
X435353Y359938D01*
X436055Y360748D01*
X436812Y361505D01*
X437622Y362207D01*
X438480Y362849D01*
X439381Y363428D01*
X440321Y363942D01*
X441296Y364387D01*
X442300Y364761D01*
X443328Y365063D01*
X444375Y365291D01*
X445436Y365444D01*
X446504Y365520D01*
X447576Y365520D01*
X448644Y365444D01*
X449705Y365291D01*
X450752Y365063D01*
X451780Y364761D01*
X452784Y364387D01*
X453759Y363942D01*
X454699Y363428D01*
X455600Y362849D01*
X456458Y362207D01*
X457268Y361505D01*
X458025Y360748D01*
X458727Y359938D01*
X459369Y359080D01*
X459948Y358179D01*
X460462Y357239D01*
X460907Y356264D01*
X461281Y355260D01*
X461583Y354232D01*
X461811Y353185D01*
X461964Y352124D01*
X462040Y351056D01*
X462040Y349984D01*
X355960Y537585D02*
X355882Y535798D01*
X355726Y534015D01*
X355492Y532241D01*
X355182Y530479D01*
X354795Y528733D01*
X354331Y527004D01*
X353793Y525298D01*
X353181Y523617D01*
X352497Y521963D01*
X351741Y520342D01*
X350914Y518755D01*
X350020Y517205D01*
X349058Y515696D01*
X348032Y514231D01*
X346943Y512811D01*
X345793Y511440D01*
X344584Y510121D01*
X343319Y508856D01*
X342000Y507647D01*
X340629Y506497D01*
X339209Y505408D01*
X337744Y504382D01*
X336235Y503420D01*
X334685Y502526D01*
X333098Y501699D01*
X331477Y500943D01*
X329824Y500259D01*
X328142Y499647D01*
X326436Y499109D01*
X324707Y498646D01*
X322961Y498258D01*
X321199Y497948D01*
X319425Y497714D01*
X317642Y497558D01*
X315855Y497480D01*
X314065Y497480D01*
X312278Y497558D01*
X310495Y497714D01*
X308721Y497948D01*
X306959Y498258D01*
X305213Y498646D01*
X303484Y499109D01*
X301778Y499647D01*
X300097Y500259D01*
X298443Y500943D01*
X296822Y501699D01*
X295235Y502526D01*
X293685Y503420D01*
X292176Y504382D01*
X290711Y505408D01*
X289291Y506497D01*
X287920Y507647D01*
X286601Y508856D01*
X285336Y510121D01*
X284127Y511440D01*
X282977Y512811D01*
X281888Y514231D01*
X280862Y515696D01*
X279900Y517205D01*
X279006Y518755D01*
X278179Y520342D01*
X277423Y521963D01*
X276739Y523617D01*
X276127Y525298D01*
X275589Y527004D01*
X275126Y528733D01*
X274738Y530479D01*
X274428Y532241D01*
X274194Y534015D01*
X274038Y535798D01*
X273960Y537585D01*
X273960Y539375D01*
X274038Y541162D01*
X274194Y542945D01*
X274428Y544719D01*
X274738Y546481D01*
X275126Y548227D01*
X275589Y549956D01*
X276127Y551662D01*
X276739Y553344D01*
X277423Y554997D01*
X278179Y556618D01*
X279006Y558205D01*
X279900Y559755D01*
X280862Y561264D01*
X281888Y562729D01*
X282977Y564149D01*
X284127Y565520D01*
X285336Y566839D01*
X286601Y568104D01*
X287920Y569313D01*
X289291Y570463D01*
X290711Y571552D01*
X292176Y572578D01*
X293685Y573540D01*
X295235Y574434D01*
X296822Y575261D01*
X298443Y576017D01*
X300097Y576701D01*
X301778Y577313D01*
X303484Y577851D01*
X305213Y578315D01*
X306959Y578702D01*
X308721Y579012D01*
X310495Y579246D01*
X312278Y579402D01*
X314065Y579480D01*
X315855Y579480D01*
X317642Y579402D01*
X319425Y579246D01*
X321199Y579012D01*
X322961Y578702D01*
X324707Y578315D01*
X326436Y577851D01*
X328142Y577313D01*
X329824Y576701D01*
X331477Y576017D01*
X333098Y575261D01*
X334685Y574434D01*
X336235Y573540D01*
X337744Y572578D01*
X339209Y571552D01*
X340629Y570463D01*
X342000Y569313D01*
X343319Y568104D01*
X344584Y566839D01*
X345793Y565520D01*
X346943Y564149D01*
X348032Y562729D01*
X349058Y561264D01*
X350020Y559755D01*
X350914Y558205D01*
X351741Y556618D01*
X352497Y554997D01*
X353181Y553344D01*
X353793Y551662D01*
X354331Y549956D01*
X354795Y548227D01*
X355182Y546481D01*
X355492Y544719D01*
X355726Y542945D01*
X355882Y541162D01*
X355960Y539375D01*
X355960Y537585D01*
X256600Y50336D02*
X256527Y49412D01*
X256382Y48496D01*
X256166Y47595D01*
X255879Y46713D01*
X255524Y45856D01*
X255103Y45030D01*
X254619Y44239D01*
X254074Y43489D01*
X253472Y42784D01*
X252816Y42128D01*
X252111Y41526D01*
X251361Y40981D01*
X250570Y40497D01*
X249744Y40076D01*
X248887Y39721D01*
X248005Y39434D01*
X247104Y39218D01*
X246188Y39073D01*
X245264Y39000D01*
X244336Y39000D01*
X243412Y39073D01*
X242496Y39218D01*
X241595Y39434D01*
X240713Y39721D01*
X239856Y40076D01*
X239030Y40497D01*
X238239Y40981D01*
X237489Y41526D01*
X236784Y42128D01*
X236128Y42784D01*
X235526Y43489D01*
X234981Y44239D01*
X234497Y45030D01*
X234076Y45856D01*
X233721Y46713D01*
X233434Y47595D01*
X233218Y48496D01*
X233073Y49412D01*
X233000Y50336D01*
X233000Y51264D01*
X233073Y52188D01*
X233218Y53104D01*
X233434Y54005D01*
X233721Y54887D01*
X234076Y55744D01*
X234497Y56570D01*
X234981Y57361D01*
X235526Y58111D01*
X236128Y58816D01*
X236784Y59472D01*
X237489Y60074D01*
X238239Y60619D01*
X239030Y61103D01*
X239856Y61524D01*
X240713Y61879D01*
X241595Y62166D01*
X242496Y62382D01*
X243412Y62527D01*
X244336Y62600D01*
X245264Y62600D01*
X246188Y62527D01*
X247104Y62382D01*
X248005Y62166D01*
X248887Y61879D01*
X249744Y61524D01*
X250570Y61103D01*
X251361Y60619D01*
X252111Y60074D01*
X252816Y59472D01*
X253472Y58816D01*
X254074Y58111D01*
X254619Y57361D01*
X255103Y56570D01*
X255524Y55744D01*
X255879Y54887D01*
X256166Y54005D01*
X256382Y53104D01*
X256527Y52188D01*
X256600Y51264D01*
X256600Y50336D01*
X376600Y50336D02*
X376527Y49412D01*
X376382Y48496D01*
X376166Y47595D01*
X375879Y46713D01*
X375524Y45856D01*
X375103Y45030D01*
X374619Y44239D01*
X374074Y43489D01*
X373472Y42784D01*
X372816Y42128D01*
X372111Y41526D01*
X371361Y40981D01*
X370570Y40497D01*
X369744Y40076D01*
X368887Y39721D01*
X368005Y39434D01*
X367104Y39218D01*
X366188Y39073D01*
X365264Y39000D01*
X364336Y39000D01*
X363412Y39073D01*
X362496Y39218D01*
X361595Y39434D01*
X360713Y39721D01*
X359856Y40076D01*
X359030Y40497D01*
X358239Y40981D01*
X357489Y41526D01*
X356784Y42128D01*
X356128Y42784D01*
X355526Y43489D01*
X354981Y44239D01*
X354497Y45030D01*
X354076Y45856D01*
X353721Y46713D01*
X353434Y47595D01*
X353218Y48496D01*
X353073Y49412D01*
X353000Y50336D01*
X353000Y51264D01*
X353073Y52188D01*
X353218Y53104D01*
X353434Y54005D01*
X353721Y54887D01*
X354076Y55744D01*
X354497Y56570D01*
X354981Y57361D01*
X355526Y58111D01*
X356128Y58816D01*
X356784Y59472D01*
X357489Y60074D01*
X358239Y60619D01*
X359030Y61103D01*
X359856Y61524D01*
X360713Y61879D01*
X361595Y62166D01*
X362496Y62382D01*
X363412Y62527D01*
X364336Y62600D01*
X365264Y62600D01*
X366188Y62527D01*
X367104Y62382D01*
X368005Y62166D01*
X368887Y61879D01*
X369744Y61524D01*
X370570Y61103D01*
X371361Y60619D01*
X372111Y60074D01*
X372816Y59472D01*
X373472Y58816D01*
X374074Y58111D01*
X374619Y57361D01*
X375103Y56570D01*
X375524Y55744D01*
X375879Y54887D01*
X376166Y54005D01*
X376382Y53104D01*
X376527Y52188D01*
X376600Y51264D01*
X376600Y50336D01*
M02*
