G04 EAGLE Gerber X2 export*
%TF.Part,Single*%
%TF.FileFunction,Legend,Top,1*%
%TF.FilePolarity,Positive*%
%TF.GenerationSoftware,Autodesk,EAGLE,9.0.0*%
%TF.CreationDate,2019-08-27T11:30:24Z*%
G75*
%MOMM*%
%FSLAX34Y34*%
%LPD*%
%AMOC8*
5,1,8,0,0,1.08239X$1,22.5*%
G01*
%ADD10C,0.127000*%
%ADD11C,0.152400*%
%ADD12C,0.101600*%
%ADD13R,0.381000X0.508000*%
%ADD14C,0.203200*%
%ADD15C,0.025400*%
%ADD16R,0.508000X0.381000*%


D10*
X459740Y135890D02*
X459740Y116840D01*
X453390Y110490D01*
X440690Y110490D01*
X434340Y116840D01*
X427990Y110490D01*
X415290Y110490D01*
X408940Y116840D01*
X402590Y110490D01*
X389890Y110490D01*
X383540Y116840D01*
X383540Y135890D01*
X459740Y135890D01*
X466090Y142240D02*
X377190Y142240D01*
X466090Y142240D02*
X466090Y116840D01*
X459740Y110490D01*
X377190Y110490D01*
X377190Y142240D01*
D11*
X323850Y158750D02*
X323848Y158650D01*
X323842Y158551D01*
X323832Y158451D01*
X323819Y158353D01*
X323801Y158254D01*
X323780Y158157D01*
X323755Y158061D01*
X323726Y157965D01*
X323693Y157871D01*
X323657Y157778D01*
X323617Y157687D01*
X323573Y157597D01*
X323526Y157509D01*
X323476Y157423D01*
X323422Y157339D01*
X323365Y157257D01*
X323305Y157178D01*
X323241Y157100D01*
X323175Y157026D01*
X323106Y156954D01*
X323034Y156885D01*
X322960Y156819D01*
X322882Y156755D01*
X322803Y156695D01*
X322721Y156638D01*
X322637Y156584D01*
X322551Y156534D01*
X322463Y156487D01*
X322373Y156443D01*
X322282Y156403D01*
X322189Y156367D01*
X322095Y156334D01*
X321999Y156305D01*
X321903Y156280D01*
X321806Y156259D01*
X321707Y156241D01*
X321609Y156228D01*
X321509Y156218D01*
X321410Y156212D01*
X321310Y156210D01*
X323850Y173990D02*
X323848Y174090D01*
X323842Y174189D01*
X323832Y174289D01*
X323819Y174387D01*
X323801Y174486D01*
X323780Y174583D01*
X323755Y174679D01*
X323726Y174775D01*
X323693Y174869D01*
X323657Y174962D01*
X323617Y175053D01*
X323573Y175143D01*
X323526Y175231D01*
X323476Y175317D01*
X323422Y175401D01*
X323365Y175483D01*
X323305Y175562D01*
X323241Y175640D01*
X323175Y175714D01*
X323106Y175786D01*
X323034Y175855D01*
X322960Y175921D01*
X322882Y175985D01*
X322803Y176045D01*
X322721Y176102D01*
X322637Y176156D01*
X322551Y176206D01*
X322463Y176253D01*
X322373Y176297D01*
X322282Y176337D01*
X322189Y176373D01*
X322095Y176406D01*
X321999Y176435D01*
X321903Y176460D01*
X321806Y176481D01*
X321707Y176499D01*
X321609Y176512D01*
X321509Y176522D01*
X321410Y176528D01*
X321310Y176530D01*
X275590Y176530D02*
X275490Y176528D01*
X275391Y176522D01*
X275291Y176512D01*
X275193Y176499D01*
X275094Y176481D01*
X274997Y176460D01*
X274901Y176435D01*
X274805Y176406D01*
X274711Y176373D01*
X274618Y176337D01*
X274527Y176297D01*
X274437Y176253D01*
X274349Y176206D01*
X274263Y176156D01*
X274179Y176102D01*
X274097Y176045D01*
X274018Y175985D01*
X273940Y175921D01*
X273866Y175855D01*
X273794Y175786D01*
X273725Y175714D01*
X273659Y175640D01*
X273595Y175562D01*
X273535Y175483D01*
X273478Y175401D01*
X273424Y175317D01*
X273374Y175231D01*
X273327Y175143D01*
X273283Y175053D01*
X273243Y174962D01*
X273207Y174869D01*
X273174Y174775D01*
X273145Y174679D01*
X273120Y174583D01*
X273099Y174486D01*
X273081Y174387D01*
X273068Y174289D01*
X273058Y174189D01*
X273052Y174090D01*
X273050Y173990D01*
X273050Y158750D02*
X273052Y158650D01*
X273058Y158551D01*
X273068Y158451D01*
X273081Y158353D01*
X273099Y158254D01*
X273120Y158157D01*
X273145Y158061D01*
X273174Y157965D01*
X273207Y157871D01*
X273243Y157778D01*
X273283Y157687D01*
X273327Y157597D01*
X273374Y157509D01*
X273424Y157423D01*
X273478Y157339D01*
X273535Y157257D01*
X273595Y157178D01*
X273659Y157100D01*
X273725Y157026D01*
X273794Y156954D01*
X273866Y156885D01*
X273940Y156819D01*
X274018Y156755D01*
X274097Y156695D01*
X274179Y156638D01*
X274263Y156584D01*
X274349Y156534D01*
X274437Y156487D01*
X274527Y156443D01*
X274618Y156403D01*
X274711Y156367D01*
X274805Y156334D01*
X274901Y156305D01*
X274997Y156280D01*
X275094Y156259D01*
X275193Y156241D01*
X275291Y156228D01*
X275391Y156218D01*
X275490Y156212D01*
X275590Y156210D01*
X323850Y158750D02*
X323850Y173990D01*
X321310Y156210D02*
X317500Y156210D01*
X316230Y157480D01*
X317500Y176530D02*
X321310Y176530D01*
X317500Y176530D02*
X316230Y175260D01*
X280670Y157480D02*
X279400Y156210D01*
X280670Y157480D02*
X316230Y157480D01*
X280670Y175260D02*
X279400Y176530D01*
X280670Y175260D02*
X316230Y175260D01*
X279400Y156210D02*
X275590Y156210D01*
X275590Y176530D02*
X279400Y176530D01*
X273050Y173990D02*
X273050Y158750D01*
D12*
X309553Y152908D02*
X309553Y144018D01*
X309553Y152908D02*
X312023Y152908D01*
X312121Y152906D01*
X312219Y152900D01*
X312317Y152890D01*
X312414Y152877D01*
X312511Y152859D01*
X312607Y152838D01*
X312701Y152813D01*
X312795Y152784D01*
X312888Y152752D01*
X312979Y152715D01*
X313069Y152676D01*
X313157Y152632D01*
X313243Y152585D01*
X313328Y152535D01*
X313410Y152482D01*
X313490Y152425D01*
X313568Y152365D01*
X313643Y152302D01*
X313716Y152236D01*
X313786Y152167D01*
X313853Y152096D01*
X313918Y152022D01*
X313979Y151945D01*
X314038Y151866D01*
X314093Y151785D01*
X314145Y151702D01*
X314193Y151616D01*
X314238Y151529D01*
X314280Y151440D01*
X314318Y151350D01*
X314352Y151258D01*
X314383Y151165D01*
X314410Y151070D01*
X314433Y150975D01*
X314453Y150878D01*
X314468Y150782D01*
X314480Y150684D01*
X314488Y150586D01*
X314492Y150488D01*
X314492Y150390D01*
X314488Y150292D01*
X314480Y150194D01*
X314468Y150096D01*
X314453Y150000D01*
X314433Y149903D01*
X314410Y149808D01*
X314383Y149713D01*
X314352Y149620D01*
X314318Y149528D01*
X314280Y149438D01*
X314238Y149349D01*
X314193Y149262D01*
X314145Y149176D01*
X314093Y149093D01*
X314038Y149012D01*
X313979Y148933D01*
X313918Y148856D01*
X313853Y148782D01*
X313786Y148711D01*
X313716Y148642D01*
X313643Y148576D01*
X313568Y148513D01*
X313490Y148453D01*
X313410Y148396D01*
X313328Y148343D01*
X313243Y148293D01*
X313157Y148246D01*
X313069Y148202D01*
X312979Y148163D01*
X312888Y148126D01*
X312795Y148094D01*
X312701Y148065D01*
X312607Y148040D01*
X312511Y148019D01*
X312414Y148001D01*
X312317Y147988D01*
X312219Y147978D01*
X312121Y147972D01*
X312023Y147970D01*
X312023Y147969D02*
X309553Y147969D01*
X312517Y147969D02*
X314492Y144018D01*
X318403Y150932D02*
X320873Y152908D01*
X320873Y144018D01*
X323342Y144018D02*
X318403Y144018D01*
D13*
X271145Y166370D03*
X325755Y166370D03*
D11*
X275590Y203200D02*
X275490Y203198D01*
X275391Y203192D01*
X275291Y203182D01*
X275193Y203169D01*
X275094Y203151D01*
X274997Y203130D01*
X274901Y203105D01*
X274805Y203076D01*
X274711Y203043D01*
X274618Y203007D01*
X274527Y202967D01*
X274437Y202923D01*
X274349Y202876D01*
X274263Y202826D01*
X274179Y202772D01*
X274097Y202715D01*
X274018Y202655D01*
X273940Y202591D01*
X273866Y202525D01*
X273794Y202456D01*
X273725Y202384D01*
X273659Y202310D01*
X273595Y202232D01*
X273535Y202153D01*
X273478Y202071D01*
X273424Y201987D01*
X273374Y201901D01*
X273327Y201813D01*
X273283Y201723D01*
X273243Y201632D01*
X273207Y201539D01*
X273174Y201445D01*
X273145Y201349D01*
X273120Y201253D01*
X273099Y201156D01*
X273081Y201057D01*
X273068Y200959D01*
X273058Y200859D01*
X273052Y200760D01*
X273050Y200660D01*
X273050Y185420D02*
X273052Y185320D01*
X273058Y185221D01*
X273068Y185121D01*
X273081Y185023D01*
X273099Y184924D01*
X273120Y184827D01*
X273145Y184731D01*
X273174Y184635D01*
X273207Y184541D01*
X273243Y184448D01*
X273283Y184357D01*
X273327Y184267D01*
X273374Y184179D01*
X273424Y184093D01*
X273478Y184009D01*
X273535Y183927D01*
X273595Y183848D01*
X273659Y183770D01*
X273725Y183696D01*
X273794Y183624D01*
X273866Y183555D01*
X273940Y183489D01*
X274018Y183425D01*
X274097Y183365D01*
X274179Y183308D01*
X274263Y183254D01*
X274349Y183204D01*
X274437Y183157D01*
X274527Y183113D01*
X274618Y183073D01*
X274711Y183037D01*
X274805Y183004D01*
X274901Y182975D01*
X274997Y182950D01*
X275094Y182929D01*
X275193Y182911D01*
X275291Y182898D01*
X275391Y182888D01*
X275490Y182882D01*
X275590Y182880D01*
X321310Y182880D02*
X321410Y182882D01*
X321509Y182888D01*
X321609Y182898D01*
X321707Y182911D01*
X321806Y182929D01*
X321903Y182950D01*
X321999Y182975D01*
X322095Y183004D01*
X322189Y183037D01*
X322282Y183073D01*
X322373Y183113D01*
X322463Y183157D01*
X322551Y183204D01*
X322637Y183254D01*
X322721Y183308D01*
X322803Y183365D01*
X322882Y183425D01*
X322960Y183489D01*
X323034Y183555D01*
X323106Y183624D01*
X323175Y183696D01*
X323241Y183770D01*
X323305Y183848D01*
X323365Y183927D01*
X323422Y184009D01*
X323476Y184093D01*
X323526Y184179D01*
X323573Y184267D01*
X323617Y184357D01*
X323657Y184448D01*
X323693Y184541D01*
X323726Y184635D01*
X323755Y184731D01*
X323780Y184827D01*
X323801Y184924D01*
X323819Y185023D01*
X323832Y185121D01*
X323842Y185221D01*
X323848Y185320D01*
X323850Y185420D01*
X323850Y200660D02*
X323848Y200760D01*
X323842Y200859D01*
X323832Y200959D01*
X323819Y201057D01*
X323801Y201156D01*
X323780Y201253D01*
X323755Y201349D01*
X323726Y201445D01*
X323693Y201539D01*
X323657Y201632D01*
X323617Y201723D01*
X323573Y201813D01*
X323526Y201901D01*
X323476Y201987D01*
X323422Y202071D01*
X323365Y202153D01*
X323305Y202232D01*
X323241Y202310D01*
X323175Y202384D01*
X323106Y202456D01*
X323034Y202525D01*
X322960Y202591D01*
X322882Y202655D01*
X322803Y202715D01*
X322721Y202772D01*
X322637Y202826D01*
X322551Y202876D01*
X322463Y202923D01*
X322373Y202967D01*
X322282Y203007D01*
X322189Y203043D01*
X322095Y203076D01*
X321999Y203105D01*
X321903Y203130D01*
X321806Y203151D01*
X321707Y203169D01*
X321609Y203182D01*
X321509Y203192D01*
X321410Y203198D01*
X321310Y203200D01*
X273050Y200660D02*
X273050Y185420D01*
X275590Y203200D02*
X279400Y203200D01*
X280670Y201930D01*
X279400Y182880D02*
X275590Y182880D01*
X279400Y182880D02*
X280670Y184150D01*
X316230Y201930D02*
X317500Y203200D01*
X316230Y201930D02*
X280670Y201930D01*
X316230Y184150D02*
X317500Y182880D01*
X316230Y184150D02*
X280670Y184150D01*
X317500Y203200D02*
X321310Y203200D01*
X321310Y182880D02*
X317500Y182880D01*
X323850Y185420D02*
X323850Y200660D01*
D12*
X273558Y206502D02*
X273558Y215392D01*
X276027Y215392D01*
X276125Y215390D01*
X276223Y215384D01*
X276321Y215374D01*
X276418Y215361D01*
X276515Y215343D01*
X276611Y215322D01*
X276705Y215297D01*
X276799Y215268D01*
X276892Y215236D01*
X276983Y215199D01*
X277073Y215160D01*
X277161Y215116D01*
X277247Y215069D01*
X277332Y215019D01*
X277414Y214966D01*
X277494Y214909D01*
X277572Y214849D01*
X277647Y214786D01*
X277720Y214720D01*
X277790Y214651D01*
X277857Y214580D01*
X277922Y214506D01*
X277983Y214429D01*
X278042Y214350D01*
X278097Y214269D01*
X278149Y214186D01*
X278197Y214100D01*
X278242Y214013D01*
X278284Y213924D01*
X278322Y213834D01*
X278356Y213742D01*
X278387Y213649D01*
X278414Y213554D01*
X278437Y213459D01*
X278457Y213362D01*
X278472Y213266D01*
X278484Y213168D01*
X278492Y213070D01*
X278496Y212972D01*
X278496Y212874D01*
X278492Y212776D01*
X278484Y212678D01*
X278472Y212580D01*
X278457Y212484D01*
X278437Y212387D01*
X278414Y212292D01*
X278387Y212197D01*
X278356Y212104D01*
X278322Y212012D01*
X278284Y211922D01*
X278242Y211833D01*
X278197Y211746D01*
X278149Y211660D01*
X278097Y211577D01*
X278042Y211496D01*
X277983Y211417D01*
X277922Y211340D01*
X277857Y211266D01*
X277790Y211195D01*
X277720Y211126D01*
X277647Y211060D01*
X277572Y210997D01*
X277494Y210937D01*
X277414Y210880D01*
X277332Y210827D01*
X277247Y210777D01*
X277161Y210730D01*
X277073Y210686D01*
X276983Y210647D01*
X276892Y210610D01*
X276799Y210578D01*
X276705Y210549D01*
X276611Y210524D01*
X276515Y210503D01*
X276418Y210485D01*
X276321Y210472D01*
X276223Y210462D01*
X276125Y210456D01*
X276027Y210454D01*
X276027Y210453D02*
X273558Y210453D01*
X276521Y210453D02*
X278497Y206502D01*
X287347Y213170D02*
X287345Y213262D01*
X287339Y213354D01*
X287330Y213445D01*
X287317Y213536D01*
X287300Y213626D01*
X287279Y213716D01*
X287255Y213804D01*
X287227Y213892D01*
X287195Y213978D01*
X287160Y214063D01*
X287121Y214146D01*
X287079Y214228D01*
X287034Y214308D01*
X286985Y214386D01*
X286933Y214462D01*
X286878Y214535D01*
X286820Y214607D01*
X286760Y214676D01*
X286696Y214742D01*
X286630Y214806D01*
X286561Y214866D01*
X286489Y214924D01*
X286416Y214979D01*
X286340Y215031D01*
X286262Y215080D01*
X286182Y215125D01*
X286100Y215167D01*
X286017Y215206D01*
X285932Y215241D01*
X285846Y215273D01*
X285758Y215301D01*
X285670Y215325D01*
X285580Y215346D01*
X285490Y215363D01*
X285399Y215376D01*
X285308Y215385D01*
X285216Y215391D01*
X285124Y215393D01*
X285124Y215392D02*
X285018Y215390D01*
X284913Y215384D01*
X284808Y215374D01*
X284703Y215361D01*
X284599Y215343D01*
X284496Y215322D01*
X284393Y215297D01*
X284291Y215268D01*
X284191Y215235D01*
X284092Y215199D01*
X283994Y215159D01*
X283898Y215115D01*
X283803Y215068D01*
X283711Y215018D01*
X283620Y214964D01*
X283531Y214906D01*
X283445Y214846D01*
X283361Y214782D01*
X283279Y214716D01*
X283199Y214646D01*
X283123Y214573D01*
X283049Y214498D01*
X282978Y214420D01*
X282910Y214339D01*
X282844Y214256D01*
X282782Y214170D01*
X282724Y214083D01*
X282668Y213993D01*
X282616Y213901D01*
X282567Y213807D01*
X282522Y213712D01*
X282480Y213615D01*
X282442Y213516D01*
X282408Y213417D01*
X286606Y211441D02*
X286675Y211510D01*
X286741Y211580D01*
X286804Y211654D01*
X286863Y211730D01*
X286920Y211808D01*
X286974Y211888D01*
X287024Y211971D01*
X287071Y212055D01*
X287114Y212142D01*
X287154Y212230D01*
X287190Y212319D01*
X287223Y212410D01*
X287252Y212502D01*
X287277Y212596D01*
X287298Y212690D01*
X287316Y212785D01*
X287329Y212881D01*
X287339Y212977D01*
X287345Y213073D01*
X287347Y213170D01*
X286606Y211441D02*
X282408Y206502D01*
X287347Y206502D01*
D13*
X325755Y193040D03*
X271145Y193040D03*
D10*
X355600Y270510D02*
X431800Y270510D01*
X355600Y270510D02*
X355600Y143510D01*
X431800Y143510D01*
X431800Y270510D01*
D12*
X395478Y256032D02*
X399373Y244348D01*
X403267Y256032D01*
X410120Y244348D02*
X412717Y244348D01*
X410120Y244348D02*
X410021Y244350D01*
X409921Y244356D01*
X409822Y244365D01*
X409724Y244378D01*
X409626Y244395D01*
X409528Y244416D01*
X409432Y244441D01*
X409337Y244469D01*
X409243Y244501D01*
X409150Y244536D01*
X409058Y244575D01*
X408968Y244618D01*
X408880Y244663D01*
X408793Y244713D01*
X408709Y244765D01*
X408626Y244821D01*
X408546Y244879D01*
X408468Y244941D01*
X408393Y245006D01*
X408320Y245074D01*
X408250Y245144D01*
X408182Y245217D01*
X408117Y245292D01*
X408055Y245370D01*
X407997Y245450D01*
X407941Y245533D01*
X407889Y245617D01*
X407839Y245704D01*
X407794Y245792D01*
X407751Y245882D01*
X407712Y245974D01*
X407677Y246067D01*
X407645Y246161D01*
X407617Y246256D01*
X407592Y246352D01*
X407571Y246450D01*
X407554Y246548D01*
X407541Y246646D01*
X407532Y246745D01*
X407526Y246845D01*
X407524Y246944D01*
X407524Y253436D01*
X407526Y253535D01*
X407532Y253635D01*
X407541Y253734D01*
X407554Y253832D01*
X407571Y253930D01*
X407592Y254028D01*
X407617Y254124D01*
X407645Y254219D01*
X407677Y254313D01*
X407712Y254406D01*
X407751Y254498D01*
X407794Y254588D01*
X407839Y254676D01*
X407889Y254763D01*
X407941Y254847D01*
X407997Y254930D01*
X408055Y255010D01*
X408117Y255088D01*
X408182Y255163D01*
X408250Y255236D01*
X408320Y255306D01*
X408393Y255374D01*
X408468Y255439D01*
X408546Y255501D01*
X408626Y255559D01*
X408709Y255615D01*
X408793Y255667D01*
X408880Y255717D01*
X408968Y255762D01*
X409058Y255805D01*
X409150Y255844D01*
X409242Y255879D01*
X409337Y255911D01*
X409432Y255939D01*
X409528Y255964D01*
X409626Y255985D01*
X409724Y256002D01*
X409822Y256015D01*
X409921Y256024D01*
X410021Y256030D01*
X410120Y256032D01*
X412717Y256032D01*
X419645Y244348D02*
X422242Y244348D01*
X419645Y244348D02*
X419546Y244350D01*
X419446Y244356D01*
X419347Y244365D01*
X419249Y244378D01*
X419151Y244395D01*
X419053Y244416D01*
X418957Y244441D01*
X418862Y244469D01*
X418768Y244501D01*
X418675Y244536D01*
X418583Y244575D01*
X418493Y244618D01*
X418405Y244663D01*
X418318Y244713D01*
X418234Y244765D01*
X418151Y244821D01*
X418071Y244879D01*
X417993Y244941D01*
X417918Y245006D01*
X417845Y245074D01*
X417775Y245144D01*
X417707Y245217D01*
X417642Y245292D01*
X417580Y245370D01*
X417522Y245450D01*
X417466Y245533D01*
X417414Y245617D01*
X417364Y245704D01*
X417319Y245792D01*
X417276Y245882D01*
X417237Y245974D01*
X417202Y246067D01*
X417170Y246161D01*
X417142Y246256D01*
X417117Y246352D01*
X417096Y246450D01*
X417079Y246548D01*
X417066Y246646D01*
X417057Y246745D01*
X417051Y246845D01*
X417049Y246944D01*
X417049Y253436D01*
X417051Y253535D01*
X417057Y253635D01*
X417066Y253734D01*
X417079Y253832D01*
X417096Y253930D01*
X417117Y254028D01*
X417142Y254124D01*
X417170Y254219D01*
X417202Y254313D01*
X417237Y254406D01*
X417276Y254498D01*
X417319Y254588D01*
X417364Y254676D01*
X417414Y254763D01*
X417466Y254847D01*
X417522Y254930D01*
X417580Y255010D01*
X417642Y255088D01*
X417707Y255163D01*
X417775Y255236D01*
X417845Y255306D01*
X417918Y255374D01*
X417993Y255439D01*
X418071Y255501D01*
X418151Y255559D01*
X418234Y255615D01*
X418318Y255667D01*
X418405Y255717D01*
X418493Y255762D01*
X418583Y255805D01*
X418675Y255844D01*
X418767Y255879D01*
X418862Y255911D01*
X418957Y255939D01*
X419053Y255964D01*
X419151Y255985D01*
X419249Y256002D01*
X419347Y256015D01*
X419446Y256024D01*
X419546Y256030D01*
X419645Y256032D01*
X422242Y256032D01*
X398159Y220359D02*
X396212Y220359D01*
X398159Y220359D02*
X398159Y213868D01*
X394264Y213868D01*
X394165Y213870D01*
X394065Y213876D01*
X393966Y213885D01*
X393868Y213898D01*
X393770Y213915D01*
X393672Y213936D01*
X393576Y213961D01*
X393481Y213989D01*
X393387Y214021D01*
X393294Y214056D01*
X393202Y214095D01*
X393112Y214138D01*
X393024Y214183D01*
X392937Y214233D01*
X392853Y214285D01*
X392770Y214341D01*
X392690Y214399D01*
X392612Y214461D01*
X392537Y214526D01*
X392464Y214594D01*
X392394Y214664D01*
X392326Y214737D01*
X392261Y214812D01*
X392199Y214890D01*
X392141Y214970D01*
X392085Y215053D01*
X392033Y215137D01*
X391983Y215224D01*
X391938Y215312D01*
X391895Y215402D01*
X391856Y215494D01*
X391821Y215587D01*
X391789Y215681D01*
X391761Y215776D01*
X391736Y215872D01*
X391715Y215970D01*
X391698Y216068D01*
X391685Y216166D01*
X391676Y216265D01*
X391670Y216365D01*
X391668Y216464D01*
X391668Y222956D01*
X391670Y223055D01*
X391676Y223155D01*
X391685Y223254D01*
X391698Y223352D01*
X391715Y223450D01*
X391736Y223548D01*
X391761Y223644D01*
X391789Y223739D01*
X391821Y223833D01*
X391856Y223926D01*
X391895Y224018D01*
X391938Y224108D01*
X391983Y224196D01*
X392033Y224283D01*
X392085Y224367D01*
X392141Y224450D01*
X392199Y224530D01*
X392261Y224608D01*
X392326Y224683D01*
X392394Y224756D01*
X392464Y224826D01*
X392537Y224894D01*
X392612Y224959D01*
X392690Y225021D01*
X392770Y225079D01*
X392853Y225135D01*
X392937Y225187D01*
X393024Y225237D01*
X393112Y225282D01*
X393202Y225325D01*
X393294Y225364D01*
X393386Y225399D01*
X393481Y225431D01*
X393576Y225459D01*
X393672Y225484D01*
X393770Y225505D01*
X393868Y225522D01*
X393966Y225535D01*
X394065Y225544D01*
X394165Y225550D01*
X394264Y225552D01*
X398159Y225552D01*
X403860Y225552D02*
X403860Y213868D01*
X410351Y213868D02*
X403860Y225552D01*
X410351Y225552D02*
X410351Y213868D01*
X416052Y213868D02*
X416052Y225552D01*
X419297Y225552D01*
X419410Y225550D01*
X419523Y225544D01*
X419636Y225534D01*
X419749Y225520D01*
X419861Y225503D01*
X419972Y225481D01*
X420082Y225456D01*
X420192Y225426D01*
X420300Y225393D01*
X420407Y225356D01*
X420513Y225316D01*
X420617Y225271D01*
X420720Y225223D01*
X420821Y225172D01*
X420920Y225117D01*
X421017Y225059D01*
X421112Y224997D01*
X421205Y224932D01*
X421295Y224864D01*
X421383Y224793D01*
X421469Y224718D01*
X421552Y224641D01*
X421632Y224561D01*
X421709Y224478D01*
X421784Y224392D01*
X421855Y224304D01*
X421923Y224214D01*
X421988Y224121D01*
X422050Y224026D01*
X422108Y223929D01*
X422163Y223830D01*
X422214Y223729D01*
X422262Y223626D01*
X422307Y223522D01*
X422347Y223416D01*
X422384Y223309D01*
X422417Y223201D01*
X422447Y223091D01*
X422472Y222981D01*
X422494Y222870D01*
X422511Y222758D01*
X422525Y222645D01*
X422535Y222532D01*
X422541Y222419D01*
X422543Y222306D01*
X422543Y217114D01*
X422544Y217114D02*
X422542Y217001D01*
X422536Y216888D01*
X422526Y216775D01*
X422512Y216662D01*
X422495Y216550D01*
X422473Y216439D01*
X422448Y216329D01*
X422418Y216219D01*
X422385Y216111D01*
X422348Y216004D01*
X422308Y215898D01*
X422263Y215794D01*
X422215Y215691D01*
X422164Y215590D01*
X422109Y215491D01*
X422051Y215394D01*
X421989Y215299D01*
X421924Y215206D01*
X421856Y215116D01*
X421785Y215028D01*
X421710Y214942D01*
X421633Y214859D01*
X421553Y214779D01*
X421470Y214702D01*
X421384Y214627D01*
X421296Y214556D01*
X421206Y214488D01*
X421113Y214423D01*
X421018Y214361D01*
X420921Y214303D01*
X420822Y214248D01*
X420721Y214197D01*
X420618Y214149D01*
X420514Y214104D01*
X420408Y214064D01*
X420301Y214027D01*
X420193Y213994D01*
X420083Y213964D01*
X419973Y213939D01*
X419862Y213917D01*
X419750Y213900D01*
X419637Y213886D01*
X419524Y213876D01*
X419411Y213870D01*
X419298Y213868D01*
X419297Y213868D02*
X416052Y213868D01*
X392938Y200152D02*
X392938Y188468D01*
X392938Y200152D02*
X396184Y200152D01*
X396297Y200150D01*
X396410Y200144D01*
X396523Y200134D01*
X396636Y200120D01*
X396748Y200103D01*
X396859Y200081D01*
X396969Y200056D01*
X397079Y200026D01*
X397187Y199993D01*
X397294Y199956D01*
X397400Y199916D01*
X397504Y199871D01*
X397607Y199823D01*
X397708Y199772D01*
X397807Y199717D01*
X397904Y199659D01*
X397999Y199597D01*
X398092Y199532D01*
X398182Y199464D01*
X398270Y199393D01*
X398356Y199318D01*
X398439Y199241D01*
X398519Y199161D01*
X398596Y199078D01*
X398671Y198992D01*
X398742Y198904D01*
X398810Y198814D01*
X398875Y198721D01*
X398937Y198626D01*
X398995Y198529D01*
X399050Y198430D01*
X399101Y198329D01*
X399149Y198226D01*
X399194Y198122D01*
X399234Y198016D01*
X399271Y197909D01*
X399304Y197801D01*
X399334Y197691D01*
X399359Y197581D01*
X399381Y197470D01*
X399398Y197358D01*
X399412Y197245D01*
X399422Y197132D01*
X399428Y197019D01*
X399430Y196906D01*
X399429Y196906D02*
X399429Y191714D01*
X399430Y191714D02*
X399428Y191601D01*
X399422Y191488D01*
X399412Y191375D01*
X399398Y191262D01*
X399381Y191150D01*
X399359Y191039D01*
X399334Y190929D01*
X399304Y190819D01*
X399271Y190711D01*
X399234Y190604D01*
X399194Y190498D01*
X399149Y190394D01*
X399101Y190291D01*
X399050Y190190D01*
X398995Y190091D01*
X398937Y189994D01*
X398875Y189899D01*
X398810Y189806D01*
X398742Y189716D01*
X398671Y189628D01*
X398596Y189542D01*
X398519Y189459D01*
X398439Y189379D01*
X398356Y189302D01*
X398270Y189227D01*
X398182Y189156D01*
X398092Y189088D01*
X397999Y189023D01*
X397904Y188961D01*
X397807Y188903D01*
X397708Y188848D01*
X397607Y188797D01*
X397504Y188749D01*
X397400Y188704D01*
X397294Y188664D01*
X397187Y188627D01*
X397079Y188594D01*
X396969Y188564D01*
X396859Y188539D01*
X396748Y188517D01*
X396636Y188500D01*
X396523Y188486D01*
X396410Y188476D01*
X396297Y188470D01*
X396184Y188468D01*
X392938Y188468D01*
X404749Y191714D02*
X404749Y196906D01*
X404751Y197019D01*
X404757Y197132D01*
X404767Y197245D01*
X404781Y197358D01*
X404798Y197470D01*
X404820Y197581D01*
X404845Y197691D01*
X404875Y197801D01*
X404908Y197909D01*
X404945Y198016D01*
X404985Y198122D01*
X405030Y198226D01*
X405078Y198329D01*
X405129Y198430D01*
X405184Y198529D01*
X405242Y198626D01*
X405304Y198721D01*
X405369Y198814D01*
X405437Y198904D01*
X405508Y198992D01*
X405583Y199078D01*
X405660Y199161D01*
X405740Y199241D01*
X405823Y199318D01*
X405909Y199393D01*
X405997Y199464D01*
X406087Y199532D01*
X406180Y199597D01*
X406275Y199659D01*
X406372Y199717D01*
X406471Y199772D01*
X406572Y199823D01*
X406675Y199871D01*
X406779Y199916D01*
X406885Y199956D01*
X406992Y199993D01*
X407100Y200026D01*
X407210Y200056D01*
X407320Y200081D01*
X407431Y200103D01*
X407543Y200120D01*
X407656Y200134D01*
X407769Y200144D01*
X407882Y200150D01*
X407995Y200152D01*
X408108Y200150D01*
X408221Y200144D01*
X408334Y200134D01*
X408447Y200120D01*
X408559Y200103D01*
X408670Y200081D01*
X408780Y200056D01*
X408890Y200026D01*
X408998Y199993D01*
X409105Y199956D01*
X409211Y199916D01*
X409315Y199871D01*
X409418Y199823D01*
X409519Y199772D01*
X409618Y199717D01*
X409715Y199659D01*
X409810Y199597D01*
X409903Y199532D01*
X409993Y199464D01*
X410081Y199393D01*
X410167Y199318D01*
X410250Y199241D01*
X410330Y199161D01*
X410407Y199078D01*
X410482Y198992D01*
X410553Y198904D01*
X410621Y198814D01*
X410686Y198721D01*
X410748Y198626D01*
X410806Y198529D01*
X410861Y198430D01*
X410912Y198329D01*
X410960Y198226D01*
X411005Y198122D01*
X411045Y198016D01*
X411082Y197909D01*
X411115Y197801D01*
X411145Y197691D01*
X411170Y197581D01*
X411192Y197470D01*
X411209Y197358D01*
X411223Y197245D01*
X411233Y197132D01*
X411239Y197019D01*
X411241Y196906D01*
X411240Y196906D02*
X411240Y191714D01*
X411241Y191714D02*
X411239Y191601D01*
X411233Y191488D01*
X411223Y191375D01*
X411209Y191262D01*
X411192Y191150D01*
X411170Y191039D01*
X411145Y190929D01*
X411115Y190819D01*
X411082Y190711D01*
X411045Y190604D01*
X411005Y190498D01*
X410960Y190394D01*
X410912Y190291D01*
X410861Y190190D01*
X410806Y190091D01*
X410748Y189994D01*
X410686Y189899D01*
X410621Y189806D01*
X410553Y189716D01*
X410482Y189628D01*
X410407Y189542D01*
X410330Y189459D01*
X410250Y189379D01*
X410167Y189302D01*
X410081Y189227D01*
X409993Y189156D01*
X409903Y189088D01*
X409810Y189023D01*
X409715Y188961D01*
X409618Y188903D01*
X409519Y188848D01*
X409418Y188797D01*
X409315Y188749D01*
X409211Y188704D01*
X409105Y188664D01*
X408998Y188627D01*
X408890Y188594D01*
X408780Y188564D01*
X408670Y188539D01*
X408559Y188517D01*
X408447Y188500D01*
X408334Y188486D01*
X408221Y188476D01*
X408108Y188470D01*
X407995Y188468D01*
X407882Y188470D01*
X407769Y188476D01*
X407656Y188486D01*
X407543Y188500D01*
X407431Y188517D01*
X407320Y188539D01*
X407210Y188564D01*
X407100Y188594D01*
X406992Y188627D01*
X406885Y188664D01*
X406779Y188704D01*
X406675Y188749D01*
X406572Y188797D01*
X406471Y188848D01*
X406372Y188903D01*
X406275Y188961D01*
X406180Y189023D01*
X406087Y189088D01*
X405997Y189156D01*
X405909Y189227D01*
X405823Y189302D01*
X405740Y189379D01*
X405660Y189459D01*
X405583Y189542D01*
X405508Y189628D01*
X405437Y189716D01*
X405369Y189806D01*
X405304Y189899D01*
X405242Y189994D01*
X405184Y190091D01*
X405129Y190190D01*
X405078Y190291D01*
X405030Y190394D01*
X404985Y190498D01*
X404945Y190604D01*
X404908Y190711D01*
X404875Y190819D01*
X404845Y190929D01*
X404820Y191039D01*
X404798Y191150D01*
X404781Y191262D01*
X404767Y191375D01*
X404757Y191488D01*
X404751Y191601D01*
X404749Y191714D01*
X396833Y177292D02*
X392938Y165608D01*
X400727Y165608D02*
X396833Y177292D01*
X399754Y168529D02*
X393912Y168529D01*
X405017Y168854D02*
X405017Y174046D01*
X405019Y174159D01*
X405025Y174272D01*
X405035Y174385D01*
X405049Y174498D01*
X405066Y174610D01*
X405088Y174721D01*
X405113Y174831D01*
X405143Y174941D01*
X405176Y175049D01*
X405213Y175156D01*
X405253Y175262D01*
X405298Y175366D01*
X405346Y175469D01*
X405397Y175570D01*
X405452Y175669D01*
X405510Y175766D01*
X405572Y175861D01*
X405637Y175954D01*
X405705Y176044D01*
X405776Y176132D01*
X405851Y176218D01*
X405928Y176301D01*
X406008Y176381D01*
X406091Y176458D01*
X406177Y176533D01*
X406265Y176604D01*
X406355Y176672D01*
X406448Y176737D01*
X406543Y176799D01*
X406640Y176857D01*
X406739Y176912D01*
X406840Y176963D01*
X406943Y177011D01*
X407047Y177056D01*
X407153Y177096D01*
X407260Y177133D01*
X407368Y177166D01*
X407478Y177196D01*
X407588Y177221D01*
X407699Y177243D01*
X407811Y177260D01*
X407924Y177274D01*
X408037Y177284D01*
X408150Y177290D01*
X408263Y177292D01*
X408376Y177290D01*
X408489Y177284D01*
X408602Y177274D01*
X408715Y177260D01*
X408827Y177243D01*
X408938Y177221D01*
X409048Y177196D01*
X409158Y177166D01*
X409266Y177133D01*
X409373Y177096D01*
X409479Y177056D01*
X409583Y177011D01*
X409686Y176963D01*
X409787Y176912D01*
X409886Y176857D01*
X409983Y176799D01*
X410078Y176737D01*
X410171Y176672D01*
X410261Y176604D01*
X410349Y176533D01*
X410435Y176458D01*
X410518Y176381D01*
X410598Y176301D01*
X410675Y176218D01*
X410750Y176132D01*
X410821Y176044D01*
X410889Y175954D01*
X410954Y175861D01*
X411016Y175766D01*
X411074Y175669D01*
X411129Y175570D01*
X411180Y175469D01*
X411228Y175366D01*
X411273Y175262D01*
X411313Y175156D01*
X411350Y175049D01*
X411383Y174941D01*
X411413Y174831D01*
X411438Y174721D01*
X411460Y174610D01*
X411477Y174498D01*
X411491Y174385D01*
X411501Y174272D01*
X411507Y174159D01*
X411509Y174046D01*
X411508Y174046D02*
X411508Y168854D01*
X411509Y168854D02*
X411507Y168741D01*
X411501Y168628D01*
X411491Y168515D01*
X411477Y168402D01*
X411460Y168290D01*
X411438Y168179D01*
X411413Y168069D01*
X411383Y167959D01*
X411350Y167851D01*
X411313Y167744D01*
X411273Y167638D01*
X411228Y167534D01*
X411180Y167431D01*
X411129Y167330D01*
X411074Y167231D01*
X411016Y167134D01*
X410954Y167039D01*
X410889Y166946D01*
X410821Y166856D01*
X410750Y166768D01*
X410675Y166682D01*
X410598Y166599D01*
X410518Y166519D01*
X410435Y166442D01*
X410349Y166367D01*
X410261Y166296D01*
X410171Y166228D01*
X410078Y166163D01*
X409983Y166101D01*
X409886Y166043D01*
X409787Y165988D01*
X409686Y165937D01*
X409583Y165889D01*
X409479Y165844D01*
X409373Y165804D01*
X409266Y165767D01*
X409158Y165734D01*
X409048Y165704D01*
X408938Y165679D01*
X408827Y165657D01*
X408715Y165640D01*
X408602Y165626D01*
X408489Y165616D01*
X408376Y165610D01*
X408263Y165608D01*
X408150Y165610D01*
X408037Y165616D01*
X407924Y165626D01*
X407811Y165640D01*
X407699Y165657D01*
X407588Y165679D01*
X407478Y165704D01*
X407368Y165734D01*
X407260Y165767D01*
X407153Y165804D01*
X407047Y165844D01*
X406943Y165889D01*
X406840Y165937D01*
X406739Y165988D01*
X406640Y166043D01*
X406543Y166101D01*
X406448Y166163D01*
X406355Y166228D01*
X406265Y166296D01*
X406177Y166367D01*
X406091Y166442D01*
X406008Y166519D01*
X405928Y166599D01*
X405851Y166682D01*
X405776Y166768D01*
X405705Y166856D01*
X405637Y166946D01*
X405572Y167039D01*
X405510Y167134D01*
X405452Y167231D01*
X405397Y167330D01*
X405346Y167431D01*
X405298Y167534D01*
X405253Y167638D01*
X405213Y167744D01*
X405176Y167851D01*
X405143Y167959D01*
X405113Y168069D01*
X405088Y168179D01*
X405066Y168290D01*
X405049Y168402D01*
X405035Y168515D01*
X405025Y168628D01*
X405019Y168741D01*
X405017Y168854D01*
D10*
X247650Y144780D02*
X196850Y144780D01*
X247650Y144780D02*
X247650Y246380D01*
X196850Y246380D01*
X196850Y144780D01*
X301244Y326025D02*
X306070Y326025D01*
X301244Y326025D02*
X301244Y327365D01*
X301246Y327435D01*
X301251Y327505D01*
X301261Y327575D01*
X301273Y327644D01*
X301290Y327712D01*
X301310Y327779D01*
X301333Y327846D01*
X301360Y327910D01*
X301390Y327974D01*
X301424Y328036D01*
X301460Y328095D01*
X301500Y328153D01*
X301543Y328209D01*
X301588Y328262D01*
X301637Y328313D01*
X301688Y328362D01*
X301741Y328407D01*
X301797Y328450D01*
X301855Y328490D01*
X301915Y328526D01*
X301976Y328560D01*
X302040Y328590D01*
X302104Y328617D01*
X302171Y328640D01*
X302238Y328660D01*
X302306Y328677D01*
X302375Y328689D01*
X302445Y328699D01*
X302515Y328704D01*
X302585Y328706D01*
X304729Y328706D01*
X304799Y328704D01*
X304869Y328699D01*
X304939Y328689D01*
X305008Y328677D01*
X305076Y328660D01*
X305143Y328640D01*
X305210Y328617D01*
X305274Y328590D01*
X305338Y328560D01*
X305400Y328526D01*
X305459Y328490D01*
X305517Y328450D01*
X305573Y328407D01*
X305626Y328362D01*
X305677Y328313D01*
X305726Y328262D01*
X305771Y328209D01*
X305814Y328153D01*
X305854Y328095D01*
X305890Y328035D01*
X305924Y327974D01*
X305954Y327910D01*
X305981Y327846D01*
X306004Y327779D01*
X306024Y327712D01*
X306041Y327644D01*
X306053Y327575D01*
X306063Y327505D01*
X306068Y327435D01*
X306070Y327365D01*
X306070Y326025D01*
X302316Y331694D02*
X301244Y333035D01*
X306070Y333035D01*
X306070Y334375D02*
X306070Y331694D01*
D14*
X285750Y304800D02*
X247650Y304800D01*
D15*
X286537Y303962D02*
X285165Y305791D01*
X285166Y305791D02*
X285757Y306250D01*
X286337Y306723D01*
X286905Y307210D01*
X287461Y307711D01*
X288004Y308225D01*
X288535Y308752D01*
X289053Y309292D01*
X289558Y309845D01*
X290048Y310410D01*
X290525Y310987D01*
X290988Y311575D01*
X291436Y312174D01*
X291869Y312785D01*
X292288Y313405D01*
X292690Y314036D01*
X293078Y314676D01*
X293450Y315325D01*
X293805Y315984D01*
X294145Y316651D01*
X294468Y317326D01*
X294774Y318009D01*
X295064Y318699D01*
X295337Y319395D01*
X295592Y320099D01*
X295830Y320808D01*
X296051Y321523D01*
X296255Y322243D01*
X296440Y322968D01*
X296608Y323697D01*
X296758Y324431D01*
X296890Y325167D01*
X297004Y325907D01*
X297100Y326649D01*
X297178Y327393D01*
X297238Y328139D01*
X297279Y328886D01*
X297302Y329634D01*
X297306Y330383D01*
X297293Y331131D01*
X297261Y331879D01*
X297211Y332625D01*
X297142Y333370D01*
X297056Y334114D01*
X296951Y334855D01*
X296828Y335593D01*
X296687Y336328D01*
X296529Y337059D01*
X296352Y337786D01*
X296158Y338509D01*
X295946Y339227D01*
X295716Y339939D01*
X295469Y340645D01*
X295205Y341346D01*
X294924Y342039D01*
X294627Y342726D01*
X294312Y343405D01*
X293981Y344076D01*
X293634Y344739D01*
X293270Y345393D01*
X292891Y346038D01*
X292496Y346673D01*
X292085Y347299D01*
X291660Y347915D01*
X291219Y348520D01*
X290764Y349114D01*
X290294Y349696D01*
X289810Y350267D01*
X289313Y350826D01*
X288802Y351373D01*
X288278Y351907D01*
X287741Y352428D01*
X287191Y352936D01*
X286629Y353430D01*
X286055Y353910D01*
X285470Y354376D01*
X284873Y354828D01*
X284265Y355265D01*
X283647Y355687D01*
X283019Y356094D01*
X282381Y356485D01*
X281734Y356860D01*
X281078Y357220D01*
X280413Y357563D01*
X279740Y357890D01*
X279059Y358201D01*
X278371Y358495D01*
X277675Y358771D01*
X276974Y359031D01*
X276266Y359274D01*
X275552Y359499D01*
X274833Y359707D01*
X274109Y359897D01*
X273381Y360069D01*
X272649Y360223D01*
X271913Y360360D01*
X271174Y360478D01*
X270432Y360579D01*
X269689Y360661D01*
X268943Y360725D01*
X268196Y360770D01*
X267448Y360798D01*
X266700Y360807D01*
X265952Y360798D01*
X265204Y360770D01*
X264457Y360725D01*
X263711Y360661D01*
X262968Y360579D01*
X262226Y360478D01*
X261487Y360360D01*
X260751Y360223D01*
X260019Y360069D01*
X259291Y359897D01*
X258567Y359707D01*
X257848Y359499D01*
X257134Y359274D01*
X256426Y359031D01*
X255725Y358771D01*
X255029Y358495D01*
X254341Y358201D01*
X253660Y357890D01*
X252987Y357563D01*
X252322Y357220D01*
X251666Y356860D01*
X251019Y356485D01*
X250381Y356094D01*
X249753Y355687D01*
X249135Y355265D01*
X248527Y354828D01*
X247930Y354376D01*
X247345Y353910D01*
X246771Y353430D01*
X246209Y352936D01*
X245659Y352428D01*
X245122Y351907D01*
X244598Y351373D01*
X244087Y350826D01*
X243590Y350267D01*
X243106Y349696D01*
X242636Y349114D01*
X242181Y348520D01*
X241740Y347915D01*
X241315Y347299D01*
X240904Y346673D01*
X240509Y346038D01*
X240130Y345393D01*
X239766Y344739D01*
X239419Y344076D01*
X239088Y343405D01*
X238773Y342726D01*
X238476Y342039D01*
X238195Y341346D01*
X237931Y340645D01*
X237684Y339939D01*
X237454Y339227D01*
X237242Y338509D01*
X237048Y337786D01*
X236871Y337059D01*
X236713Y336328D01*
X236572Y335593D01*
X236449Y334855D01*
X236344Y334114D01*
X236258Y333370D01*
X236189Y332625D01*
X236139Y331879D01*
X236107Y331131D01*
X236094Y330383D01*
X236098Y329634D01*
X236121Y328886D01*
X236162Y328139D01*
X236222Y327393D01*
X236300Y326649D01*
X236396Y325907D01*
X236510Y325167D01*
X236642Y324431D01*
X236792Y323697D01*
X236960Y322968D01*
X237145Y322243D01*
X237349Y321523D01*
X237570Y320808D01*
X237808Y320099D01*
X238063Y319395D01*
X238336Y318699D01*
X238626Y318009D01*
X238932Y317326D01*
X239255Y316651D01*
X239595Y315984D01*
X239950Y315325D01*
X240322Y314676D01*
X240710Y314036D01*
X241112Y313405D01*
X241531Y312785D01*
X241964Y312174D01*
X242412Y311575D01*
X242875Y310987D01*
X243352Y310410D01*
X243842Y309845D01*
X244347Y309292D01*
X244865Y308752D01*
X245396Y308225D01*
X245939Y307711D01*
X246495Y307210D01*
X247063Y306723D01*
X247643Y306250D01*
X248234Y305791D01*
X246863Y303962D01*
X246227Y304455D01*
X245604Y304963D01*
X244993Y305487D01*
X244395Y306025D01*
X243811Y306577D01*
X243240Y307144D01*
X242683Y307724D01*
X242141Y308318D01*
X241613Y308925D01*
X241101Y309545D01*
X240603Y310177D01*
X240121Y310821D01*
X239656Y311477D01*
X239206Y312144D01*
X238773Y312822D01*
X238356Y313510D01*
X237956Y314208D01*
X237574Y314915D01*
X237209Y315632D01*
X236862Y316357D01*
X236532Y317091D01*
X236221Y317833D01*
X235927Y318582D01*
X235652Y319337D01*
X235396Y320100D01*
X235158Y320868D01*
X234940Y321642D01*
X234740Y322421D01*
X234559Y323205D01*
X234398Y323993D01*
X234256Y324785D01*
X234133Y325580D01*
X234030Y326377D01*
X233946Y327177D01*
X233882Y327979D01*
X233838Y328782D01*
X233813Y329586D01*
X233808Y330390D01*
X233822Y331195D01*
X233856Y331998D01*
X233910Y332801D01*
X233983Y333602D01*
X234076Y334401D01*
X234189Y335197D01*
X234321Y335990D01*
X234472Y336780D01*
X234642Y337566D01*
X234832Y338348D01*
X235041Y339125D01*
X235269Y339896D01*
X235515Y340662D01*
X235780Y341421D01*
X236064Y342174D01*
X236366Y342919D01*
X236686Y343657D01*
X237024Y344387D01*
X237380Y345109D01*
X237753Y345821D01*
X238144Y346524D01*
X238551Y347217D01*
X238976Y347901D01*
X239417Y348573D01*
X239874Y349235D01*
X240348Y349885D01*
X240837Y350523D01*
X241341Y351150D01*
X241861Y351764D01*
X242396Y352364D01*
X242945Y352952D01*
X243509Y353526D01*
X244086Y354086D01*
X244677Y354632D01*
X245281Y355163D01*
X245897Y355679D01*
X246527Y356180D01*
X247168Y356666D01*
X247821Y357136D01*
X248485Y357589D01*
X249160Y358026D01*
X249846Y358447D01*
X250541Y358851D01*
X251247Y359237D01*
X251961Y359606D01*
X252685Y359958D01*
X253417Y360292D01*
X254156Y360607D01*
X254904Y360905D01*
X255658Y361184D01*
X256419Y361445D01*
X257186Y361687D01*
X257959Y361910D01*
X258737Y362114D01*
X259519Y362300D01*
X260306Y362466D01*
X261097Y362612D01*
X261891Y362740D01*
X262688Y362847D01*
X263488Y362936D01*
X264289Y363005D01*
X265092Y363054D01*
X265896Y363083D01*
X266700Y363093D01*
X267504Y363083D01*
X268308Y363054D01*
X269111Y363005D01*
X269912Y362936D01*
X270712Y362847D01*
X271509Y362740D01*
X272303Y362612D01*
X273094Y362466D01*
X273881Y362300D01*
X274663Y362114D01*
X275441Y361910D01*
X276214Y361687D01*
X276981Y361445D01*
X277742Y361184D01*
X278496Y360905D01*
X279244Y360607D01*
X279983Y360292D01*
X280715Y359958D01*
X281439Y359606D01*
X282153Y359237D01*
X282859Y358851D01*
X283554Y358447D01*
X284240Y358026D01*
X284915Y357589D01*
X285579Y357136D01*
X286232Y356666D01*
X286873Y356180D01*
X287503Y355679D01*
X288119Y355163D01*
X288723Y354632D01*
X289314Y354086D01*
X289891Y353526D01*
X290455Y352952D01*
X291004Y352364D01*
X291539Y351764D01*
X292059Y351150D01*
X292563Y350523D01*
X293052Y349885D01*
X293526Y349235D01*
X293983Y348573D01*
X294424Y347901D01*
X294849Y347217D01*
X295256Y346524D01*
X295647Y345821D01*
X296020Y345109D01*
X296376Y344387D01*
X296714Y343657D01*
X297034Y342919D01*
X297336Y342174D01*
X297620Y341421D01*
X297885Y340662D01*
X298131Y339896D01*
X298359Y339125D01*
X298568Y338348D01*
X298758Y337566D01*
X298928Y336780D01*
X299079Y335990D01*
X299211Y335197D01*
X299324Y334401D01*
X299417Y333602D01*
X299490Y332801D01*
X299544Y331998D01*
X299578Y331195D01*
X299592Y330390D01*
X299587Y329586D01*
X299562Y328782D01*
X299518Y327979D01*
X299454Y327177D01*
X299370Y326377D01*
X299267Y325580D01*
X299144Y324785D01*
X299002Y323993D01*
X298841Y323205D01*
X298660Y322421D01*
X298460Y321642D01*
X298242Y320868D01*
X298004Y320100D01*
X297748Y319337D01*
X297473Y318582D01*
X297179Y317833D01*
X296868Y317091D01*
X296538Y316357D01*
X296191Y315632D01*
X295826Y314915D01*
X295444Y314208D01*
X295044Y313510D01*
X294627Y312822D01*
X294194Y312144D01*
X293744Y311477D01*
X293279Y310821D01*
X292797Y310177D01*
X292299Y309545D01*
X291787Y308925D01*
X291259Y308318D01*
X290717Y307724D01*
X290160Y307144D01*
X289589Y306577D01*
X289005Y306025D01*
X288407Y305487D01*
X287796Y304963D01*
X287173Y304455D01*
X286537Y303962D01*
X286393Y304154D01*
X287024Y304643D01*
X287643Y305148D01*
X288249Y305667D01*
X288843Y306202D01*
X289423Y306750D01*
X289989Y307313D01*
X290542Y307889D01*
X291080Y308479D01*
X291604Y309081D01*
X292113Y309697D01*
X292607Y310324D01*
X293085Y310963D01*
X293548Y311614D01*
X293994Y312276D01*
X294424Y312949D01*
X294838Y313632D01*
X295234Y314325D01*
X295614Y315027D01*
X295976Y315739D01*
X296321Y316459D01*
X296648Y317187D01*
X296957Y317924D01*
X297248Y318667D01*
X297521Y319417D01*
X297776Y320174D01*
X298012Y320937D01*
X298229Y321705D01*
X298427Y322479D01*
X298606Y323257D01*
X298767Y324039D01*
X298908Y324825D01*
X299029Y325614D01*
X299132Y326406D01*
X299215Y327200D01*
X299279Y327996D01*
X299323Y328793D01*
X299347Y329591D01*
X299352Y330390D01*
X299338Y331188D01*
X299304Y331986D01*
X299251Y332782D01*
X299178Y333577D01*
X299086Y334370D01*
X298974Y335161D01*
X298843Y335949D01*
X298693Y336733D01*
X298524Y337513D01*
X298335Y338289D01*
X298128Y339060D01*
X297902Y339826D01*
X297657Y340586D01*
X297394Y341340D01*
X297112Y342087D01*
X296813Y342827D01*
X296495Y343560D01*
X296159Y344284D01*
X295806Y345000D01*
X295436Y345707D01*
X295048Y346405D01*
X294643Y347094D01*
X294222Y347772D01*
X293784Y348439D01*
X293330Y349096D01*
X292860Y349742D01*
X292374Y350375D01*
X291873Y350997D01*
X291357Y351606D01*
X290827Y352203D01*
X290281Y352786D01*
X289722Y353356D01*
X289149Y353912D01*
X288562Y354454D01*
X287963Y354981D01*
X287351Y355494D01*
X286726Y355991D01*
X286089Y356473D01*
X285441Y356939D01*
X284782Y357389D01*
X284112Y357823D01*
X283431Y358241D01*
X282740Y358642D01*
X282040Y359025D01*
X281331Y359392D01*
X280613Y359741D01*
X279886Y360072D01*
X279152Y360386D01*
X278410Y360681D01*
X277661Y360958D01*
X276906Y361217D01*
X276145Y361457D01*
X275378Y361679D01*
X274605Y361882D01*
X273828Y362065D01*
X273047Y362230D01*
X272262Y362376D01*
X271474Y362502D01*
X270682Y362609D01*
X269889Y362697D01*
X269093Y362765D01*
X268296Y362814D01*
X267498Y362843D01*
X266700Y362853D01*
X265902Y362843D01*
X265104Y362814D01*
X264307Y362765D01*
X263511Y362697D01*
X262718Y362609D01*
X261926Y362502D01*
X261138Y362376D01*
X260353Y362230D01*
X259572Y362065D01*
X258795Y361882D01*
X258022Y361679D01*
X257255Y361457D01*
X256494Y361217D01*
X255739Y360958D01*
X254990Y360681D01*
X254248Y360386D01*
X253514Y360072D01*
X252787Y359741D01*
X252069Y359392D01*
X251360Y359025D01*
X250660Y358642D01*
X249969Y358241D01*
X249288Y357823D01*
X248618Y357389D01*
X247959Y356939D01*
X247311Y356473D01*
X246674Y355991D01*
X246049Y355494D01*
X245437Y354981D01*
X244838Y354454D01*
X244251Y353912D01*
X243678Y353356D01*
X243119Y352786D01*
X242573Y352203D01*
X242043Y351606D01*
X241527Y350997D01*
X241026Y350375D01*
X240540Y349742D01*
X240070Y349096D01*
X239616Y348439D01*
X239178Y347772D01*
X238757Y347094D01*
X238352Y346405D01*
X237964Y345707D01*
X237594Y345000D01*
X237241Y344284D01*
X236905Y343560D01*
X236587Y342827D01*
X236288Y342087D01*
X236006Y341340D01*
X235743Y340586D01*
X235498Y339826D01*
X235272Y339060D01*
X235065Y338289D01*
X234876Y337513D01*
X234707Y336733D01*
X234557Y335949D01*
X234426Y335161D01*
X234314Y334370D01*
X234222Y333577D01*
X234149Y332782D01*
X234096Y331986D01*
X234062Y331188D01*
X234048Y330390D01*
X234053Y329591D01*
X234077Y328793D01*
X234121Y327996D01*
X234185Y327200D01*
X234268Y326406D01*
X234371Y325614D01*
X234492Y324825D01*
X234633Y324039D01*
X234794Y323257D01*
X234973Y322479D01*
X235171Y321705D01*
X235388Y320937D01*
X235624Y320174D01*
X235879Y319417D01*
X236152Y318667D01*
X236443Y317924D01*
X236752Y317187D01*
X237079Y316459D01*
X237424Y315739D01*
X237786Y315027D01*
X238166Y314325D01*
X238562Y313632D01*
X238976Y312949D01*
X239406Y312276D01*
X239852Y311614D01*
X240315Y310963D01*
X240793Y310324D01*
X241287Y309697D01*
X241796Y309081D01*
X242320Y308479D01*
X242858Y307889D01*
X243411Y307313D01*
X243977Y306750D01*
X244557Y306202D01*
X245151Y305667D01*
X245757Y305148D01*
X246376Y304643D01*
X247007Y304154D01*
X247151Y304346D01*
X246524Y304832D01*
X245910Y305333D01*
X245308Y305848D01*
X244719Y306379D01*
X244144Y306923D01*
X243581Y307482D01*
X243033Y308054D01*
X242498Y308639D01*
X241978Y309237D01*
X241473Y309848D01*
X240983Y310471D01*
X240508Y311105D01*
X240049Y311752D01*
X239606Y312409D01*
X239179Y313076D01*
X238769Y313755D01*
X238375Y314442D01*
X237998Y315140D01*
X237639Y315846D01*
X237296Y316561D01*
X236972Y317284D01*
X236665Y318014D01*
X236376Y318752D01*
X236105Y319497D01*
X235852Y320249D01*
X235618Y321006D01*
X235403Y321768D01*
X235206Y322536D01*
X235028Y323309D01*
X234869Y324085D01*
X234729Y324865D01*
X234608Y325648D01*
X234506Y326434D01*
X234424Y327223D01*
X234361Y328013D01*
X234317Y328804D01*
X234293Y329596D01*
X234288Y330389D01*
X234302Y331181D01*
X234336Y331973D01*
X234389Y332764D01*
X234461Y333553D01*
X234553Y334340D01*
X234663Y335125D01*
X234793Y335907D01*
X234942Y336685D01*
X235111Y337460D01*
X235297Y338230D01*
X235503Y338996D01*
X235728Y339756D01*
X235970Y340510D01*
X236232Y341258D01*
X236511Y342000D01*
X236809Y342735D01*
X237124Y343462D01*
X237457Y344181D01*
X237808Y344892D01*
X238176Y345594D01*
X238561Y346287D01*
X238962Y346970D01*
X239381Y347643D01*
X239815Y348306D01*
X240266Y348958D01*
X240733Y349598D01*
X241215Y350227D01*
X241712Y350845D01*
X242224Y351449D01*
X242751Y352041D01*
X243292Y352620D01*
X243847Y353186D01*
X244416Y353738D01*
X244998Y354276D01*
X245594Y354799D01*
X246201Y355308D01*
X246821Y355802D01*
X247453Y356280D01*
X248097Y356743D01*
X248751Y357190D01*
X249416Y357620D01*
X250092Y358035D01*
X250778Y358433D01*
X251473Y358813D01*
X252177Y359177D01*
X252890Y359524D01*
X253611Y359853D01*
X254340Y360164D01*
X255076Y360457D01*
X255819Y360732D01*
X256569Y360989D01*
X257325Y361228D01*
X258086Y361448D01*
X258853Y361649D01*
X259624Y361831D01*
X260400Y361995D01*
X261179Y362139D01*
X261962Y362265D01*
X262747Y362371D01*
X263535Y362458D01*
X264324Y362526D01*
X265115Y362574D01*
X265907Y362603D01*
X266700Y362613D01*
X267493Y362603D01*
X268285Y362574D01*
X269076Y362526D01*
X269865Y362458D01*
X270653Y362371D01*
X271438Y362265D01*
X272221Y362139D01*
X273000Y361995D01*
X273776Y361831D01*
X274547Y361649D01*
X275314Y361448D01*
X276075Y361228D01*
X276831Y360989D01*
X277581Y360732D01*
X278324Y360457D01*
X279060Y360164D01*
X279789Y359853D01*
X280510Y359524D01*
X281223Y359177D01*
X281927Y358813D01*
X282622Y358433D01*
X283308Y358035D01*
X283984Y357620D01*
X284649Y357190D01*
X285303Y356743D01*
X285947Y356280D01*
X286579Y355802D01*
X287199Y355308D01*
X287806Y354799D01*
X288402Y354276D01*
X288984Y353738D01*
X289553Y353186D01*
X290108Y352620D01*
X290649Y352041D01*
X291176Y351449D01*
X291688Y350845D01*
X292185Y350227D01*
X292667Y349598D01*
X293134Y348958D01*
X293585Y348306D01*
X294019Y347643D01*
X294438Y346970D01*
X294839Y346287D01*
X295224Y345594D01*
X295592Y344892D01*
X295943Y344181D01*
X296276Y343462D01*
X296591Y342735D01*
X296889Y342000D01*
X297168Y341258D01*
X297430Y340510D01*
X297672Y339756D01*
X297897Y338996D01*
X298103Y338230D01*
X298289Y337460D01*
X298458Y336685D01*
X298607Y335907D01*
X298737Y335125D01*
X298847Y334340D01*
X298939Y333553D01*
X299011Y332764D01*
X299064Y331973D01*
X299098Y331181D01*
X299112Y330389D01*
X299107Y329596D01*
X299083Y328804D01*
X299039Y328013D01*
X298976Y327223D01*
X298894Y326434D01*
X298792Y325648D01*
X298671Y324865D01*
X298531Y324085D01*
X298372Y323309D01*
X298194Y322536D01*
X297997Y321768D01*
X297782Y321006D01*
X297548Y320249D01*
X297295Y319497D01*
X297024Y318752D01*
X296735Y318014D01*
X296428Y317284D01*
X296104Y316561D01*
X295761Y315846D01*
X295402Y315140D01*
X295025Y314442D01*
X294631Y313755D01*
X294221Y313076D01*
X293794Y312409D01*
X293351Y311752D01*
X292892Y311105D01*
X292417Y310471D01*
X291927Y309848D01*
X291422Y309237D01*
X290902Y308639D01*
X290367Y308054D01*
X289819Y307482D01*
X289256Y306923D01*
X288681Y306379D01*
X288092Y305848D01*
X287490Y305333D01*
X286876Y304832D01*
X286249Y304346D01*
X286105Y304538D01*
X286727Y305020D01*
X287337Y305517D01*
X287934Y306029D01*
X288518Y306556D01*
X289090Y307096D01*
X289648Y307651D01*
X290193Y308218D01*
X290723Y308799D01*
X291239Y309393D01*
X291741Y309999D01*
X292227Y310618D01*
X292698Y311248D01*
X293154Y311889D01*
X293594Y312541D01*
X294017Y313204D01*
X294425Y313877D01*
X294816Y314560D01*
X295190Y315252D01*
X295546Y315953D01*
X295886Y316662D01*
X296208Y317380D01*
X296513Y318105D01*
X296800Y318838D01*
X297069Y319577D01*
X297319Y320323D01*
X297552Y321075D01*
X297766Y321832D01*
X297961Y322594D01*
X298138Y323360D01*
X298295Y324131D01*
X298434Y324905D01*
X298554Y325683D01*
X298655Y326463D01*
X298737Y327245D01*
X298800Y328030D01*
X298843Y328815D01*
X298867Y329601D01*
X298872Y330388D01*
X298858Y331175D01*
X298825Y331961D01*
X298772Y332745D01*
X298700Y333529D01*
X298609Y334310D01*
X298499Y335089D01*
X298370Y335865D01*
X298222Y336638D01*
X298055Y337407D01*
X297870Y338171D01*
X297666Y338931D01*
X297443Y339685D01*
X297202Y340434D01*
X296943Y341177D01*
X296665Y341913D01*
X296370Y342642D01*
X296057Y343364D01*
X295726Y344078D01*
X295378Y344783D01*
X295013Y345480D01*
X294631Y346168D01*
X294232Y346846D01*
X293817Y347514D01*
X293385Y348172D01*
X292938Y348819D01*
X292475Y349455D01*
X291996Y350079D01*
X291503Y350692D01*
X290994Y351292D01*
X290471Y351880D01*
X289934Y352455D01*
X289383Y353016D01*
X288819Y353564D01*
X288241Y354098D01*
X287650Y354617D01*
X287047Y355122D01*
X286431Y355612D01*
X285804Y356087D01*
X285165Y356546D01*
X284516Y356990D01*
X283855Y357418D01*
X283185Y357829D01*
X282504Y358224D01*
X281814Y358602D01*
X281115Y358963D01*
X280408Y359307D01*
X279692Y359633D01*
X278969Y359942D01*
X278238Y360233D01*
X277500Y360506D01*
X276756Y360761D01*
X276006Y360998D01*
X275250Y361216D01*
X274489Y361416D01*
X273723Y361597D01*
X272954Y361759D01*
X272180Y361903D01*
X271403Y362027D01*
X270624Y362133D01*
X269842Y362219D01*
X269058Y362286D01*
X268273Y362335D01*
X267487Y362363D01*
X266700Y362373D01*
X265913Y362363D01*
X265127Y362335D01*
X264342Y362286D01*
X263558Y362219D01*
X262776Y362133D01*
X261997Y362027D01*
X261220Y361903D01*
X260446Y361759D01*
X259677Y361597D01*
X258911Y361416D01*
X258150Y361216D01*
X257394Y360998D01*
X256644Y360761D01*
X255900Y360506D01*
X255162Y360233D01*
X254431Y359942D01*
X253708Y359633D01*
X252992Y359307D01*
X252285Y358963D01*
X251586Y358602D01*
X250896Y358224D01*
X250215Y357829D01*
X249545Y357418D01*
X248884Y356990D01*
X248235Y356546D01*
X247596Y356087D01*
X246969Y355612D01*
X246353Y355122D01*
X245750Y354617D01*
X245159Y354098D01*
X244581Y353564D01*
X244017Y353016D01*
X243466Y352455D01*
X242929Y351880D01*
X242406Y351292D01*
X241897Y350692D01*
X241404Y350079D01*
X240925Y349455D01*
X240462Y348819D01*
X240015Y348172D01*
X239583Y347514D01*
X239168Y346846D01*
X238769Y346168D01*
X238387Y345480D01*
X238022Y344783D01*
X237674Y344078D01*
X237343Y343364D01*
X237030Y342642D01*
X236735Y341913D01*
X236457Y341177D01*
X236198Y340434D01*
X235957Y339685D01*
X235734Y338931D01*
X235530Y338171D01*
X235345Y337407D01*
X235178Y336638D01*
X235030Y335865D01*
X234901Y335089D01*
X234791Y334310D01*
X234700Y333529D01*
X234628Y332745D01*
X234575Y331961D01*
X234542Y331175D01*
X234528Y330388D01*
X234533Y329601D01*
X234557Y328815D01*
X234600Y328030D01*
X234663Y327245D01*
X234745Y326463D01*
X234846Y325683D01*
X234966Y324905D01*
X235105Y324131D01*
X235262Y323360D01*
X235439Y322594D01*
X235634Y321832D01*
X235848Y321075D01*
X236081Y320323D01*
X236331Y319577D01*
X236600Y318838D01*
X236887Y318105D01*
X237192Y317380D01*
X237514Y316662D01*
X237854Y315953D01*
X238210Y315252D01*
X238584Y314560D01*
X238975Y313877D01*
X239383Y313204D01*
X239806Y312541D01*
X240246Y311889D01*
X240702Y311248D01*
X241173Y310618D01*
X241659Y309999D01*
X242161Y309393D01*
X242677Y308799D01*
X243207Y308218D01*
X243752Y307651D01*
X244310Y307096D01*
X244882Y306556D01*
X245466Y306029D01*
X246063Y305517D01*
X246673Y305020D01*
X247295Y304538D01*
X247439Y304730D01*
X246822Y305209D01*
X246217Y305702D01*
X245624Y306210D01*
X245044Y306733D01*
X244476Y307269D01*
X243922Y307819D01*
X243382Y308383D01*
X242855Y308960D01*
X242343Y309549D01*
X241846Y310151D01*
X241363Y310764D01*
X240895Y311390D01*
X240443Y312026D01*
X240007Y312674D01*
X239586Y313331D01*
X239182Y313999D01*
X238794Y314677D01*
X238423Y315364D01*
X238068Y316060D01*
X237731Y316764D01*
X237411Y317476D01*
X237109Y318196D01*
X236824Y318923D01*
X236558Y319657D01*
X236309Y320397D01*
X236078Y321143D01*
X235866Y321895D01*
X235672Y322651D01*
X235497Y323412D01*
X235340Y324177D01*
X235202Y324945D01*
X235083Y325717D01*
X234983Y326491D01*
X234902Y327268D01*
X234840Y328046D01*
X234797Y328826D01*
X234773Y329606D01*
X234768Y330387D01*
X234782Y331168D01*
X234815Y331948D01*
X234867Y332727D01*
X234938Y333505D01*
X235029Y334280D01*
X235138Y335053D01*
X235266Y335824D01*
X235413Y336590D01*
X235579Y337353D01*
X235763Y338112D01*
X235965Y338866D01*
X236187Y339615D01*
X236426Y340358D01*
X236683Y341095D01*
X236959Y341826D01*
X237252Y342550D01*
X237563Y343266D01*
X237891Y343975D01*
X238236Y344675D01*
X238599Y345366D01*
X238978Y346049D01*
X239374Y346722D01*
X239786Y347385D01*
X240214Y348038D01*
X240658Y348680D01*
X241118Y349312D01*
X241592Y349931D01*
X242082Y350539D01*
X242587Y351135D01*
X243106Y351718D01*
X243639Y352289D01*
X244186Y352846D01*
X244747Y353390D01*
X245320Y353920D01*
X245907Y354435D01*
X246505Y354936D01*
X247116Y355423D01*
X247739Y355894D01*
X248373Y356350D01*
X249017Y356790D01*
X249673Y357215D01*
X250338Y357623D01*
X251014Y358015D01*
X251699Y358390D01*
X252392Y358748D01*
X253094Y359090D01*
X253805Y359414D01*
X254523Y359720D01*
X255248Y360009D01*
X255981Y360280D01*
X256719Y360533D01*
X257464Y360768D01*
X258214Y360985D01*
X258969Y361183D01*
X259729Y361363D01*
X260493Y361524D01*
X261261Y361666D01*
X262032Y361790D01*
X262806Y361895D01*
X263582Y361980D01*
X264360Y362047D01*
X265139Y362095D01*
X265919Y362123D01*
X266700Y362133D01*
X267481Y362123D01*
X268261Y362095D01*
X269040Y362047D01*
X269818Y361980D01*
X270594Y361895D01*
X271368Y361790D01*
X272139Y361666D01*
X272907Y361524D01*
X273671Y361363D01*
X274431Y361183D01*
X275186Y360985D01*
X275936Y360768D01*
X276681Y360533D01*
X277419Y360280D01*
X278152Y360009D01*
X278877Y359720D01*
X279595Y359414D01*
X280306Y359090D01*
X281008Y358748D01*
X281701Y358390D01*
X282386Y358015D01*
X283062Y357623D01*
X283727Y357215D01*
X284383Y356790D01*
X285027Y356350D01*
X285661Y355894D01*
X286284Y355423D01*
X286895Y354936D01*
X287493Y354435D01*
X288080Y353920D01*
X288653Y353390D01*
X289214Y352846D01*
X289761Y352289D01*
X290294Y351718D01*
X290813Y351135D01*
X291318Y350539D01*
X291808Y349931D01*
X292282Y349312D01*
X292742Y348680D01*
X293186Y348038D01*
X293614Y347385D01*
X294026Y346722D01*
X294422Y346049D01*
X294801Y345366D01*
X295164Y344675D01*
X295509Y343975D01*
X295837Y343266D01*
X296148Y342550D01*
X296441Y341826D01*
X296717Y341095D01*
X296974Y340358D01*
X297213Y339615D01*
X297435Y338866D01*
X297637Y338112D01*
X297821Y337353D01*
X297987Y336590D01*
X298134Y335824D01*
X298262Y335053D01*
X298371Y334280D01*
X298462Y333505D01*
X298533Y332727D01*
X298585Y331948D01*
X298618Y331168D01*
X298632Y330387D01*
X298627Y329606D01*
X298603Y328826D01*
X298560Y328046D01*
X298498Y327268D01*
X298417Y326491D01*
X298317Y325717D01*
X298198Y324945D01*
X298060Y324177D01*
X297903Y323412D01*
X297728Y322651D01*
X297534Y321895D01*
X297322Y321143D01*
X297091Y320397D01*
X296842Y319657D01*
X296576Y318923D01*
X296291Y318196D01*
X295989Y317476D01*
X295669Y316764D01*
X295332Y316060D01*
X294977Y315364D01*
X294606Y314677D01*
X294218Y313999D01*
X293814Y313331D01*
X293393Y312674D01*
X292957Y312026D01*
X292505Y311390D01*
X292037Y310764D01*
X291554Y310151D01*
X291057Y309549D01*
X290545Y308960D01*
X290018Y308383D01*
X289478Y307819D01*
X288924Y307269D01*
X288356Y306733D01*
X287776Y306210D01*
X287183Y305702D01*
X286578Y305209D01*
X285961Y304730D01*
X285817Y304922D01*
X286430Y305397D01*
X287030Y305887D01*
X287618Y306391D01*
X288194Y306910D01*
X288757Y307442D01*
X289307Y307988D01*
X289843Y308548D01*
X290366Y309120D01*
X290874Y309705D01*
X291368Y310302D01*
X291847Y310911D01*
X292311Y311532D01*
X292760Y312163D01*
X293193Y312806D01*
X293611Y313459D01*
X294012Y314122D01*
X294397Y314794D01*
X294765Y315476D01*
X295117Y316167D01*
X295451Y316866D01*
X295769Y317573D01*
X296069Y318287D01*
X296351Y319009D01*
X296616Y319737D01*
X296863Y320472D01*
X297092Y321212D01*
X297302Y321958D01*
X297495Y322708D01*
X297669Y323464D01*
X297824Y324223D01*
X297961Y324986D01*
X298079Y325751D01*
X298179Y326520D01*
X298259Y327291D01*
X298321Y328063D01*
X298364Y328837D01*
X298388Y329611D01*
X298392Y330386D01*
X298378Y331161D01*
X298345Y331935D01*
X298294Y332709D01*
X298223Y333480D01*
X298133Y334250D01*
X298025Y335017D01*
X297898Y335782D01*
X297752Y336543D01*
X297587Y337300D01*
X297405Y338053D01*
X297203Y338802D01*
X296984Y339545D01*
X296746Y340282D01*
X296491Y341014D01*
X296218Y341739D01*
X295927Y342457D01*
X295618Y343168D01*
X295293Y343871D01*
X294950Y344566D01*
X294590Y345253D01*
X294214Y345930D01*
X293821Y346598D01*
X293412Y347256D01*
X292987Y347904D01*
X292546Y348542D01*
X292090Y349168D01*
X291619Y349783D01*
X291132Y350387D01*
X290632Y350978D01*
X290116Y351557D01*
X289587Y352123D01*
X289044Y352676D01*
X288488Y353216D01*
X287919Y353742D01*
X287337Y354253D01*
X286743Y354751D01*
X286136Y355233D01*
X285519Y355701D01*
X284890Y356154D01*
X284250Y356591D01*
X283599Y357012D01*
X282938Y357417D01*
X282268Y357806D01*
X281589Y358178D01*
X280900Y358534D01*
X280203Y358873D01*
X279498Y359194D01*
X278785Y359498D01*
X278065Y359785D01*
X277339Y360054D01*
X276606Y360305D01*
X275867Y360538D01*
X275122Y360753D01*
X274373Y360950D01*
X273618Y361129D01*
X272860Y361289D01*
X272098Y361430D01*
X271333Y361553D01*
X270565Y361656D01*
X269795Y361742D01*
X269023Y361808D01*
X268249Y361855D01*
X267475Y361884D01*
X266700Y361893D01*
X265925Y361884D01*
X265151Y361855D01*
X264377Y361808D01*
X263605Y361742D01*
X262835Y361656D01*
X262067Y361553D01*
X261302Y361430D01*
X260540Y361289D01*
X259782Y361129D01*
X259027Y360950D01*
X258278Y360753D01*
X257533Y360538D01*
X256794Y360305D01*
X256061Y360054D01*
X255335Y359785D01*
X254615Y359498D01*
X253902Y359194D01*
X253197Y358873D01*
X252500Y358534D01*
X251811Y358178D01*
X251132Y357806D01*
X250462Y357417D01*
X249801Y357012D01*
X249150Y356591D01*
X248510Y356154D01*
X247881Y355701D01*
X247264Y355233D01*
X246657Y354751D01*
X246063Y354253D01*
X245481Y353742D01*
X244912Y353216D01*
X244356Y352676D01*
X243813Y352123D01*
X243284Y351557D01*
X242768Y350978D01*
X242268Y350387D01*
X241781Y349783D01*
X241310Y349168D01*
X240854Y348542D01*
X240413Y347904D01*
X239988Y347256D01*
X239579Y346598D01*
X239186Y345930D01*
X238810Y345253D01*
X238450Y344566D01*
X238107Y343871D01*
X237782Y343168D01*
X237473Y342457D01*
X237182Y341739D01*
X236909Y341014D01*
X236654Y340282D01*
X236416Y339545D01*
X236197Y338802D01*
X235995Y338053D01*
X235813Y337300D01*
X235648Y336543D01*
X235502Y335782D01*
X235375Y335017D01*
X235267Y334250D01*
X235177Y333480D01*
X235106Y332709D01*
X235055Y331935D01*
X235022Y331161D01*
X235008Y330386D01*
X235012Y329611D01*
X235036Y328837D01*
X235079Y328063D01*
X235141Y327291D01*
X235221Y326520D01*
X235321Y325751D01*
X235439Y324986D01*
X235576Y324223D01*
X235731Y323464D01*
X235905Y322708D01*
X236098Y321958D01*
X236308Y321212D01*
X236537Y320472D01*
X236784Y319737D01*
X237049Y319009D01*
X237331Y318287D01*
X237631Y317573D01*
X237949Y316866D01*
X238283Y316167D01*
X238635Y315476D01*
X239003Y314794D01*
X239388Y314122D01*
X239789Y313459D01*
X240207Y312806D01*
X240640Y312163D01*
X241089Y311532D01*
X241553Y310911D01*
X242032Y310302D01*
X242526Y309705D01*
X243034Y309120D01*
X243557Y308548D01*
X244093Y307988D01*
X244643Y307442D01*
X245206Y306910D01*
X245782Y306391D01*
X246370Y305887D01*
X246970Y305397D01*
X247583Y304922D01*
X247727Y305114D01*
X247119Y305585D01*
X246523Y306071D01*
X245939Y306572D01*
X245368Y307087D01*
X244809Y307615D01*
X244263Y308157D01*
X243731Y308712D01*
X243213Y309280D01*
X242708Y309861D01*
X242218Y310453D01*
X241743Y311058D01*
X241282Y311674D01*
X240837Y312301D01*
X240407Y312938D01*
X239993Y313586D01*
X239595Y314244D01*
X239213Y314912D01*
X238847Y315588D01*
X238498Y316274D01*
X238166Y316967D01*
X237851Y317669D01*
X237553Y318378D01*
X237273Y319094D01*
X237010Y319817D01*
X236765Y320546D01*
X236538Y321281D01*
X236329Y322021D01*
X236138Y322766D01*
X235966Y323515D01*
X235811Y324269D01*
X235676Y325026D01*
X235558Y325786D01*
X235460Y326548D01*
X235380Y327313D01*
X235319Y328080D01*
X235276Y328848D01*
X235252Y329617D01*
X235248Y330386D01*
X235261Y331154D01*
X235294Y331923D01*
X235346Y332690D01*
X235416Y333456D01*
X235505Y334220D01*
X235613Y334981D01*
X235739Y335740D01*
X235883Y336495D01*
X236047Y337247D01*
X236228Y337994D01*
X236428Y338737D01*
X236645Y339474D01*
X236881Y340207D01*
X237135Y340933D01*
X237406Y341652D01*
X237695Y342365D01*
X238001Y343071D01*
X238324Y343768D01*
X238664Y344458D01*
X239021Y345139D01*
X239395Y345811D01*
X239785Y346474D01*
X240191Y347128D01*
X240612Y347771D01*
X241050Y348403D01*
X241503Y349025D01*
X241970Y349635D01*
X242453Y350234D01*
X242950Y350821D01*
X243461Y351395D01*
X243986Y351957D01*
X244525Y352506D01*
X245077Y353042D01*
X245642Y353563D01*
X246219Y354071D01*
X246809Y354565D01*
X247411Y355044D01*
X248024Y355508D01*
X248648Y355957D01*
X249284Y356391D01*
X249929Y356809D01*
X250585Y357211D01*
X251250Y357597D01*
X251924Y357966D01*
X252608Y358319D01*
X253299Y358655D01*
X253999Y358975D01*
X254706Y359277D01*
X255421Y359561D01*
X256142Y359828D01*
X256870Y360077D01*
X257603Y360309D01*
X258342Y360522D01*
X259086Y360717D01*
X259834Y360894D01*
X260587Y361053D01*
X261343Y361193D01*
X262102Y361315D01*
X262864Y361418D01*
X263629Y361503D01*
X264395Y361568D01*
X265162Y361615D01*
X265931Y361644D01*
X266700Y361653D01*
X267469Y361644D01*
X268238Y361615D01*
X269005Y361568D01*
X269771Y361503D01*
X270536Y361418D01*
X271298Y361315D01*
X272057Y361193D01*
X272813Y361053D01*
X273566Y360894D01*
X274314Y360717D01*
X275058Y360522D01*
X275797Y360309D01*
X276530Y360077D01*
X277258Y359828D01*
X277979Y359561D01*
X278694Y359277D01*
X279401Y358975D01*
X280101Y358655D01*
X280792Y358319D01*
X281476Y357966D01*
X282150Y357597D01*
X282815Y357211D01*
X283471Y356809D01*
X284116Y356391D01*
X284752Y355957D01*
X285376Y355508D01*
X285989Y355044D01*
X286591Y354565D01*
X287181Y354071D01*
X287758Y353563D01*
X288323Y353042D01*
X288875Y352506D01*
X289414Y351957D01*
X289939Y351395D01*
X290450Y350821D01*
X290947Y350234D01*
X291430Y349635D01*
X291897Y349025D01*
X292350Y348403D01*
X292788Y347771D01*
X293209Y347128D01*
X293615Y346474D01*
X294005Y345811D01*
X294379Y345139D01*
X294736Y344458D01*
X295076Y343768D01*
X295399Y343071D01*
X295705Y342365D01*
X295994Y341652D01*
X296265Y340933D01*
X296519Y340207D01*
X296755Y339474D01*
X296972Y338737D01*
X297172Y337994D01*
X297353Y337247D01*
X297517Y336495D01*
X297661Y335740D01*
X297787Y334981D01*
X297895Y334220D01*
X297984Y333456D01*
X298054Y332690D01*
X298106Y331923D01*
X298139Y331154D01*
X298152Y330386D01*
X298148Y329617D01*
X298124Y328848D01*
X298081Y328080D01*
X298020Y327313D01*
X297940Y326548D01*
X297842Y325786D01*
X297724Y325026D01*
X297589Y324269D01*
X297434Y323515D01*
X297262Y322766D01*
X297071Y322021D01*
X296862Y321281D01*
X296635Y320546D01*
X296390Y319817D01*
X296127Y319094D01*
X295847Y318378D01*
X295549Y317669D01*
X295234Y316967D01*
X294902Y316274D01*
X294553Y315588D01*
X294187Y314912D01*
X293805Y314244D01*
X293407Y313586D01*
X292993Y312938D01*
X292563Y312301D01*
X292118Y311674D01*
X291657Y311058D01*
X291182Y310453D01*
X290692Y309861D01*
X290187Y309280D01*
X289669Y308712D01*
X289137Y308157D01*
X288591Y307615D01*
X288032Y307087D01*
X287461Y306572D01*
X286877Y306071D01*
X286281Y305585D01*
X285673Y305114D01*
X285529Y305306D01*
X286132Y305774D01*
X286724Y306256D01*
X287303Y306753D01*
X287870Y307264D01*
X288425Y307788D01*
X288966Y308326D01*
X289494Y308877D01*
X290009Y309440D01*
X290509Y310017D01*
X290996Y310605D01*
X291467Y311205D01*
X291924Y311816D01*
X292366Y312438D01*
X292793Y313071D01*
X293204Y313714D01*
X293599Y314367D01*
X293978Y315029D01*
X294341Y315701D01*
X294687Y316381D01*
X295017Y317069D01*
X295329Y317765D01*
X295625Y318469D01*
X295903Y319180D01*
X296164Y319897D01*
X296407Y320620D01*
X296632Y321350D01*
X296839Y322084D01*
X297029Y322823D01*
X297200Y323567D01*
X297353Y324315D01*
X297488Y325066D01*
X297604Y325820D01*
X297702Y326577D01*
X297781Y327336D01*
X297842Y328097D01*
X297884Y328859D01*
X297908Y329622D01*
X297912Y330385D01*
X297899Y331148D01*
X297866Y331910D01*
X297815Y332672D01*
X297745Y333432D01*
X297657Y334190D01*
X297550Y334945D01*
X297425Y335698D01*
X297281Y336448D01*
X297119Y337194D01*
X296939Y337935D01*
X296741Y338672D01*
X296525Y339404D01*
X296291Y340131D01*
X296039Y340851D01*
X295770Y341565D01*
X295484Y342273D01*
X295180Y342973D01*
X294859Y343665D01*
X294522Y344350D01*
X294167Y345026D01*
X293797Y345693D01*
X293410Y346351D01*
X293007Y346999D01*
X292588Y347637D01*
X292154Y348265D01*
X291705Y348882D01*
X291241Y349487D01*
X290762Y350082D01*
X290269Y350664D01*
X289761Y351234D01*
X289240Y351792D01*
X288706Y352336D01*
X288158Y352868D01*
X287597Y353385D01*
X287024Y353889D01*
X286439Y354379D01*
X285842Y354855D01*
X285233Y355315D01*
X284614Y355761D01*
X283983Y356191D01*
X283343Y356606D01*
X282692Y357005D01*
X282032Y357388D01*
X281363Y357755D01*
X280685Y358105D01*
X279998Y358438D01*
X279304Y358755D01*
X278602Y359055D01*
X277893Y359337D01*
X277177Y359602D01*
X276455Y359849D01*
X275727Y360079D01*
X274994Y360291D01*
X274256Y360485D01*
X273513Y360660D01*
X272767Y360818D01*
X272016Y360957D01*
X271263Y361078D01*
X270506Y361180D01*
X269748Y361264D01*
X268988Y361329D01*
X268226Y361376D01*
X267463Y361404D01*
X266700Y361413D01*
X265937Y361404D01*
X265174Y361376D01*
X264412Y361329D01*
X263652Y361264D01*
X262894Y361180D01*
X262137Y361078D01*
X261384Y360957D01*
X260633Y360818D01*
X259887Y360660D01*
X259144Y360485D01*
X258406Y360291D01*
X257673Y360079D01*
X256945Y359849D01*
X256223Y359602D01*
X255507Y359337D01*
X254798Y359055D01*
X254096Y358755D01*
X253402Y358438D01*
X252715Y358105D01*
X252037Y357755D01*
X251368Y357388D01*
X250708Y357005D01*
X250057Y356606D01*
X249417Y356191D01*
X248786Y355761D01*
X248167Y355315D01*
X247558Y354855D01*
X246961Y354379D01*
X246376Y353889D01*
X245803Y353385D01*
X245242Y352868D01*
X244694Y352336D01*
X244160Y351792D01*
X243639Y351234D01*
X243131Y350664D01*
X242638Y350082D01*
X242159Y349487D01*
X241695Y348882D01*
X241246Y348265D01*
X240812Y347637D01*
X240393Y346999D01*
X239990Y346351D01*
X239603Y345693D01*
X239233Y345026D01*
X238878Y344350D01*
X238541Y343665D01*
X238220Y342973D01*
X237916Y342273D01*
X237630Y341565D01*
X237361Y340851D01*
X237109Y340131D01*
X236875Y339404D01*
X236659Y338672D01*
X236461Y337935D01*
X236281Y337194D01*
X236119Y336448D01*
X235975Y335698D01*
X235850Y334945D01*
X235743Y334190D01*
X235655Y333432D01*
X235585Y332672D01*
X235534Y331910D01*
X235501Y331148D01*
X235488Y330385D01*
X235492Y329622D01*
X235516Y328859D01*
X235558Y328097D01*
X235619Y327336D01*
X235698Y326577D01*
X235796Y325820D01*
X235912Y325066D01*
X236047Y324315D01*
X236200Y323567D01*
X236371Y322823D01*
X236561Y322084D01*
X236768Y321350D01*
X236993Y320620D01*
X237236Y319897D01*
X237497Y319180D01*
X237775Y318469D01*
X238071Y317765D01*
X238383Y317069D01*
X238713Y316381D01*
X239059Y315701D01*
X239422Y315029D01*
X239801Y314367D01*
X240196Y313714D01*
X240607Y313071D01*
X241034Y312438D01*
X241476Y311816D01*
X241933Y311205D01*
X242404Y310605D01*
X242891Y310017D01*
X243391Y309440D01*
X243906Y308877D01*
X244434Y308326D01*
X244975Y307788D01*
X245530Y307264D01*
X246097Y306753D01*
X246676Y306256D01*
X247268Y305774D01*
X247871Y305306D01*
X248015Y305498D01*
X247416Y305962D01*
X246830Y306441D01*
X246255Y306934D01*
X245692Y307441D01*
X245142Y307961D01*
X244605Y308495D01*
X244080Y309041D01*
X243570Y309601D01*
X243073Y310172D01*
X242591Y310756D01*
X242123Y311351D01*
X241669Y311958D01*
X241231Y312575D01*
X240807Y313203D01*
X240399Y313841D01*
X240007Y314489D01*
X239631Y315147D01*
X239271Y315813D01*
X238928Y316488D01*
X238601Y317171D01*
X238291Y317862D01*
X237997Y318560D01*
X237721Y319265D01*
X237463Y319977D01*
X237222Y320695D01*
X236998Y321418D01*
X236792Y322147D01*
X236604Y322881D01*
X236434Y323619D01*
X236282Y324361D01*
X236149Y325106D01*
X236033Y325854D01*
X235936Y326605D01*
X235858Y327359D01*
X235797Y328114D01*
X235756Y328870D01*
X235732Y329627D01*
X235728Y330384D01*
X235741Y331141D01*
X235774Y331898D01*
X235824Y332653D01*
X235894Y333407D01*
X235981Y334160D01*
X236087Y334910D01*
X236211Y335657D01*
X236354Y336400D01*
X236515Y337140D01*
X236693Y337876D01*
X236890Y338608D01*
X237104Y339334D01*
X237337Y340055D01*
X237586Y340770D01*
X237853Y341478D01*
X238138Y342180D01*
X238439Y342875D01*
X238758Y343562D01*
X239093Y344241D01*
X239444Y344912D01*
X239812Y345574D01*
X240196Y346227D01*
X240596Y346870D01*
X241011Y347503D01*
X241442Y348126D01*
X241887Y348738D01*
X242348Y349339D01*
X242823Y349929D01*
X243313Y350507D01*
X243816Y351073D01*
X244333Y351626D01*
X244864Y352166D01*
X245407Y352693D01*
X245964Y353207D01*
X246532Y353707D01*
X247113Y354193D01*
X247706Y354665D01*
X248309Y355122D01*
X248924Y355564D01*
X249550Y355991D01*
X250185Y356403D01*
X250831Y356799D01*
X251486Y357179D01*
X252150Y357543D01*
X252823Y357890D01*
X253504Y358221D01*
X254193Y358536D01*
X254890Y358833D01*
X255593Y359113D01*
X256303Y359376D01*
X257020Y359621D01*
X257742Y359849D01*
X258470Y360059D01*
X259202Y360252D01*
X259939Y360426D01*
X260680Y360582D01*
X261425Y360720D01*
X262172Y360840D01*
X262923Y360942D01*
X263676Y361025D01*
X264430Y361090D01*
X265186Y361136D01*
X265943Y361164D01*
X266700Y361173D01*
X267457Y361164D01*
X268214Y361136D01*
X268970Y361090D01*
X269724Y361025D01*
X270477Y360942D01*
X271228Y360840D01*
X271975Y360720D01*
X272720Y360582D01*
X273461Y360426D01*
X274198Y360252D01*
X274930Y360059D01*
X275658Y359849D01*
X276380Y359621D01*
X277097Y359376D01*
X277807Y359113D01*
X278510Y358833D01*
X279207Y358536D01*
X279896Y358221D01*
X280577Y357890D01*
X281250Y357543D01*
X281914Y357179D01*
X282569Y356799D01*
X283215Y356403D01*
X283850Y355991D01*
X284476Y355564D01*
X285091Y355122D01*
X285694Y354665D01*
X286287Y354193D01*
X286868Y353707D01*
X287436Y353207D01*
X287993Y352693D01*
X288536Y352166D01*
X289067Y351626D01*
X289584Y351073D01*
X290087Y350507D01*
X290577Y349929D01*
X291052Y349339D01*
X291513Y348738D01*
X291958Y348126D01*
X292389Y347503D01*
X292804Y346870D01*
X293204Y346227D01*
X293588Y345574D01*
X293956Y344912D01*
X294307Y344241D01*
X294642Y343562D01*
X294961Y342875D01*
X295262Y342180D01*
X295547Y341478D01*
X295814Y340770D01*
X296063Y340055D01*
X296296Y339334D01*
X296510Y338608D01*
X296707Y337876D01*
X296885Y337140D01*
X297046Y336400D01*
X297189Y335657D01*
X297313Y334910D01*
X297419Y334160D01*
X297506Y333407D01*
X297576Y332653D01*
X297626Y331898D01*
X297659Y331141D01*
X297672Y330384D01*
X297668Y329627D01*
X297644Y328870D01*
X297603Y328114D01*
X297542Y327359D01*
X297464Y326605D01*
X297367Y325854D01*
X297251Y325106D01*
X297118Y324361D01*
X296966Y323619D01*
X296796Y322881D01*
X296608Y322147D01*
X296402Y321418D01*
X296178Y320695D01*
X295937Y319977D01*
X295679Y319265D01*
X295403Y318560D01*
X295109Y317862D01*
X294799Y317171D01*
X294472Y316488D01*
X294129Y315813D01*
X293769Y315147D01*
X293393Y314489D01*
X293001Y313841D01*
X292593Y313203D01*
X292169Y312575D01*
X291731Y311958D01*
X291277Y311351D01*
X290809Y310756D01*
X290327Y310172D01*
X289830Y309601D01*
X289320Y309041D01*
X288795Y308495D01*
X288258Y307961D01*
X287708Y307441D01*
X287145Y306934D01*
X286570Y306441D01*
X285984Y305962D01*
X285385Y305498D01*
X285241Y305690D01*
X285835Y306151D01*
X286417Y306626D01*
X286988Y307115D01*
X287546Y307618D01*
X288092Y308134D01*
X288625Y308664D01*
X289145Y309206D01*
X289651Y309761D01*
X290144Y310328D01*
X290623Y310907D01*
X291088Y311498D01*
X291538Y312100D01*
X291973Y312713D01*
X292393Y313336D01*
X292797Y313969D01*
X293186Y314612D01*
X293559Y315264D01*
X293917Y315925D01*
X294257Y316595D01*
X294582Y317272D01*
X294890Y317958D01*
X295180Y318651D01*
X295454Y319351D01*
X295711Y320057D01*
X295950Y320769D01*
X296172Y321487D01*
X296376Y322210D01*
X296563Y322938D01*
X296731Y323670D01*
X296882Y324407D01*
X297015Y325146D01*
X297129Y325889D01*
X297225Y326634D01*
X297303Y327381D01*
X297363Y328130D01*
X297405Y328881D01*
X297428Y329632D01*
X297432Y330383D01*
X297419Y331134D01*
X297387Y331885D01*
X297336Y332635D01*
X297268Y333383D01*
X297181Y334130D01*
X297076Y334874D01*
X296952Y335615D01*
X296811Y336353D01*
X296651Y337087D01*
X296474Y337817D01*
X296279Y338543D01*
X296066Y339264D01*
X295836Y339979D01*
X295588Y340688D01*
X295323Y341391D01*
X295041Y342088D01*
X294742Y342777D01*
X294426Y343459D01*
X294093Y344133D01*
X293745Y344798D01*
X293380Y345455D01*
X292999Y346103D01*
X292602Y346741D01*
X292190Y347369D01*
X291762Y347987D01*
X291320Y348595D01*
X290863Y349191D01*
X290391Y349776D01*
X289906Y350350D01*
X289406Y350911D01*
X288893Y351460D01*
X288367Y351996D01*
X287827Y352519D01*
X287275Y353029D01*
X286711Y353525D01*
X286135Y354008D01*
X285547Y354476D01*
X284948Y354929D01*
X284338Y355368D01*
X283717Y355792D01*
X283086Y356200D01*
X282446Y356593D01*
X281796Y356970D01*
X281137Y357331D01*
X280469Y357676D01*
X279793Y358004D01*
X279110Y358316D01*
X278419Y358611D01*
X277721Y358889D01*
X277016Y359150D01*
X276305Y359393D01*
X275588Y359620D01*
X274867Y359828D01*
X274140Y360019D01*
X273409Y360192D01*
X272673Y360347D01*
X271934Y360484D01*
X271192Y360603D01*
X270448Y360704D01*
X269701Y360786D01*
X268952Y360850D01*
X268202Y360896D01*
X267451Y360924D01*
X266700Y360933D01*
X265949Y360924D01*
X265198Y360896D01*
X264448Y360850D01*
X263699Y360786D01*
X262952Y360704D01*
X262208Y360603D01*
X261466Y360484D01*
X260727Y360347D01*
X259991Y360192D01*
X259260Y360019D01*
X258533Y359828D01*
X257812Y359620D01*
X257095Y359393D01*
X256384Y359150D01*
X255679Y358889D01*
X254981Y358611D01*
X254290Y358316D01*
X253607Y358004D01*
X252931Y357676D01*
X252263Y357331D01*
X251604Y356970D01*
X250954Y356593D01*
X250314Y356200D01*
X249683Y355792D01*
X249062Y355368D01*
X248452Y354929D01*
X247853Y354476D01*
X247265Y354008D01*
X246689Y353525D01*
X246125Y353029D01*
X245573Y352519D01*
X245033Y351996D01*
X244507Y351460D01*
X243994Y350911D01*
X243494Y350350D01*
X243009Y349776D01*
X242537Y349191D01*
X242080Y348595D01*
X241638Y347987D01*
X241210Y347369D01*
X240798Y346741D01*
X240401Y346103D01*
X240020Y345455D01*
X239655Y344798D01*
X239307Y344133D01*
X238974Y343459D01*
X238658Y342777D01*
X238359Y342088D01*
X238077Y341391D01*
X237812Y340688D01*
X237564Y339979D01*
X237334Y339264D01*
X237121Y338543D01*
X236926Y337817D01*
X236749Y337087D01*
X236589Y336353D01*
X236448Y335615D01*
X236324Y334874D01*
X236219Y334130D01*
X236132Y333383D01*
X236064Y332635D01*
X236013Y331885D01*
X235981Y331134D01*
X235968Y330383D01*
X235972Y329632D01*
X235995Y328881D01*
X236037Y328130D01*
X236097Y327381D01*
X236175Y326634D01*
X236271Y325889D01*
X236385Y325146D01*
X236518Y324407D01*
X236669Y323670D01*
X236837Y322938D01*
X237024Y322210D01*
X237228Y321487D01*
X237450Y320769D01*
X237689Y320057D01*
X237946Y319351D01*
X238220Y318651D01*
X238510Y317958D01*
X238818Y317272D01*
X239143Y316595D01*
X239483Y315925D01*
X239841Y315264D01*
X240214Y314612D01*
X240603Y313969D01*
X241007Y313336D01*
X241427Y312713D01*
X241862Y312100D01*
X242312Y311498D01*
X242777Y310907D01*
X243256Y310328D01*
X243749Y309761D01*
X244255Y309206D01*
X244775Y308664D01*
X245308Y308134D01*
X245854Y307618D01*
X246412Y307115D01*
X246983Y306626D01*
X247565Y306151D01*
X248159Y305690D01*
D11*
X241300Y330200D02*
X241308Y330823D01*
X241331Y331446D01*
X241369Y332069D01*
X241422Y332690D01*
X241491Y333309D01*
X241575Y333927D01*
X241674Y334542D01*
X241788Y335155D01*
X241917Y335765D01*
X242061Y336372D01*
X242220Y336975D01*
X242394Y337573D01*
X242582Y338168D01*
X242785Y338757D01*
X243002Y339341D01*
X243233Y339920D01*
X243479Y340493D01*
X243739Y341060D01*
X244012Y341620D01*
X244299Y342173D01*
X244600Y342720D01*
X244914Y343258D01*
X245241Y343789D01*
X245581Y344311D01*
X245933Y344826D01*
X246299Y345331D01*
X246676Y345827D01*
X247066Y346314D01*
X247467Y346791D01*
X247880Y347258D01*
X248304Y347714D01*
X248739Y348161D01*
X249186Y348596D01*
X249642Y349020D01*
X250109Y349433D01*
X250586Y349834D01*
X251073Y350224D01*
X251569Y350601D01*
X252074Y350967D01*
X252589Y351319D01*
X253111Y351659D01*
X253642Y351986D01*
X254180Y352300D01*
X254727Y352601D01*
X255280Y352888D01*
X255840Y353161D01*
X256407Y353421D01*
X256980Y353667D01*
X257559Y353898D01*
X258143Y354115D01*
X258732Y354318D01*
X259327Y354506D01*
X259925Y354680D01*
X260528Y354839D01*
X261135Y354983D01*
X261745Y355112D01*
X262358Y355226D01*
X262973Y355325D01*
X263591Y355409D01*
X264210Y355478D01*
X264831Y355531D01*
X265454Y355569D01*
X266077Y355592D01*
X266700Y355600D01*
X267323Y355592D01*
X267946Y355569D01*
X268569Y355531D01*
X269190Y355478D01*
X269809Y355409D01*
X270427Y355325D01*
X271042Y355226D01*
X271655Y355112D01*
X272265Y354983D01*
X272872Y354839D01*
X273475Y354680D01*
X274073Y354506D01*
X274668Y354318D01*
X275257Y354115D01*
X275841Y353898D01*
X276420Y353667D01*
X276993Y353421D01*
X277560Y353161D01*
X278120Y352888D01*
X278673Y352601D01*
X279220Y352300D01*
X279758Y351986D01*
X280289Y351659D01*
X280811Y351319D01*
X281326Y350967D01*
X281831Y350601D01*
X282327Y350224D01*
X282814Y349834D01*
X283291Y349433D01*
X283758Y349020D01*
X284214Y348596D01*
X284661Y348161D01*
X285096Y347714D01*
X285520Y347258D01*
X285933Y346791D01*
X286334Y346314D01*
X286724Y345827D01*
X287101Y345331D01*
X287467Y344826D01*
X287819Y344311D01*
X288159Y343789D01*
X288486Y343258D01*
X288800Y342720D01*
X289101Y342173D01*
X289388Y341620D01*
X289661Y341060D01*
X289921Y340493D01*
X290167Y339920D01*
X290398Y339341D01*
X290615Y338757D01*
X290818Y338168D01*
X291006Y337573D01*
X291180Y336975D01*
X291339Y336372D01*
X291483Y335765D01*
X291612Y335155D01*
X291726Y334542D01*
X291825Y333927D01*
X291909Y333309D01*
X291978Y332690D01*
X292031Y332069D01*
X292069Y331446D01*
X292092Y330823D01*
X292100Y330200D01*
X292092Y329577D01*
X292069Y328954D01*
X292031Y328331D01*
X291978Y327710D01*
X291909Y327091D01*
X291825Y326473D01*
X291726Y325858D01*
X291612Y325245D01*
X291483Y324635D01*
X291339Y324028D01*
X291180Y323425D01*
X291006Y322827D01*
X290818Y322232D01*
X290615Y321643D01*
X290398Y321059D01*
X290167Y320480D01*
X289921Y319907D01*
X289661Y319340D01*
X289388Y318780D01*
X289101Y318227D01*
X288800Y317680D01*
X288486Y317142D01*
X288159Y316611D01*
X287819Y316089D01*
X287467Y315574D01*
X287101Y315069D01*
X286724Y314573D01*
X286334Y314086D01*
X285933Y313609D01*
X285520Y313142D01*
X285096Y312686D01*
X284661Y312239D01*
X284214Y311804D01*
X283758Y311380D01*
X283291Y310967D01*
X282814Y310566D01*
X282327Y310176D01*
X281831Y309799D01*
X281326Y309433D01*
X280811Y309081D01*
X280289Y308741D01*
X279758Y308414D01*
X279220Y308100D01*
X278673Y307799D01*
X278120Y307512D01*
X277560Y307239D01*
X276993Y306979D01*
X276420Y306733D01*
X275841Y306502D01*
X275257Y306285D01*
X274668Y306082D01*
X274073Y305894D01*
X273475Y305720D01*
X272872Y305561D01*
X272265Y305417D01*
X271655Y305288D01*
X271042Y305174D01*
X270427Y305075D01*
X269809Y304991D01*
X269190Y304922D01*
X268569Y304869D01*
X267946Y304831D01*
X267323Y304808D01*
X266700Y304800D01*
X266077Y304808D01*
X265454Y304831D01*
X264831Y304869D01*
X264210Y304922D01*
X263591Y304991D01*
X262973Y305075D01*
X262358Y305174D01*
X261745Y305288D01*
X261135Y305417D01*
X260528Y305561D01*
X259925Y305720D01*
X259327Y305894D01*
X258732Y306082D01*
X258143Y306285D01*
X257559Y306502D01*
X256980Y306733D01*
X256407Y306979D01*
X255840Y307239D01*
X255280Y307512D01*
X254727Y307799D01*
X254180Y308100D01*
X253642Y308414D01*
X253111Y308741D01*
X252589Y309081D01*
X252074Y309433D01*
X251569Y309799D01*
X251073Y310176D01*
X250586Y310566D01*
X250109Y310967D01*
X249642Y311380D01*
X249186Y311804D01*
X248739Y312239D01*
X248304Y312686D01*
X247880Y313142D01*
X247467Y313609D01*
X247066Y314086D01*
X246676Y314573D01*
X246299Y315069D01*
X245933Y315574D01*
X245581Y316089D01*
X245241Y316611D01*
X244914Y317142D01*
X244600Y317680D01*
X244299Y318227D01*
X244012Y318780D01*
X243739Y319340D01*
X243479Y319907D01*
X243233Y320480D01*
X243002Y321059D01*
X242785Y321643D01*
X242582Y322232D01*
X242394Y322827D01*
X242220Y323425D01*
X242061Y324028D01*
X241917Y324635D01*
X241788Y325245D01*
X241674Y325858D01*
X241575Y326473D01*
X241491Y327091D01*
X241422Y327710D01*
X241369Y328331D01*
X241331Y328954D01*
X241308Y329577D01*
X241300Y330200D01*
D10*
X328930Y326025D02*
X333756Y326025D01*
X328930Y326025D02*
X328930Y327365D01*
X328932Y327435D01*
X328937Y327505D01*
X328947Y327575D01*
X328959Y327644D01*
X328976Y327712D01*
X328996Y327779D01*
X329019Y327846D01*
X329046Y327910D01*
X329076Y327974D01*
X329110Y328036D01*
X329146Y328095D01*
X329186Y328153D01*
X329229Y328209D01*
X329274Y328262D01*
X329323Y328313D01*
X329374Y328362D01*
X329427Y328407D01*
X329483Y328450D01*
X329541Y328490D01*
X329601Y328526D01*
X329662Y328560D01*
X329726Y328590D01*
X329790Y328617D01*
X329857Y328640D01*
X329924Y328660D01*
X329992Y328677D01*
X330061Y328689D01*
X330131Y328699D01*
X330201Y328704D01*
X330271Y328706D01*
X332415Y328706D01*
X332485Y328704D01*
X332555Y328699D01*
X332625Y328689D01*
X332694Y328677D01*
X332762Y328660D01*
X332829Y328640D01*
X332896Y328617D01*
X332960Y328590D01*
X333024Y328560D01*
X333086Y328526D01*
X333145Y328490D01*
X333203Y328450D01*
X333259Y328407D01*
X333312Y328362D01*
X333363Y328313D01*
X333412Y328262D01*
X333457Y328209D01*
X333500Y328153D01*
X333540Y328095D01*
X333576Y328035D01*
X333610Y327974D01*
X333640Y327910D01*
X333667Y327846D01*
X333690Y327779D01*
X333710Y327712D01*
X333727Y327644D01*
X333739Y327575D01*
X333749Y327505D01*
X333754Y327435D01*
X333756Y327365D01*
X333756Y326025D01*
X328930Y333169D02*
X328932Y333237D01*
X328938Y333304D01*
X328947Y333371D01*
X328960Y333438D01*
X328977Y333503D01*
X328998Y333568D01*
X329022Y333631D01*
X329050Y333693D01*
X329081Y333753D01*
X329115Y333811D01*
X329153Y333867D01*
X329193Y333922D01*
X329237Y333973D01*
X329284Y334022D01*
X329333Y334069D01*
X329384Y334113D01*
X329439Y334153D01*
X329495Y334191D01*
X329553Y334225D01*
X329613Y334256D01*
X329675Y334284D01*
X329738Y334308D01*
X329803Y334329D01*
X329868Y334346D01*
X329935Y334359D01*
X330002Y334368D01*
X330069Y334374D01*
X330137Y334376D01*
X328930Y333169D02*
X328932Y333091D01*
X328938Y333013D01*
X328948Y332936D01*
X328961Y332859D01*
X328979Y332783D01*
X329000Y332708D01*
X329025Y332634D01*
X329054Y332562D01*
X329086Y332491D01*
X329122Y332422D01*
X329161Y332354D01*
X329204Y332289D01*
X329250Y332226D01*
X329299Y332165D01*
X329351Y332107D01*
X329406Y332052D01*
X329463Y331999D01*
X329523Y331950D01*
X329586Y331903D01*
X329651Y331860D01*
X329717Y331820D01*
X329786Y331783D01*
X329857Y331750D01*
X329929Y331720D01*
X330003Y331694D01*
X331075Y333973D02*
X331026Y334022D01*
X330974Y334069D01*
X330919Y334112D01*
X330862Y334153D01*
X330803Y334191D01*
X330742Y334225D01*
X330679Y334256D01*
X330615Y334284D01*
X330549Y334308D01*
X330483Y334328D01*
X330415Y334345D01*
X330346Y334358D01*
X330277Y334367D01*
X330207Y334373D01*
X330137Y334375D01*
X331075Y333973D02*
X333756Y331694D01*
X333756Y334375D01*
D14*
X349250Y355600D02*
X387350Y355600D01*
D15*
X348463Y356438D02*
X349835Y354609D01*
X349834Y354609D02*
X349243Y354150D01*
X348663Y353677D01*
X348095Y353190D01*
X347539Y352689D01*
X346996Y352175D01*
X346465Y351648D01*
X345947Y351108D01*
X345442Y350555D01*
X344952Y349990D01*
X344475Y349413D01*
X344012Y348825D01*
X343564Y348226D01*
X343131Y347615D01*
X342712Y346995D01*
X342310Y346364D01*
X341922Y345724D01*
X341550Y345075D01*
X341195Y344416D01*
X340855Y343749D01*
X340532Y343074D01*
X340226Y342391D01*
X339936Y341701D01*
X339663Y341005D01*
X339408Y340301D01*
X339170Y339592D01*
X338949Y338877D01*
X338745Y338157D01*
X338560Y337432D01*
X338392Y336703D01*
X338242Y335969D01*
X338110Y335233D01*
X337996Y334493D01*
X337900Y333751D01*
X337822Y333007D01*
X337762Y332261D01*
X337721Y331514D01*
X337698Y330766D01*
X337694Y330017D01*
X337707Y329269D01*
X337739Y328521D01*
X337789Y327775D01*
X337858Y327030D01*
X337944Y326286D01*
X338049Y325545D01*
X338172Y324807D01*
X338313Y324072D01*
X338471Y323341D01*
X338648Y322614D01*
X338842Y321891D01*
X339054Y321173D01*
X339284Y320461D01*
X339531Y319755D01*
X339795Y319054D01*
X340076Y318361D01*
X340373Y317674D01*
X340688Y316995D01*
X341019Y316324D01*
X341366Y315661D01*
X341730Y315007D01*
X342109Y314362D01*
X342504Y313727D01*
X342915Y313101D01*
X343340Y312485D01*
X343781Y311880D01*
X344236Y311286D01*
X344706Y310704D01*
X345190Y310133D01*
X345687Y309574D01*
X346198Y309027D01*
X346722Y308493D01*
X347259Y307972D01*
X347809Y307464D01*
X348371Y306970D01*
X348945Y306490D01*
X349530Y306024D01*
X350127Y305572D01*
X350735Y305135D01*
X351353Y304713D01*
X351981Y304306D01*
X352619Y303915D01*
X353266Y303540D01*
X353922Y303180D01*
X354587Y302837D01*
X355260Y302510D01*
X355941Y302199D01*
X356629Y301905D01*
X357325Y301629D01*
X358026Y301369D01*
X358734Y301126D01*
X359448Y300901D01*
X360167Y300693D01*
X360891Y300503D01*
X361619Y300331D01*
X362351Y300177D01*
X363087Y300040D01*
X363826Y299922D01*
X364568Y299821D01*
X365311Y299739D01*
X366057Y299675D01*
X366804Y299630D01*
X367552Y299602D01*
X368300Y299593D01*
X369048Y299602D01*
X369796Y299630D01*
X370543Y299675D01*
X371289Y299739D01*
X372032Y299821D01*
X372774Y299922D01*
X373513Y300040D01*
X374249Y300177D01*
X374981Y300331D01*
X375709Y300503D01*
X376433Y300693D01*
X377152Y300901D01*
X377866Y301126D01*
X378574Y301369D01*
X379275Y301629D01*
X379971Y301905D01*
X380659Y302199D01*
X381340Y302510D01*
X382013Y302837D01*
X382678Y303180D01*
X383334Y303540D01*
X383981Y303915D01*
X384619Y304306D01*
X385247Y304713D01*
X385865Y305135D01*
X386473Y305572D01*
X387070Y306024D01*
X387655Y306490D01*
X388229Y306970D01*
X388791Y307464D01*
X389341Y307972D01*
X389878Y308493D01*
X390402Y309027D01*
X390913Y309574D01*
X391410Y310133D01*
X391894Y310704D01*
X392364Y311286D01*
X392819Y311880D01*
X393260Y312485D01*
X393685Y313101D01*
X394096Y313727D01*
X394491Y314362D01*
X394870Y315007D01*
X395234Y315661D01*
X395581Y316324D01*
X395912Y316995D01*
X396227Y317674D01*
X396524Y318361D01*
X396805Y319054D01*
X397069Y319755D01*
X397316Y320461D01*
X397546Y321173D01*
X397758Y321891D01*
X397952Y322614D01*
X398129Y323341D01*
X398287Y324072D01*
X398428Y324807D01*
X398551Y325545D01*
X398656Y326286D01*
X398742Y327030D01*
X398811Y327775D01*
X398861Y328521D01*
X398893Y329269D01*
X398906Y330017D01*
X398902Y330766D01*
X398879Y331514D01*
X398838Y332261D01*
X398778Y333007D01*
X398700Y333751D01*
X398604Y334493D01*
X398490Y335233D01*
X398358Y335969D01*
X398208Y336703D01*
X398040Y337432D01*
X397855Y338157D01*
X397651Y338877D01*
X397430Y339592D01*
X397192Y340301D01*
X396937Y341005D01*
X396664Y341701D01*
X396374Y342391D01*
X396068Y343074D01*
X395745Y343749D01*
X395405Y344416D01*
X395050Y345075D01*
X394678Y345724D01*
X394290Y346364D01*
X393888Y346995D01*
X393469Y347615D01*
X393036Y348226D01*
X392588Y348825D01*
X392125Y349413D01*
X391648Y349990D01*
X391158Y350555D01*
X390653Y351108D01*
X390135Y351648D01*
X389604Y352175D01*
X389061Y352689D01*
X388505Y353190D01*
X387937Y353677D01*
X387357Y354150D01*
X386766Y354609D01*
X388137Y356438D01*
X388773Y355945D01*
X389396Y355437D01*
X390007Y354913D01*
X390605Y354375D01*
X391189Y353823D01*
X391760Y353256D01*
X392317Y352676D01*
X392859Y352082D01*
X393387Y351475D01*
X393899Y350855D01*
X394397Y350223D01*
X394879Y349579D01*
X395344Y348923D01*
X395794Y348256D01*
X396227Y347578D01*
X396644Y346890D01*
X397044Y346192D01*
X397426Y345485D01*
X397791Y344768D01*
X398138Y344043D01*
X398468Y343309D01*
X398779Y342567D01*
X399073Y341818D01*
X399348Y341063D01*
X399604Y340300D01*
X399842Y339532D01*
X400060Y338758D01*
X400260Y337979D01*
X400441Y337195D01*
X400602Y336407D01*
X400744Y335615D01*
X400867Y334820D01*
X400970Y334023D01*
X401054Y333223D01*
X401118Y332421D01*
X401162Y331618D01*
X401187Y330814D01*
X401192Y330010D01*
X401178Y329205D01*
X401144Y328402D01*
X401090Y327599D01*
X401017Y326798D01*
X400924Y325999D01*
X400811Y325203D01*
X400679Y324410D01*
X400528Y323620D01*
X400358Y322834D01*
X400168Y322052D01*
X399959Y321275D01*
X399731Y320504D01*
X399485Y319738D01*
X399220Y318979D01*
X398936Y318226D01*
X398634Y317481D01*
X398314Y316743D01*
X397976Y316013D01*
X397620Y315291D01*
X397247Y314579D01*
X396856Y313876D01*
X396449Y313183D01*
X396024Y312499D01*
X395583Y311827D01*
X395126Y311165D01*
X394652Y310515D01*
X394163Y309877D01*
X393659Y309250D01*
X393139Y308636D01*
X392604Y308036D01*
X392055Y307448D01*
X391491Y306874D01*
X390914Y306314D01*
X390323Y305768D01*
X389719Y305237D01*
X389103Y304721D01*
X388473Y304220D01*
X387832Y303734D01*
X387179Y303264D01*
X386515Y302811D01*
X385840Y302374D01*
X385154Y301953D01*
X384459Y301549D01*
X383753Y301163D01*
X383039Y300794D01*
X382315Y300442D01*
X381583Y300108D01*
X380844Y299793D01*
X380096Y299495D01*
X379342Y299216D01*
X378581Y298955D01*
X377814Y298713D01*
X377041Y298490D01*
X376263Y298286D01*
X375481Y298100D01*
X374694Y297934D01*
X373903Y297788D01*
X373109Y297660D01*
X372312Y297553D01*
X371512Y297464D01*
X370711Y297395D01*
X369908Y297346D01*
X369104Y297317D01*
X368300Y297307D01*
X367496Y297317D01*
X366692Y297346D01*
X365889Y297395D01*
X365088Y297464D01*
X364288Y297553D01*
X363491Y297660D01*
X362697Y297788D01*
X361906Y297934D01*
X361119Y298100D01*
X360337Y298286D01*
X359559Y298490D01*
X358786Y298713D01*
X358019Y298955D01*
X357258Y299216D01*
X356504Y299495D01*
X355756Y299793D01*
X355017Y300108D01*
X354285Y300442D01*
X353561Y300794D01*
X352847Y301163D01*
X352141Y301549D01*
X351446Y301953D01*
X350760Y302374D01*
X350085Y302811D01*
X349421Y303264D01*
X348768Y303734D01*
X348127Y304220D01*
X347497Y304721D01*
X346881Y305237D01*
X346277Y305768D01*
X345686Y306314D01*
X345109Y306874D01*
X344545Y307448D01*
X343996Y308036D01*
X343461Y308636D01*
X342941Y309250D01*
X342437Y309877D01*
X341948Y310515D01*
X341474Y311165D01*
X341017Y311827D01*
X340576Y312499D01*
X340151Y313183D01*
X339744Y313876D01*
X339353Y314579D01*
X338980Y315291D01*
X338624Y316013D01*
X338286Y316743D01*
X337966Y317481D01*
X337664Y318226D01*
X337380Y318979D01*
X337115Y319738D01*
X336869Y320504D01*
X336641Y321275D01*
X336432Y322052D01*
X336242Y322834D01*
X336072Y323620D01*
X335921Y324410D01*
X335789Y325203D01*
X335676Y325999D01*
X335583Y326798D01*
X335510Y327599D01*
X335456Y328402D01*
X335422Y329205D01*
X335408Y330010D01*
X335413Y330814D01*
X335438Y331618D01*
X335482Y332421D01*
X335546Y333223D01*
X335630Y334023D01*
X335733Y334820D01*
X335856Y335615D01*
X335998Y336407D01*
X336159Y337195D01*
X336340Y337979D01*
X336540Y338758D01*
X336758Y339532D01*
X336996Y340300D01*
X337252Y341063D01*
X337527Y341818D01*
X337821Y342567D01*
X338132Y343309D01*
X338462Y344043D01*
X338809Y344768D01*
X339174Y345485D01*
X339556Y346192D01*
X339956Y346890D01*
X340373Y347578D01*
X340806Y348256D01*
X341256Y348923D01*
X341721Y349579D01*
X342203Y350223D01*
X342701Y350855D01*
X343213Y351475D01*
X343741Y352082D01*
X344283Y352676D01*
X344840Y353256D01*
X345411Y353823D01*
X345995Y354375D01*
X346593Y354913D01*
X347204Y355437D01*
X347827Y355945D01*
X348463Y356438D01*
X348607Y356246D01*
X347976Y355757D01*
X347357Y355252D01*
X346751Y354733D01*
X346157Y354198D01*
X345577Y353650D01*
X345011Y353087D01*
X344458Y352511D01*
X343920Y351921D01*
X343396Y351319D01*
X342887Y350703D01*
X342393Y350076D01*
X341915Y349437D01*
X341452Y348786D01*
X341006Y348124D01*
X340576Y347451D01*
X340162Y346768D01*
X339766Y346075D01*
X339386Y345373D01*
X339024Y344661D01*
X338679Y343941D01*
X338352Y343213D01*
X338043Y342476D01*
X337752Y341733D01*
X337479Y340983D01*
X337224Y340226D01*
X336988Y339463D01*
X336771Y338695D01*
X336573Y337921D01*
X336394Y337143D01*
X336233Y336361D01*
X336092Y335575D01*
X335971Y334786D01*
X335868Y333994D01*
X335785Y333200D01*
X335721Y332404D01*
X335677Y331607D01*
X335653Y330809D01*
X335648Y330010D01*
X335662Y329212D01*
X335696Y328414D01*
X335749Y327618D01*
X335822Y326823D01*
X335914Y326030D01*
X336026Y325239D01*
X336157Y324451D01*
X336307Y323667D01*
X336476Y322887D01*
X336665Y322111D01*
X336872Y321340D01*
X337098Y320574D01*
X337343Y319814D01*
X337606Y319060D01*
X337888Y318313D01*
X338187Y317573D01*
X338505Y316840D01*
X338841Y316116D01*
X339194Y315400D01*
X339564Y314693D01*
X339952Y313995D01*
X340357Y313306D01*
X340778Y312628D01*
X341216Y311961D01*
X341670Y311304D01*
X342140Y310658D01*
X342626Y310025D01*
X343127Y309403D01*
X343643Y308794D01*
X344173Y308197D01*
X344719Y307614D01*
X345278Y307044D01*
X345851Y306488D01*
X346438Y305946D01*
X347037Y305419D01*
X347649Y304906D01*
X348274Y304409D01*
X348911Y303927D01*
X349559Y303461D01*
X350218Y303011D01*
X350888Y302577D01*
X351569Y302159D01*
X352260Y301758D01*
X352960Y301375D01*
X353669Y301008D01*
X354387Y300659D01*
X355114Y300328D01*
X355848Y300014D01*
X356590Y299719D01*
X357339Y299442D01*
X358094Y299183D01*
X358855Y298943D01*
X359622Y298721D01*
X360395Y298518D01*
X361172Y298335D01*
X361953Y298170D01*
X362738Y298024D01*
X363526Y297898D01*
X364318Y297791D01*
X365111Y297703D01*
X365907Y297635D01*
X366704Y297586D01*
X367502Y297557D01*
X368300Y297547D01*
X369098Y297557D01*
X369896Y297586D01*
X370693Y297635D01*
X371489Y297703D01*
X372282Y297791D01*
X373074Y297898D01*
X373862Y298024D01*
X374647Y298170D01*
X375428Y298335D01*
X376205Y298518D01*
X376978Y298721D01*
X377745Y298943D01*
X378506Y299183D01*
X379261Y299442D01*
X380010Y299719D01*
X380752Y300014D01*
X381486Y300328D01*
X382213Y300659D01*
X382931Y301008D01*
X383640Y301375D01*
X384340Y301758D01*
X385031Y302159D01*
X385712Y302577D01*
X386382Y303011D01*
X387041Y303461D01*
X387689Y303927D01*
X388326Y304409D01*
X388951Y304906D01*
X389563Y305419D01*
X390162Y305946D01*
X390749Y306488D01*
X391322Y307044D01*
X391881Y307614D01*
X392427Y308197D01*
X392957Y308794D01*
X393473Y309403D01*
X393974Y310025D01*
X394460Y310658D01*
X394930Y311304D01*
X395384Y311961D01*
X395822Y312628D01*
X396243Y313306D01*
X396648Y313995D01*
X397036Y314693D01*
X397406Y315400D01*
X397759Y316116D01*
X398095Y316840D01*
X398413Y317573D01*
X398712Y318313D01*
X398994Y319060D01*
X399257Y319814D01*
X399502Y320574D01*
X399728Y321340D01*
X399935Y322111D01*
X400124Y322887D01*
X400293Y323667D01*
X400443Y324451D01*
X400574Y325239D01*
X400686Y326030D01*
X400778Y326823D01*
X400851Y327618D01*
X400904Y328414D01*
X400938Y329212D01*
X400952Y330010D01*
X400947Y330809D01*
X400923Y331607D01*
X400879Y332404D01*
X400815Y333200D01*
X400732Y333994D01*
X400629Y334786D01*
X400508Y335575D01*
X400367Y336361D01*
X400206Y337143D01*
X400027Y337921D01*
X399829Y338695D01*
X399612Y339463D01*
X399376Y340226D01*
X399121Y340983D01*
X398848Y341733D01*
X398557Y342476D01*
X398248Y343213D01*
X397921Y343941D01*
X397576Y344661D01*
X397214Y345373D01*
X396834Y346075D01*
X396438Y346768D01*
X396024Y347451D01*
X395594Y348124D01*
X395148Y348786D01*
X394685Y349437D01*
X394207Y350076D01*
X393713Y350703D01*
X393204Y351319D01*
X392680Y351921D01*
X392142Y352511D01*
X391589Y353087D01*
X391023Y353650D01*
X390443Y354198D01*
X389849Y354733D01*
X389243Y355252D01*
X388624Y355757D01*
X387993Y356246D01*
X387849Y356054D01*
X388476Y355568D01*
X389090Y355067D01*
X389692Y354552D01*
X390281Y354021D01*
X390856Y353477D01*
X391419Y352918D01*
X391967Y352346D01*
X392502Y351761D01*
X393022Y351163D01*
X393527Y350552D01*
X394017Y349929D01*
X394492Y349295D01*
X394951Y348648D01*
X395394Y347991D01*
X395821Y347324D01*
X396231Y346645D01*
X396625Y345958D01*
X397002Y345260D01*
X397361Y344554D01*
X397704Y343839D01*
X398028Y343116D01*
X398335Y342386D01*
X398624Y341648D01*
X398895Y340903D01*
X399148Y340151D01*
X399382Y339394D01*
X399597Y338632D01*
X399794Y337864D01*
X399972Y337091D01*
X400131Y336315D01*
X400271Y335535D01*
X400392Y334752D01*
X400494Y333966D01*
X400576Y333177D01*
X400639Y332387D01*
X400683Y331596D01*
X400707Y330804D01*
X400712Y330011D01*
X400698Y329219D01*
X400664Y328427D01*
X400611Y327636D01*
X400539Y326847D01*
X400447Y326060D01*
X400337Y325275D01*
X400207Y324493D01*
X400058Y323715D01*
X399889Y322940D01*
X399703Y322170D01*
X399497Y321404D01*
X399272Y320644D01*
X399030Y319890D01*
X398768Y319142D01*
X398489Y318400D01*
X398191Y317665D01*
X397876Y316938D01*
X397543Y316219D01*
X397192Y315508D01*
X396824Y314806D01*
X396439Y314113D01*
X396038Y313430D01*
X395619Y312757D01*
X395185Y312094D01*
X394734Y311442D01*
X394267Y310802D01*
X393785Y310173D01*
X393288Y309555D01*
X392776Y308951D01*
X392249Y308359D01*
X391708Y307780D01*
X391153Y307214D01*
X390584Y306662D01*
X390002Y306124D01*
X389406Y305601D01*
X388799Y305092D01*
X388179Y304598D01*
X387547Y304120D01*
X386903Y303657D01*
X386249Y303210D01*
X385584Y302780D01*
X384908Y302365D01*
X384222Y301967D01*
X383527Y301587D01*
X382823Y301223D01*
X382110Y300876D01*
X381389Y300547D01*
X380660Y300236D01*
X379924Y299943D01*
X379181Y299668D01*
X378431Y299411D01*
X377675Y299172D01*
X376914Y298952D01*
X376147Y298751D01*
X375376Y298569D01*
X374600Y298405D01*
X373821Y298261D01*
X373038Y298135D01*
X372253Y298029D01*
X371465Y297942D01*
X370676Y297874D01*
X369885Y297826D01*
X369093Y297797D01*
X368300Y297787D01*
X367507Y297797D01*
X366715Y297826D01*
X365924Y297874D01*
X365135Y297942D01*
X364347Y298029D01*
X363562Y298135D01*
X362779Y298261D01*
X362000Y298405D01*
X361224Y298569D01*
X360453Y298751D01*
X359686Y298952D01*
X358925Y299172D01*
X358169Y299411D01*
X357419Y299668D01*
X356676Y299943D01*
X355940Y300236D01*
X355211Y300547D01*
X354490Y300876D01*
X353777Y301223D01*
X353073Y301587D01*
X352378Y301967D01*
X351692Y302365D01*
X351016Y302780D01*
X350351Y303210D01*
X349697Y303657D01*
X349053Y304120D01*
X348421Y304598D01*
X347801Y305092D01*
X347194Y305601D01*
X346598Y306124D01*
X346016Y306662D01*
X345447Y307214D01*
X344892Y307780D01*
X344351Y308359D01*
X343824Y308951D01*
X343312Y309555D01*
X342815Y310173D01*
X342333Y310802D01*
X341866Y311442D01*
X341415Y312094D01*
X340981Y312757D01*
X340562Y313430D01*
X340161Y314113D01*
X339776Y314806D01*
X339408Y315508D01*
X339057Y316219D01*
X338724Y316938D01*
X338409Y317665D01*
X338111Y318400D01*
X337832Y319142D01*
X337570Y319890D01*
X337328Y320644D01*
X337103Y321404D01*
X336897Y322170D01*
X336711Y322940D01*
X336542Y323715D01*
X336393Y324493D01*
X336263Y325275D01*
X336153Y326060D01*
X336061Y326847D01*
X335989Y327636D01*
X335936Y328427D01*
X335902Y329219D01*
X335888Y330011D01*
X335893Y330804D01*
X335917Y331596D01*
X335961Y332387D01*
X336024Y333177D01*
X336106Y333966D01*
X336208Y334752D01*
X336329Y335535D01*
X336469Y336315D01*
X336628Y337091D01*
X336806Y337864D01*
X337003Y338632D01*
X337218Y339394D01*
X337452Y340151D01*
X337705Y340903D01*
X337976Y341648D01*
X338265Y342386D01*
X338572Y343116D01*
X338896Y343839D01*
X339239Y344554D01*
X339598Y345260D01*
X339975Y345958D01*
X340369Y346645D01*
X340779Y347324D01*
X341206Y347991D01*
X341649Y348648D01*
X342108Y349295D01*
X342583Y349929D01*
X343073Y350552D01*
X343578Y351163D01*
X344098Y351761D01*
X344633Y352346D01*
X345181Y352918D01*
X345744Y353477D01*
X346319Y354021D01*
X346908Y354552D01*
X347510Y355067D01*
X348124Y355568D01*
X348751Y356054D01*
X348895Y355862D01*
X348273Y355380D01*
X347663Y354883D01*
X347066Y354371D01*
X346482Y353844D01*
X345910Y353304D01*
X345352Y352749D01*
X344807Y352182D01*
X344277Y351601D01*
X343761Y351007D01*
X343259Y350401D01*
X342773Y349782D01*
X342302Y349152D01*
X341846Y348511D01*
X341406Y347859D01*
X340983Y347196D01*
X340575Y346523D01*
X340184Y345840D01*
X339810Y345148D01*
X339454Y344447D01*
X339114Y343738D01*
X338792Y343020D01*
X338487Y342295D01*
X338200Y341562D01*
X337931Y340823D01*
X337681Y340077D01*
X337448Y339325D01*
X337234Y338568D01*
X337039Y337806D01*
X336862Y337040D01*
X336705Y336269D01*
X336566Y335495D01*
X336446Y334717D01*
X336345Y333937D01*
X336263Y333155D01*
X336200Y332370D01*
X336157Y331585D01*
X336133Y330799D01*
X336128Y330012D01*
X336142Y329225D01*
X336175Y328439D01*
X336228Y327655D01*
X336300Y326871D01*
X336391Y326090D01*
X336501Y325311D01*
X336630Y324535D01*
X336778Y323762D01*
X336945Y322993D01*
X337130Y322229D01*
X337334Y321469D01*
X337557Y320715D01*
X337798Y319966D01*
X338057Y319223D01*
X338335Y318487D01*
X338630Y317758D01*
X338943Y317036D01*
X339274Y316322D01*
X339622Y315617D01*
X339987Y314920D01*
X340369Y314232D01*
X340768Y313554D01*
X341183Y312886D01*
X341615Y312228D01*
X342062Y311581D01*
X342525Y310945D01*
X343004Y310321D01*
X343497Y309708D01*
X344006Y309108D01*
X344529Y308520D01*
X345066Y307945D01*
X345617Y307384D01*
X346181Y306836D01*
X346759Y306302D01*
X347350Y305783D01*
X347953Y305278D01*
X348569Y304788D01*
X349196Y304313D01*
X349835Y303854D01*
X350484Y303410D01*
X351145Y302982D01*
X351815Y302571D01*
X352496Y302176D01*
X353186Y301798D01*
X353885Y301437D01*
X354592Y301093D01*
X355308Y300767D01*
X356031Y300458D01*
X356762Y300167D01*
X357500Y299894D01*
X358244Y299639D01*
X358994Y299402D01*
X359750Y299184D01*
X360511Y298984D01*
X361277Y298803D01*
X362046Y298641D01*
X362820Y298497D01*
X363597Y298373D01*
X364376Y298267D01*
X365158Y298181D01*
X365942Y298114D01*
X366727Y298065D01*
X367513Y298037D01*
X368300Y298027D01*
X369087Y298037D01*
X369873Y298065D01*
X370658Y298114D01*
X371442Y298181D01*
X372224Y298267D01*
X373003Y298373D01*
X373780Y298497D01*
X374554Y298641D01*
X375323Y298803D01*
X376089Y298984D01*
X376850Y299184D01*
X377606Y299402D01*
X378356Y299639D01*
X379100Y299894D01*
X379838Y300167D01*
X380569Y300458D01*
X381292Y300767D01*
X382008Y301093D01*
X382715Y301437D01*
X383414Y301798D01*
X384104Y302176D01*
X384785Y302571D01*
X385455Y302982D01*
X386116Y303410D01*
X386765Y303854D01*
X387404Y304313D01*
X388031Y304788D01*
X388647Y305278D01*
X389250Y305783D01*
X389841Y306302D01*
X390419Y306836D01*
X390983Y307384D01*
X391534Y307945D01*
X392071Y308520D01*
X392594Y309108D01*
X393103Y309708D01*
X393596Y310321D01*
X394075Y310945D01*
X394538Y311581D01*
X394985Y312228D01*
X395417Y312886D01*
X395832Y313554D01*
X396231Y314232D01*
X396613Y314920D01*
X396978Y315617D01*
X397326Y316322D01*
X397657Y317036D01*
X397970Y317758D01*
X398265Y318487D01*
X398543Y319223D01*
X398802Y319966D01*
X399043Y320715D01*
X399266Y321469D01*
X399470Y322229D01*
X399655Y322993D01*
X399822Y323762D01*
X399970Y324535D01*
X400099Y325311D01*
X400209Y326090D01*
X400300Y326871D01*
X400372Y327655D01*
X400425Y328439D01*
X400458Y329225D01*
X400472Y330012D01*
X400467Y330799D01*
X400443Y331585D01*
X400400Y332370D01*
X400337Y333155D01*
X400255Y333937D01*
X400154Y334717D01*
X400034Y335495D01*
X399895Y336269D01*
X399738Y337040D01*
X399561Y337806D01*
X399366Y338568D01*
X399152Y339325D01*
X398919Y340077D01*
X398669Y340823D01*
X398400Y341562D01*
X398113Y342295D01*
X397808Y343020D01*
X397486Y343738D01*
X397146Y344447D01*
X396790Y345148D01*
X396416Y345840D01*
X396025Y346523D01*
X395617Y347196D01*
X395194Y347859D01*
X394754Y348511D01*
X394298Y349152D01*
X393827Y349782D01*
X393341Y350401D01*
X392839Y351007D01*
X392323Y351601D01*
X391793Y352182D01*
X391248Y352749D01*
X390690Y353304D01*
X390118Y353844D01*
X389534Y354371D01*
X388937Y354883D01*
X388327Y355380D01*
X387705Y355862D01*
X387561Y355670D01*
X388178Y355191D01*
X388783Y354698D01*
X389376Y354190D01*
X389956Y353667D01*
X390524Y353131D01*
X391078Y352581D01*
X391618Y352017D01*
X392145Y351440D01*
X392657Y350851D01*
X393154Y350249D01*
X393637Y349636D01*
X394105Y349010D01*
X394557Y348374D01*
X394993Y347726D01*
X395414Y347069D01*
X395818Y346401D01*
X396206Y345723D01*
X396577Y345036D01*
X396932Y344340D01*
X397269Y343636D01*
X397589Y342924D01*
X397891Y342204D01*
X398176Y341477D01*
X398442Y340743D01*
X398691Y340003D01*
X398922Y339257D01*
X399134Y338505D01*
X399328Y337749D01*
X399503Y336988D01*
X399660Y336223D01*
X399798Y335455D01*
X399917Y334683D01*
X400017Y333909D01*
X400098Y333132D01*
X400160Y332354D01*
X400203Y331574D01*
X400227Y330794D01*
X400232Y330013D01*
X400218Y329232D01*
X400185Y328452D01*
X400133Y327673D01*
X400062Y326895D01*
X399971Y326120D01*
X399862Y325347D01*
X399734Y324576D01*
X399587Y323810D01*
X399421Y323047D01*
X399237Y322288D01*
X399035Y321534D01*
X398813Y320785D01*
X398574Y320042D01*
X398317Y319305D01*
X398041Y318574D01*
X397748Y317850D01*
X397437Y317134D01*
X397109Y316425D01*
X396764Y315725D01*
X396401Y315034D01*
X396022Y314351D01*
X395626Y313678D01*
X395214Y313015D01*
X394786Y312362D01*
X394342Y311720D01*
X393882Y311088D01*
X393408Y310469D01*
X392918Y309861D01*
X392413Y309265D01*
X391894Y308682D01*
X391361Y308111D01*
X390814Y307554D01*
X390253Y307010D01*
X389680Y306480D01*
X389093Y305965D01*
X388495Y305464D01*
X387884Y304977D01*
X387261Y304506D01*
X386627Y304050D01*
X385983Y303610D01*
X385327Y303185D01*
X384662Y302777D01*
X383986Y302385D01*
X383301Y302010D01*
X382608Y301652D01*
X381906Y301310D01*
X381195Y300986D01*
X380477Y300680D01*
X379752Y300391D01*
X379019Y300120D01*
X378281Y299867D01*
X377536Y299632D01*
X376786Y299415D01*
X376031Y299217D01*
X375271Y299037D01*
X374507Y298876D01*
X373739Y298734D01*
X372968Y298610D01*
X372194Y298505D01*
X371418Y298420D01*
X370640Y298353D01*
X369861Y298305D01*
X369081Y298277D01*
X368300Y298267D01*
X367519Y298277D01*
X366739Y298305D01*
X365960Y298353D01*
X365182Y298420D01*
X364406Y298505D01*
X363632Y298610D01*
X362861Y298734D01*
X362093Y298876D01*
X361329Y299037D01*
X360569Y299217D01*
X359814Y299415D01*
X359064Y299632D01*
X358319Y299867D01*
X357581Y300120D01*
X356848Y300391D01*
X356123Y300680D01*
X355405Y300986D01*
X354694Y301310D01*
X353992Y301652D01*
X353299Y302010D01*
X352614Y302385D01*
X351938Y302777D01*
X351273Y303185D01*
X350617Y303610D01*
X349973Y304050D01*
X349339Y304506D01*
X348716Y304977D01*
X348105Y305464D01*
X347507Y305965D01*
X346920Y306480D01*
X346347Y307010D01*
X345786Y307554D01*
X345239Y308111D01*
X344706Y308682D01*
X344187Y309265D01*
X343682Y309861D01*
X343192Y310469D01*
X342718Y311088D01*
X342258Y311720D01*
X341814Y312362D01*
X341386Y313015D01*
X340974Y313678D01*
X340578Y314351D01*
X340199Y315034D01*
X339836Y315725D01*
X339491Y316425D01*
X339163Y317134D01*
X338852Y317850D01*
X338559Y318574D01*
X338283Y319305D01*
X338026Y320042D01*
X337787Y320785D01*
X337565Y321534D01*
X337363Y322288D01*
X337179Y323047D01*
X337013Y323810D01*
X336866Y324576D01*
X336738Y325347D01*
X336629Y326120D01*
X336538Y326895D01*
X336467Y327673D01*
X336415Y328452D01*
X336382Y329232D01*
X336368Y330013D01*
X336373Y330794D01*
X336397Y331574D01*
X336440Y332354D01*
X336502Y333132D01*
X336583Y333909D01*
X336683Y334683D01*
X336802Y335455D01*
X336940Y336223D01*
X337097Y336988D01*
X337272Y337749D01*
X337466Y338505D01*
X337678Y339257D01*
X337909Y340003D01*
X338158Y340743D01*
X338424Y341477D01*
X338709Y342204D01*
X339011Y342924D01*
X339331Y343636D01*
X339668Y344340D01*
X340023Y345036D01*
X340394Y345723D01*
X340782Y346401D01*
X341186Y347069D01*
X341607Y347726D01*
X342043Y348374D01*
X342495Y349010D01*
X342963Y349636D01*
X343446Y350249D01*
X343943Y350851D01*
X344455Y351440D01*
X344982Y352017D01*
X345522Y352581D01*
X346076Y353131D01*
X346644Y353667D01*
X347224Y354190D01*
X347817Y354698D01*
X348422Y355191D01*
X349039Y355670D01*
X349183Y355478D01*
X348570Y355003D01*
X347970Y354513D01*
X347382Y354009D01*
X346806Y353490D01*
X346243Y352958D01*
X345693Y352412D01*
X345157Y351852D01*
X344634Y351280D01*
X344126Y350695D01*
X343632Y350098D01*
X343153Y349489D01*
X342689Y348868D01*
X342240Y348237D01*
X341807Y347594D01*
X341389Y346941D01*
X340988Y346278D01*
X340603Y345606D01*
X340235Y344924D01*
X339883Y344233D01*
X339549Y343534D01*
X339231Y342827D01*
X338931Y342113D01*
X338649Y341391D01*
X338384Y340663D01*
X338137Y339928D01*
X337908Y339188D01*
X337698Y338442D01*
X337505Y337692D01*
X337331Y336936D01*
X337176Y336177D01*
X337039Y335414D01*
X336921Y334649D01*
X336821Y333880D01*
X336741Y333109D01*
X336679Y332337D01*
X336636Y331563D01*
X336612Y330789D01*
X336608Y330014D01*
X336622Y329239D01*
X336655Y328465D01*
X336706Y327691D01*
X336777Y326920D01*
X336867Y326150D01*
X336975Y325383D01*
X337102Y324618D01*
X337248Y323857D01*
X337413Y323100D01*
X337595Y322347D01*
X337797Y321598D01*
X338016Y320855D01*
X338254Y320118D01*
X338509Y319386D01*
X338782Y318661D01*
X339073Y317943D01*
X339382Y317232D01*
X339707Y316529D01*
X340050Y315834D01*
X340410Y315147D01*
X340786Y314470D01*
X341179Y313802D01*
X341588Y313144D01*
X342013Y312496D01*
X342454Y311858D01*
X342910Y311232D01*
X343381Y310617D01*
X343868Y310013D01*
X344368Y309422D01*
X344884Y308843D01*
X345413Y308277D01*
X345956Y307724D01*
X346512Y307184D01*
X347081Y306658D01*
X347663Y306147D01*
X348257Y305649D01*
X348864Y305167D01*
X349481Y304699D01*
X350110Y304246D01*
X350750Y303809D01*
X351401Y303388D01*
X352062Y302983D01*
X352732Y302594D01*
X353411Y302222D01*
X354100Y301866D01*
X354797Y301527D01*
X355502Y301206D01*
X356215Y300902D01*
X356935Y300615D01*
X357661Y300346D01*
X358394Y300095D01*
X359133Y299862D01*
X359878Y299647D01*
X360627Y299450D01*
X361382Y299271D01*
X362140Y299111D01*
X362902Y298970D01*
X363667Y298847D01*
X364435Y298744D01*
X365205Y298658D01*
X365977Y298592D01*
X366751Y298545D01*
X367525Y298516D01*
X368300Y298507D01*
X369075Y298516D01*
X369849Y298545D01*
X370623Y298592D01*
X371395Y298658D01*
X372165Y298744D01*
X372933Y298847D01*
X373698Y298970D01*
X374460Y299111D01*
X375218Y299271D01*
X375973Y299450D01*
X376722Y299647D01*
X377467Y299862D01*
X378206Y300095D01*
X378939Y300346D01*
X379665Y300615D01*
X380385Y300902D01*
X381098Y301206D01*
X381803Y301527D01*
X382500Y301866D01*
X383189Y302222D01*
X383868Y302594D01*
X384538Y302983D01*
X385199Y303388D01*
X385850Y303809D01*
X386490Y304246D01*
X387119Y304699D01*
X387736Y305167D01*
X388343Y305649D01*
X388937Y306147D01*
X389519Y306658D01*
X390088Y307184D01*
X390644Y307724D01*
X391187Y308277D01*
X391716Y308843D01*
X392232Y309422D01*
X392732Y310013D01*
X393219Y310617D01*
X393690Y311232D01*
X394146Y311858D01*
X394587Y312496D01*
X395012Y313144D01*
X395421Y313802D01*
X395814Y314470D01*
X396190Y315147D01*
X396550Y315834D01*
X396893Y316529D01*
X397218Y317232D01*
X397527Y317943D01*
X397818Y318661D01*
X398091Y319386D01*
X398346Y320118D01*
X398584Y320855D01*
X398803Y321598D01*
X399005Y322347D01*
X399187Y323100D01*
X399352Y323857D01*
X399498Y324618D01*
X399625Y325383D01*
X399733Y326150D01*
X399823Y326920D01*
X399894Y327691D01*
X399945Y328465D01*
X399978Y329239D01*
X399992Y330014D01*
X399988Y330789D01*
X399964Y331563D01*
X399921Y332337D01*
X399859Y333109D01*
X399779Y333880D01*
X399679Y334649D01*
X399561Y335414D01*
X399424Y336177D01*
X399269Y336936D01*
X399095Y337692D01*
X398902Y338442D01*
X398692Y339188D01*
X398463Y339928D01*
X398216Y340663D01*
X397951Y341391D01*
X397669Y342113D01*
X397369Y342827D01*
X397051Y343534D01*
X396717Y344233D01*
X396365Y344924D01*
X395997Y345606D01*
X395612Y346278D01*
X395211Y346941D01*
X394793Y347594D01*
X394360Y348237D01*
X393911Y348868D01*
X393447Y349489D01*
X392968Y350098D01*
X392474Y350695D01*
X391966Y351280D01*
X391443Y351852D01*
X390907Y352412D01*
X390357Y352958D01*
X389794Y353490D01*
X389218Y354009D01*
X388630Y354513D01*
X388030Y355003D01*
X387417Y355478D01*
X387273Y355286D01*
X387881Y354815D01*
X388477Y354329D01*
X389061Y353828D01*
X389632Y353313D01*
X390191Y352785D01*
X390737Y352243D01*
X391269Y351688D01*
X391787Y351120D01*
X392292Y350539D01*
X392782Y349947D01*
X393257Y349342D01*
X393718Y348726D01*
X394163Y348099D01*
X394593Y347462D01*
X395007Y346814D01*
X395405Y346156D01*
X395787Y345488D01*
X396153Y344812D01*
X396502Y344126D01*
X396834Y343433D01*
X397149Y342731D01*
X397447Y342022D01*
X397727Y341306D01*
X397990Y340583D01*
X398235Y339854D01*
X398462Y339119D01*
X398671Y338379D01*
X398862Y337634D01*
X399034Y336885D01*
X399189Y336131D01*
X399324Y335374D01*
X399442Y334614D01*
X399540Y333852D01*
X399620Y333087D01*
X399681Y332320D01*
X399724Y331552D01*
X399748Y330783D01*
X399752Y330014D01*
X399739Y329246D01*
X399706Y328477D01*
X399654Y327710D01*
X399584Y326944D01*
X399495Y326180D01*
X399387Y325419D01*
X399261Y324660D01*
X399117Y323905D01*
X398953Y323153D01*
X398772Y322406D01*
X398572Y321663D01*
X398355Y320926D01*
X398119Y320193D01*
X397865Y319467D01*
X397594Y318748D01*
X397305Y318035D01*
X396999Y317329D01*
X396676Y316632D01*
X396336Y315942D01*
X395979Y315261D01*
X395605Y314589D01*
X395215Y313926D01*
X394809Y313272D01*
X394388Y312629D01*
X393950Y311997D01*
X393497Y311375D01*
X393030Y310765D01*
X392547Y310166D01*
X392050Y309579D01*
X391539Y309005D01*
X391014Y308443D01*
X390475Y307894D01*
X389923Y307358D01*
X389358Y306837D01*
X388781Y306329D01*
X388191Y305835D01*
X387589Y305356D01*
X386976Y304892D01*
X386352Y304443D01*
X385716Y304009D01*
X385071Y303591D01*
X384415Y303189D01*
X383750Y302803D01*
X383076Y302434D01*
X382392Y302081D01*
X381701Y301745D01*
X381001Y301425D01*
X380294Y301123D01*
X379579Y300839D01*
X378858Y300572D01*
X378130Y300323D01*
X377397Y300091D01*
X376658Y299878D01*
X375914Y299683D01*
X375166Y299506D01*
X374413Y299347D01*
X373657Y299207D01*
X372898Y299085D01*
X372136Y298982D01*
X371371Y298897D01*
X370605Y298832D01*
X369838Y298785D01*
X369069Y298756D01*
X368300Y298747D01*
X367531Y298756D01*
X366762Y298785D01*
X365995Y298832D01*
X365229Y298897D01*
X364464Y298982D01*
X363702Y299085D01*
X362943Y299207D01*
X362187Y299347D01*
X361434Y299506D01*
X360686Y299683D01*
X359942Y299878D01*
X359203Y300091D01*
X358470Y300323D01*
X357742Y300572D01*
X357021Y300839D01*
X356306Y301123D01*
X355599Y301425D01*
X354899Y301745D01*
X354208Y302081D01*
X353524Y302434D01*
X352850Y302803D01*
X352185Y303189D01*
X351529Y303591D01*
X350884Y304009D01*
X350248Y304443D01*
X349624Y304892D01*
X349011Y305356D01*
X348409Y305835D01*
X347819Y306329D01*
X347242Y306837D01*
X346677Y307358D01*
X346125Y307894D01*
X345586Y308443D01*
X345061Y309005D01*
X344550Y309579D01*
X344053Y310166D01*
X343570Y310765D01*
X343103Y311375D01*
X342650Y311997D01*
X342212Y312629D01*
X341791Y313272D01*
X341385Y313926D01*
X340995Y314589D01*
X340621Y315261D01*
X340264Y315942D01*
X339924Y316632D01*
X339601Y317329D01*
X339295Y318035D01*
X339006Y318748D01*
X338735Y319467D01*
X338481Y320193D01*
X338245Y320926D01*
X338028Y321663D01*
X337828Y322406D01*
X337647Y323153D01*
X337483Y323905D01*
X337339Y324660D01*
X337213Y325419D01*
X337105Y326180D01*
X337016Y326944D01*
X336946Y327710D01*
X336894Y328477D01*
X336861Y329246D01*
X336848Y330014D01*
X336852Y330783D01*
X336876Y331552D01*
X336919Y332320D01*
X336980Y333087D01*
X337060Y333852D01*
X337158Y334614D01*
X337276Y335374D01*
X337411Y336131D01*
X337566Y336885D01*
X337738Y337634D01*
X337929Y338379D01*
X338138Y339119D01*
X338365Y339854D01*
X338610Y340583D01*
X338873Y341306D01*
X339153Y342022D01*
X339451Y342731D01*
X339766Y343433D01*
X340098Y344126D01*
X340447Y344812D01*
X340813Y345488D01*
X341195Y346156D01*
X341593Y346814D01*
X342007Y347462D01*
X342437Y348099D01*
X342882Y348726D01*
X343343Y349342D01*
X343818Y349947D01*
X344308Y350539D01*
X344813Y351120D01*
X345331Y351688D01*
X345863Y352243D01*
X346409Y352785D01*
X346968Y353313D01*
X347539Y353828D01*
X348123Y354329D01*
X348719Y354815D01*
X349327Y355286D01*
X349471Y355094D01*
X348868Y354626D01*
X348276Y354144D01*
X347697Y353647D01*
X347130Y353136D01*
X346575Y352612D01*
X346034Y352074D01*
X345506Y351523D01*
X344991Y350960D01*
X344491Y350383D01*
X344004Y349795D01*
X343533Y349195D01*
X343076Y348584D01*
X342634Y347962D01*
X342207Y347329D01*
X341796Y346686D01*
X341401Y346033D01*
X341022Y345371D01*
X340659Y344699D01*
X340313Y344019D01*
X339983Y343331D01*
X339671Y342635D01*
X339375Y341931D01*
X339097Y341220D01*
X338836Y340503D01*
X338593Y339780D01*
X338368Y339050D01*
X338161Y338316D01*
X337971Y337577D01*
X337800Y336833D01*
X337647Y336085D01*
X337512Y335334D01*
X337396Y334580D01*
X337298Y333823D01*
X337219Y333064D01*
X337158Y332303D01*
X337116Y331541D01*
X337092Y330778D01*
X337088Y330015D01*
X337101Y329252D01*
X337134Y328490D01*
X337185Y327728D01*
X337255Y326968D01*
X337343Y326210D01*
X337450Y325455D01*
X337575Y324702D01*
X337719Y323952D01*
X337881Y323206D01*
X338061Y322465D01*
X338259Y321728D01*
X338475Y320996D01*
X338709Y320269D01*
X338961Y319549D01*
X339230Y318835D01*
X339516Y318127D01*
X339820Y317427D01*
X340141Y316735D01*
X340478Y316050D01*
X340833Y315374D01*
X341203Y314707D01*
X341590Y314049D01*
X341993Y313401D01*
X342412Y312763D01*
X342846Y312135D01*
X343295Y311518D01*
X343759Y310913D01*
X344238Y310318D01*
X344731Y309736D01*
X345239Y309166D01*
X345760Y308608D01*
X346294Y308064D01*
X346842Y307532D01*
X347403Y307015D01*
X347976Y306511D01*
X348561Y306021D01*
X349158Y305545D01*
X349767Y305085D01*
X350386Y304639D01*
X351017Y304209D01*
X351657Y303794D01*
X352308Y303395D01*
X352968Y303012D01*
X353637Y302645D01*
X354315Y302295D01*
X355002Y301962D01*
X355696Y301645D01*
X356398Y301345D01*
X357107Y301063D01*
X357823Y300798D01*
X358545Y300551D01*
X359273Y300321D01*
X360006Y300109D01*
X360744Y299915D01*
X361487Y299740D01*
X362233Y299582D01*
X362984Y299443D01*
X363737Y299322D01*
X364494Y299220D01*
X365252Y299136D01*
X366012Y299071D01*
X366774Y299024D01*
X367537Y298996D01*
X368300Y298987D01*
X369063Y298996D01*
X369826Y299024D01*
X370588Y299071D01*
X371348Y299136D01*
X372106Y299220D01*
X372863Y299322D01*
X373616Y299443D01*
X374367Y299582D01*
X375113Y299740D01*
X375856Y299915D01*
X376594Y300109D01*
X377327Y300321D01*
X378055Y300551D01*
X378777Y300798D01*
X379493Y301063D01*
X380202Y301345D01*
X380904Y301645D01*
X381598Y301962D01*
X382285Y302295D01*
X382963Y302645D01*
X383632Y303012D01*
X384292Y303395D01*
X384943Y303794D01*
X385583Y304209D01*
X386214Y304639D01*
X386833Y305085D01*
X387442Y305545D01*
X388039Y306021D01*
X388624Y306511D01*
X389197Y307015D01*
X389758Y307532D01*
X390306Y308064D01*
X390840Y308608D01*
X391361Y309166D01*
X391869Y309736D01*
X392362Y310318D01*
X392841Y310913D01*
X393305Y311518D01*
X393754Y312135D01*
X394188Y312763D01*
X394607Y313401D01*
X395010Y314049D01*
X395397Y314707D01*
X395767Y315374D01*
X396122Y316050D01*
X396459Y316735D01*
X396780Y317427D01*
X397084Y318127D01*
X397370Y318835D01*
X397639Y319549D01*
X397891Y320269D01*
X398125Y320996D01*
X398341Y321728D01*
X398539Y322465D01*
X398719Y323206D01*
X398881Y323952D01*
X399025Y324702D01*
X399150Y325455D01*
X399257Y326210D01*
X399345Y326968D01*
X399415Y327728D01*
X399466Y328490D01*
X399499Y329252D01*
X399512Y330015D01*
X399508Y330778D01*
X399484Y331541D01*
X399442Y332303D01*
X399381Y333064D01*
X399302Y333823D01*
X399204Y334580D01*
X399088Y335334D01*
X398953Y336085D01*
X398800Y336833D01*
X398629Y337577D01*
X398439Y338316D01*
X398232Y339050D01*
X398007Y339780D01*
X397764Y340503D01*
X397503Y341220D01*
X397225Y341931D01*
X396929Y342635D01*
X396617Y343331D01*
X396287Y344019D01*
X395941Y344699D01*
X395578Y345371D01*
X395199Y346033D01*
X394804Y346686D01*
X394393Y347329D01*
X393966Y347962D01*
X393524Y348584D01*
X393067Y349195D01*
X392596Y349795D01*
X392109Y350383D01*
X391609Y350960D01*
X391094Y351523D01*
X390566Y352074D01*
X390025Y352612D01*
X389470Y353136D01*
X388903Y353647D01*
X388324Y354144D01*
X387732Y354626D01*
X387129Y355094D01*
X386985Y354902D01*
X387584Y354438D01*
X388170Y353959D01*
X388745Y353466D01*
X389308Y352959D01*
X389858Y352439D01*
X390395Y351905D01*
X390920Y351359D01*
X391430Y350799D01*
X391927Y350228D01*
X392409Y349644D01*
X392877Y349049D01*
X393331Y348442D01*
X393769Y347825D01*
X394193Y347197D01*
X394601Y346559D01*
X394993Y345911D01*
X395369Y345253D01*
X395729Y344587D01*
X396072Y343912D01*
X396399Y343229D01*
X396709Y342538D01*
X397003Y341840D01*
X397279Y341135D01*
X397537Y340423D01*
X397778Y339705D01*
X398002Y338982D01*
X398208Y338253D01*
X398396Y337519D01*
X398566Y336781D01*
X398718Y336039D01*
X398851Y335294D01*
X398967Y334546D01*
X399064Y333795D01*
X399142Y333041D01*
X399203Y332286D01*
X399244Y331530D01*
X399268Y330773D01*
X399272Y330016D01*
X399259Y329259D01*
X399226Y328502D01*
X399176Y327747D01*
X399106Y326993D01*
X399019Y326240D01*
X398913Y325490D01*
X398789Y324743D01*
X398646Y324000D01*
X398485Y323260D01*
X398307Y322524D01*
X398110Y321792D01*
X397896Y321066D01*
X397663Y320345D01*
X397414Y319630D01*
X397147Y318922D01*
X396862Y318220D01*
X396561Y317525D01*
X396242Y316838D01*
X395907Y316159D01*
X395556Y315488D01*
X395188Y314826D01*
X394804Y314173D01*
X394404Y313530D01*
X393989Y312897D01*
X393558Y312274D01*
X393113Y311662D01*
X392652Y311061D01*
X392177Y310471D01*
X391687Y309893D01*
X391184Y309327D01*
X390667Y308774D01*
X390136Y308234D01*
X389593Y307707D01*
X389036Y307193D01*
X388468Y306693D01*
X387887Y306207D01*
X387294Y305735D01*
X386691Y305278D01*
X386076Y304836D01*
X385450Y304409D01*
X384815Y303997D01*
X384169Y303601D01*
X383514Y303221D01*
X382850Y302857D01*
X382177Y302510D01*
X381496Y302179D01*
X380807Y301864D01*
X380110Y301567D01*
X379407Y301287D01*
X378697Y301024D01*
X377980Y300779D01*
X377258Y300551D01*
X376530Y300341D01*
X375798Y300148D01*
X375061Y299974D01*
X374320Y299818D01*
X373575Y299680D01*
X372828Y299560D01*
X372077Y299458D01*
X371324Y299375D01*
X370570Y299310D01*
X369814Y299264D01*
X369057Y299236D01*
X368300Y299227D01*
X367543Y299236D01*
X366786Y299264D01*
X366030Y299310D01*
X365276Y299375D01*
X364523Y299458D01*
X363772Y299560D01*
X363025Y299680D01*
X362280Y299818D01*
X361539Y299974D01*
X360802Y300148D01*
X360070Y300341D01*
X359342Y300551D01*
X358620Y300779D01*
X357903Y301024D01*
X357193Y301287D01*
X356490Y301567D01*
X355793Y301864D01*
X355104Y302179D01*
X354423Y302510D01*
X353750Y302857D01*
X353086Y303221D01*
X352431Y303601D01*
X351785Y303997D01*
X351150Y304409D01*
X350524Y304836D01*
X349909Y305278D01*
X349306Y305735D01*
X348713Y306207D01*
X348132Y306693D01*
X347564Y307193D01*
X347007Y307707D01*
X346464Y308234D01*
X345933Y308774D01*
X345416Y309327D01*
X344913Y309893D01*
X344423Y310471D01*
X343948Y311061D01*
X343487Y311662D01*
X343042Y312274D01*
X342611Y312897D01*
X342196Y313530D01*
X341796Y314173D01*
X341412Y314826D01*
X341044Y315488D01*
X340693Y316159D01*
X340358Y316838D01*
X340039Y317525D01*
X339738Y318220D01*
X339453Y318922D01*
X339186Y319630D01*
X338937Y320345D01*
X338704Y321066D01*
X338490Y321792D01*
X338293Y322524D01*
X338115Y323260D01*
X337954Y324000D01*
X337811Y324743D01*
X337687Y325490D01*
X337581Y326240D01*
X337494Y326993D01*
X337424Y327747D01*
X337374Y328502D01*
X337341Y329259D01*
X337328Y330016D01*
X337332Y330773D01*
X337356Y331530D01*
X337397Y332286D01*
X337458Y333041D01*
X337536Y333795D01*
X337633Y334546D01*
X337749Y335294D01*
X337882Y336039D01*
X338034Y336781D01*
X338204Y337519D01*
X338392Y338253D01*
X338598Y338982D01*
X338822Y339705D01*
X339063Y340423D01*
X339321Y341135D01*
X339597Y341840D01*
X339891Y342538D01*
X340201Y343229D01*
X340528Y343912D01*
X340871Y344587D01*
X341231Y345253D01*
X341607Y345911D01*
X341999Y346559D01*
X342407Y347197D01*
X342831Y347825D01*
X343269Y348442D01*
X343723Y349049D01*
X344191Y349644D01*
X344673Y350228D01*
X345170Y350799D01*
X345680Y351359D01*
X346205Y351905D01*
X346742Y352439D01*
X347292Y352959D01*
X347855Y353466D01*
X348430Y353959D01*
X349016Y354438D01*
X349615Y354902D01*
X349759Y354710D01*
X349165Y354249D01*
X348583Y353774D01*
X348012Y353285D01*
X347454Y352782D01*
X346908Y352266D01*
X346375Y351736D01*
X345855Y351194D01*
X345349Y350639D01*
X344856Y350072D01*
X344377Y349493D01*
X343912Y348902D01*
X343462Y348300D01*
X343027Y347687D01*
X342607Y347064D01*
X342203Y346431D01*
X341814Y345788D01*
X341441Y345136D01*
X341083Y344475D01*
X340743Y343805D01*
X340418Y343128D01*
X340110Y342442D01*
X339820Y341749D01*
X339546Y341049D01*
X339289Y340343D01*
X339050Y339631D01*
X338828Y338913D01*
X338624Y338190D01*
X338437Y337462D01*
X338269Y336730D01*
X338118Y335993D01*
X337985Y335254D01*
X337871Y334511D01*
X337775Y333766D01*
X337697Y333019D01*
X337637Y332270D01*
X337595Y331519D01*
X337572Y330768D01*
X337568Y330017D01*
X337581Y329266D01*
X337613Y328515D01*
X337664Y327765D01*
X337732Y327017D01*
X337819Y326270D01*
X337924Y325526D01*
X338048Y324785D01*
X338189Y324047D01*
X338349Y323313D01*
X338526Y322583D01*
X338721Y321857D01*
X338934Y321136D01*
X339164Y320421D01*
X339412Y319712D01*
X339677Y319009D01*
X339959Y318312D01*
X340258Y317623D01*
X340574Y316941D01*
X340907Y316267D01*
X341255Y315602D01*
X341620Y314945D01*
X342001Y314297D01*
X342398Y313659D01*
X342810Y313031D01*
X343238Y312413D01*
X343680Y311805D01*
X344137Y311209D01*
X344609Y310624D01*
X345094Y310050D01*
X345594Y309489D01*
X346107Y308940D01*
X346633Y308404D01*
X347173Y307881D01*
X347725Y307371D01*
X348289Y306875D01*
X348865Y306392D01*
X349453Y305924D01*
X350052Y305471D01*
X350662Y305032D01*
X351283Y304608D01*
X351914Y304200D01*
X352554Y303807D01*
X353204Y303430D01*
X353863Y303069D01*
X354531Y302724D01*
X355207Y302396D01*
X355890Y302084D01*
X356581Y301789D01*
X357279Y301511D01*
X357984Y301250D01*
X358695Y301007D01*
X359412Y300780D01*
X360133Y300572D01*
X360860Y300381D01*
X361591Y300208D01*
X362327Y300053D01*
X363066Y299916D01*
X363808Y299797D01*
X364552Y299696D01*
X365299Y299614D01*
X366048Y299550D01*
X366798Y299504D01*
X367549Y299476D01*
X368300Y299467D01*
X369051Y299476D01*
X369802Y299504D01*
X370552Y299550D01*
X371301Y299614D01*
X372048Y299696D01*
X372792Y299797D01*
X373534Y299916D01*
X374273Y300053D01*
X375009Y300208D01*
X375740Y300381D01*
X376467Y300572D01*
X377188Y300780D01*
X377905Y301007D01*
X378616Y301250D01*
X379321Y301511D01*
X380019Y301789D01*
X380710Y302084D01*
X381393Y302396D01*
X382069Y302724D01*
X382737Y303069D01*
X383396Y303430D01*
X384046Y303807D01*
X384686Y304200D01*
X385317Y304608D01*
X385938Y305032D01*
X386548Y305471D01*
X387147Y305924D01*
X387735Y306392D01*
X388311Y306875D01*
X388875Y307371D01*
X389427Y307881D01*
X389967Y308404D01*
X390493Y308940D01*
X391006Y309489D01*
X391506Y310050D01*
X391991Y310624D01*
X392463Y311209D01*
X392920Y311805D01*
X393362Y312413D01*
X393790Y313031D01*
X394202Y313659D01*
X394599Y314297D01*
X394980Y314945D01*
X395345Y315602D01*
X395693Y316267D01*
X396026Y316941D01*
X396342Y317623D01*
X396641Y318312D01*
X396923Y319009D01*
X397188Y319712D01*
X397436Y320421D01*
X397666Y321136D01*
X397879Y321857D01*
X398074Y322583D01*
X398251Y323313D01*
X398411Y324047D01*
X398552Y324785D01*
X398676Y325526D01*
X398781Y326270D01*
X398868Y327017D01*
X398936Y327765D01*
X398987Y328515D01*
X399019Y329266D01*
X399032Y330017D01*
X399028Y330768D01*
X399005Y331519D01*
X398963Y332270D01*
X398903Y333019D01*
X398825Y333766D01*
X398729Y334511D01*
X398615Y335254D01*
X398482Y335993D01*
X398331Y336730D01*
X398163Y337462D01*
X397976Y338190D01*
X397772Y338913D01*
X397550Y339631D01*
X397311Y340343D01*
X397054Y341049D01*
X396780Y341749D01*
X396490Y342442D01*
X396182Y343128D01*
X395857Y343805D01*
X395517Y344475D01*
X395159Y345136D01*
X394786Y345788D01*
X394397Y346431D01*
X393993Y347064D01*
X393573Y347687D01*
X393138Y348300D01*
X392688Y348902D01*
X392223Y349493D01*
X391744Y350072D01*
X391251Y350639D01*
X390745Y351194D01*
X390225Y351736D01*
X389692Y352266D01*
X389146Y352782D01*
X388588Y353285D01*
X388017Y353774D01*
X387435Y354249D01*
X386841Y354710D01*
D11*
X342900Y330200D02*
X342908Y330823D01*
X342931Y331446D01*
X342969Y332069D01*
X343022Y332690D01*
X343091Y333309D01*
X343175Y333927D01*
X343274Y334542D01*
X343388Y335155D01*
X343517Y335765D01*
X343661Y336372D01*
X343820Y336975D01*
X343994Y337573D01*
X344182Y338168D01*
X344385Y338757D01*
X344602Y339341D01*
X344833Y339920D01*
X345079Y340493D01*
X345339Y341060D01*
X345612Y341620D01*
X345899Y342173D01*
X346200Y342720D01*
X346514Y343258D01*
X346841Y343789D01*
X347181Y344311D01*
X347533Y344826D01*
X347899Y345331D01*
X348276Y345827D01*
X348666Y346314D01*
X349067Y346791D01*
X349480Y347258D01*
X349904Y347714D01*
X350339Y348161D01*
X350786Y348596D01*
X351242Y349020D01*
X351709Y349433D01*
X352186Y349834D01*
X352673Y350224D01*
X353169Y350601D01*
X353674Y350967D01*
X354189Y351319D01*
X354711Y351659D01*
X355242Y351986D01*
X355780Y352300D01*
X356327Y352601D01*
X356880Y352888D01*
X357440Y353161D01*
X358007Y353421D01*
X358580Y353667D01*
X359159Y353898D01*
X359743Y354115D01*
X360332Y354318D01*
X360927Y354506D01*
X361525Y354680D01*
X362128Y354839D01*
X362735Y354983D01*
X363345Y355112D01*
X363958Y355226D01*
X364573Y355325D01*
X365191Y355409D01*
X365810Y355478D01*
X366431Y355531D01*
X367054Y355569D01*
X367677Y355592D01*
X368300Y355600D01*
X368923Y355592D01*
X369546Y355569D01*
X370169Y355531D01*
X370790Y355478D01*
X371409Y355409D01*
X372027Y355325D01*
X372642Y355226D01*
X373255Y355112D01*
X373865Y354983D01*
X374472Y354839D01*
X375075Y354680D01*
X375673Y354506D01*
X376268Y354318D01*
X376857Y354115D01*
X377441Y353898D01*
X378020Y353667D01*
X378593Y353421D01*
X379160Y353161D01*
X379720Y352888D01*
X380273Y352601D01*
X380820Y352300D01*
X381358Y351986D01*
X381889Y351659D01*
X382411Y351319D01*
X382926Y350967D01*
X383431Y350601D01*
X383927Y350224D01*
X384414Y349834D01*
X384891Y349433D01*
X385358Y349020D01*
X385814Y348596D01*
X386261Y348161D01*
X386696Y347714D01*
X387120Y347258D01*
X387533Y346791D01*
X387934Y346314D01*
X388324Y345827D01*
X388701Y345331D01*
X389067Y344826D01*
X389419Y344311D01*
X389759Y343789D01*
X390086Y343258D01*
X390400Y342720D01*
X390701Y342173D01*
X390988Y341620D01*
X391261Y341060D01*
X391521Y340493D01*
X391767Y339920D01*
X391998Y339341D01*
X392215Y338757D01*
X392418Y338168D01*
X392606Y337573D01*
X392780Y336975D01*
X392939Y336372D01*
X393083Y335765D01*
X393212Y335155D01*
X393326Y334542D01*
X393425Y333927D01*
X393509Y333309D01*
X393578Y332690D01*
X393631Y332069D01*
X393669Y331446D01*
X393692Y330823D01*
X393700Y330200D01*
X393692Y329577D01*
X393669Y328954D01*
X393631Y328331D01*
X393578Y327710D01*
X393509Y327091D01*
X393425Y326473D01*
X393326Y325858D01*
X393212Y325245D01*
X393083Y324635D01*
X392939Y324028D01*
X392780Y323425D01*
X392606Y322827D01*
X392418Y322232D01*
X392215Y321643D01*
X391998Y321059D01*
X391767Y320480D01*
X391521Y319907D01*
X391261Y319340D01*
X390988Y318780D01*
X390701Y318227D01*
X390400Y317680D01*
X390086Y317142D01*
X389759Y316611D01*
X389419Y316089D01*
X389067Y315574D01*
X388701Y315069D01*
X388324Y314573D01*
X387934Y314086D01*
X387533Y313609D01*
X387120Y313142D01*
X386696Y312686D01*
X386261Y312239D01*
X385814Y311804D01*
X385358Y311380D01*
X384891Y310967D01*
X384414Y310566D01*
X383927Y310176D01*
X383431Y309799D01*
X382926Y309433D01*
X382411Y309081D01*
X381889Y308741D01*
X381358Y308414D01*
X380820Y308100D01*
X380273Y307799D01*
X379720Y307512D01*
X379160Y307239D01*
X378593Y306979D01*
X378020Y306733D01*
X377441Y306502D01*
X376857Y306285D01*
X376268Y306082D01*
X375673Y305894D01*
X375075Y305720D01*
X374472Y305561D01*
X373865Y305417D01*
X373255Y305288D01*
X372642Y305174D01*
X372027Y305075D01*
X371409Y304991D01*
X370790Y304922D01*
X370169Y304869D01*
X369546Y304831D01*
X368923Y304808D01*
X368300Y304800D01*
X367677Y304808D01*
X367054Y304831D01*
X366431Y304869D01*
X365810Y304922D01*
X365191Y304991D01*
X364573Y305075D01*
X363958Y305174D01*
X363345Y305288D01*
X362735Y305417D01*
X362128Y305561D01*
X361525Y305720D01*
X360927Y305894D01*
X360332Y306082D01*
X359743Y306285D01*
X359159Y306502D01*
X358580Y306733D01*
X358007Y306979D01*
X357440Y307239D01*
X356880Y307512D01*
X356327Y307799D01*
X355780Y308100D01*
X355242Y308414D01*
X354711Y308741D01*
X354189Y309081D01*
X353674Y309433D01*
X353169Y309799D01*
X352673Y310176D01*
X352186Y310566D01*
X351709Y310967D01*
X351242Y311380D01*
X350786Y311804D01*
X350339Y312239D01*
X349904Y312686D01*
X349480Y313142D01*
X349067Y313609D01*
X348666Y314086D01*
X348276Y314573D01*
X347899Y315069D01*
X347533Y315574D01*
X347181Y316089D01*
X346841Y316611D01*
X346514Y317142D01*
X346200Y317680D01*
X345899Y318227D01*
X345612Y318780D01*
X345339Y319340D01*
X345079Y319907D01*
X344833Y320480D01*
X344602Y321059D01*
X344385Y321643D01*
X344182Y322232D01*
X343994Y322827D01*
X343820Y323425D01*
X343661Y324028D01*
X343517Y324635D01*
X343388Y325245D01*
X343274Y325858D01*
X343175Y326473D01*
X343091Y327091D01*
X343022Y327710D01*
X342969Y328331D01*
X342931Y328954D01*
X342908Y329577D01*
X342900Y330200D01*
X299720Y237490D02*
X299722Y237390D01*
X299728Y237291D01*
X299738Y237191D01*
X299751Y237093D01*
X299769Y236994D01*
X299790Y236897D01*
X299815Y236801D01*
X299844Y236705D01*
X299877Y236611D01*
X299913Y236518D01*
X299953Y236427D01*
X299997Y236337D01*
X300044Y236249D01*
X300094Y236163D01*
X300148Y236079D01*
X300205Y235997D01*
X300265Y235918D01*
X300329Y235840D01*
X300395Y235766D01*
X300464Y235694D01*
X300536Y235625D01*
X300610Y235559D01*
X300688Y235495D01*
X300767Y235435D01*
X300849Y235378D01*
X300933Y235324D01*
X301019Y235274D01*
X301107Y235227D01*
X301197Y235183D01*
X301288Y235143D01*
X301381Y235107D01*
X301475Y235074D01*
X301571Y235045D01*
X301667Y235020D01*
X301764Y234999D01*
X301863Y234981D01*
X301961Y234968D01*
X302061Y234958D01*
X302160Y234952D01*
X302260Y234950D01*
X317500Y234950D02*
X317600Y234952D01*
X317699Y234958D01*
X317799Y234968D01*
X317897Y234981D01*
X317996Y234999D01*
X318093Y235020D01*
X318189Y235045D01*
X318285Y235074D01*
X318379Y235107D01*
X318472Y235143D01*
X318563Y235183D01*
X318653Y235227D01*
X318741Y235274D01*
X318827Y235324D01*
X318911Y235378D01*
X318993Y235435D01*
X319072Y235495D01*
X319150Y235559D01*
X319224Y235625D01*
X319296Y235694D01*
X319365Y235766D01*
X319431Y235840D01*
X319495Y235918D01*
X319555Y235997D01*
X319612Y236079D01*
X319666Y236163D01*
X319716Y236249D01*
X319763Y236337D01*
X319807Y236427D01*
X319847Y236518D01*
X319883Y236611D01*
X319916Y236705D01*
X319945Y236801D01*
X319970Y236897D01*
X319991Y236994D01*
X320009Y237093D01*
X320022Y237191D01*
X320032Y237291D01*
X320038Y237390D01*
X320040Y237490D01*
X320040Y283210D02*
X320038Y283310D01*
X320032Y283409D01*
X320022Y283509D01*
X320009Y283607D01*
X319991Y283706D01*
X319970Y283803D01*
X319945Y283899D01*
X319916Y283995D01*
X319883Y284089D01*
X319847Y284182D01*
X319807Y284273D01*
X319763Y284363D01*
X319716Y284451D01*
X319666Y284537D01*
X319612Y284621D01*
X319555Y284703D01*
X319495Y284782D01*
X319431Y284860D01*
X319365Y284934D01*
X319296Y285006D01*
X319224Y285075D01*
X319150Y285141D01*
X319072Y285205D01*
X318993Y285265D01*
X318911Y285322D01*
X318827Y285376D01*
X318741Y285426D01*
X318653Y285473D01*
X318563Y285517D01*
X318472Y285557D01*
X318379Y285593D01*
X318285Y285626D01*
X318189Y285655D01*
X318093Y285680D01*
X317996Y285701D01*
X317897Y285719D01*
X317799Y285732D01*
X317699Y285742D01*
X317600Y285748D01*
X317500Y285750D01*
X302260Y285750D02*
X302160Y285748D01*
X302061Y285742D01*
X301961Y285732D01*
X301863Y285719D01*
X301764Y285701D01*
X301667Y285680D01*
X301571Y285655D01*
X301475Y285626D01*
X301381Y285593D01*
X301288Y285557D01*
X301197Y285517D01*
X301107Y285473D01*
X301019Y285426D01*
X300933Y285376D01*
X300849Y285322D01*
X300767Y285265D01*
X300688Y285205D01*
X300610Y285141D01*
X300536Y285075D01*
X300464Y285006D01*
X300395Y284934D01*
X300329Y284860D01*
X300265Y284782D01*
X300205Y284703D01*
X300148Y284621D01*
X300094Y284537D01*
X300044Y284451D01*
X299997Y284363D01*
X299953Y284273D01*
X299913Y284182D01*
X299877Y284089D01*
X299844Y283995D01*
X299815Y283899D01*
X299790Y283803D01*
X299769Y283706D01*
X299751Y283607D01*
X299738Y283509D01*
X299728Y283409D01*
X299722Y283310D01*
X299720Y283210D01*
X302260Y234950D02*
X317500Y234950D01*
X299720Y237490D02*
X299720Y241300D01*
X300990Y242570D01*
X320040Y241300D02*
X320040Y237490D01*
X320040Y241300D02*
X318770Y242570D01*
X300990Y278130D02*
X299720Y279400D01*
X300990Y278130D02*
X300990Y242570D01*
X318770Y278130D02*
X320040Y279400D01*
X318770Y278130D02*
X318770Y242570D01*
X299720Y279400D02*
X299720Y283210D01*
X320040Y283210D02*
X320040Y279400D01*
X317500Y285750D02*
X302260Y285750D01*
D12*
X296418Y235458D02*
X287528Y235458D01*
X287528Y237927D01*
X287530Y238025D01*
X287536Y238123D01*
X287546Y238221D01*
X287559Y238318D01*
X287577Y238415D01*
X287598Y238511D01*
X287623Y238605D01*
X287652Y238699D01*
X287684Y238792D01*
X287721Y238883D01*
X287760Y238973D01*
X287804Y239061D01*
X287851Y239147D01*
X287901Y239232D01*
X287954Y239314D01*
X288011Y239394D01*
X288071Y239472D01*
X288134Y239547D01*
X288200Y239620D01*
X288269Y239690D01*
X288340Y239757D01*
X288414Y239822D01*
X288491Y239883D01*
X288570Y239942D01*
X288651Y239997D01*
X288734Y240049D01*
X288820Y240097D01*
X288907Y240142D01*
X288996Y240184D01*
X289086Y240222D01*
X289178Y240256D01*
X289271Y240287D01*
X289366Y240314D01*
X289461Y240337D01*
X289558Y240357D01*
X289654Y240372D01*
X289752Y240384D01*
X289850Y240392D01*
X289948Y240396D01*
X290046Y240396D01*
X290144Y240392D01*
X290242Y240384D01*
X290340Y240372D01*
X290436Y240357D01*
X290533Y240337D01*
X290628Y240314D01*
X290723Y240287D01*
X290816Y240256D01*
X290908Y240222D01*
X290998Y240184D01*
X291087Y240142D01*
X291174Y240097D01*
X291260Y240049D01*
X291343Y239997D01*
X291424Y239942D01*
X291503Y239883D01*
X291580Y239822D01*
X291654Y239757D01*
X291725Y239690D01*
X291794Y239620D01*
X291860Y239547D01*
X291923Y239472D01*
X291983Y239394D01*
X292040Y239314D01*
X292093Y239232D01*
X292143Y239147D01*
X292190Y239061D01*
X292234Y238973D01*
X292273Y238883D01*
X292310Y238792D01*
X292342Y238699D01*
X292371Y238605D01*
X292396Y238511D01*
X292417Y238415D01*
X292435Y238318D01*
X292448Y238221D01*
X292458Y238123D01*
X292464Y238025D01*
X292466Y237927D01*
X292467Y237927D02*
X292467Y235458D01*
X292467Y238421D02*
X296418Y240397D01*
X296418Y244308D02*
X296418Y246777D01*
X296416Y246875D01*
X296410Y246973D01*
X296400Y247071D01*
X296387Y247168D01*
X296369Y247265D01*
X296348Y247361D01*
X296323Y247455D01*
X296294Y247549D01*
X296262Y247642D01*
X296225Y247733D01*
X296186Y247823D01*
X296142Y247911D01*
X296095Y247997D01*
X296045Y248082D01*
X295992Y248164D01*
X295935Y248244D01*
X295875Y248322D01*
X295812Y248397D01*
X295746Y248470D01*
X295677Y248540D01*
X295606Y248607D01*
X295532Y248672D01*
X295455Y248733D01*
X295376Y248792D01*
X295295Y248847D01*
X295212Y248899D01*
X295126Y248947D01*
X295039Y248992D01*
X294950Y249034D01*
X294860Y249072D01*
X294768Y249106D01*
X294675Y249137D01*
X294580Y249164D01*
X294485Y249187D01*
X294388Y249207D01*
X294292Y249222D01*
X294194Y249234D01*
X294096Y249242D01*
X293998Y249246D01*
X293900Y249246D01*
X293802Y249242D01*
X293704Y249234D01*
X293606Y249222D01*
X293510Y249207D01*
X293413Y249187D01*
X293318Y249164D01*
X293223Y249137D01*
X293130Y249106D01*
X293038Y249072D01*
X292948Y249034D01*
X292859Y248992D01*
X292772Y248947D01*
X292686Y248899D01*
X292603Y248847D01*
X292522Y248792D01*
X292443Y248733D01*
X292366Y248672D01*
X292292Y248607D01*
X292221Y248540D01*
X292152Y248470D01*
X292086Y248397D01*
X292023Y248322D01*
X291963Y248244D01*
X291906Y248164D01*
X291853Y248082D01*
X291803Y247997D01*
X291756Y247911D01*
X291712Y247823D01*
X291673Y247733D01*
X291636Y247642D01*
X291604Y247549D01*
X291575Y247455D01*
X291550Y247361D01*
X291529Y247265D01*
X291511Y247168D01*
X291498Y247071D01*
X291488Y246973D01*
X291482Y246875D01*
X291480Y246777D01*
X287528Y247271D02*
X287528Y244308D01*
X287528Y247271D02*
X287530Y247358D01*
X287536Y247446D01*
X287545Y247533D01*
X287559Y247619D01*
X287576Y247705D01*
X287597Y247789D01*
X287622Y247873D01*
X287651Y247956D01*
X287683Y248037D01*
X287718Y248117D01*
X287757Y248195D01*
X287800Y248272D01*
X287846Y248346D01*
X287895Y248418D01*
X287947Y248488D01*
X288003Y248556D01*
X288061Y248621D01*
X288122Y248684D01*
X288186Y248743D01*
X288253Y248800D01*
X288321Y248854D01*
X288393Y248905D01*
X288466Y248952D01*
X288541Y248997D01*
X288619Y249038D01*
X288698Y249075D01*
X288778Y249109D01*
X288860Y249139D01*
X288943Y249166D01*
X289028Y249189D01*
X289113Y249208D01*
X289199Y249223D01*
X289286Y249235D01*
X289373Y249243D01*
X289460Y249247D01*
X289548Y249247D01*
X289635Y249243D01*
X289722Y249235D01*
X289809Y249223D01*
X289895Y249208D01*
X289980Y249189D01*
X290065Y249166D01*
X290148Y249139D01*
X290230Y249109D01*
X290310Y249075D01*
X290389Y249038D01*
X290467Y248997D01*
X290542Y248952D01*
X290615Y248905D01*
X290687Y248854D01*
X290755Y248800D01*
X290822Y248743D01*
X290886Y248684D01*
X290947Y248621D01*
X291005Y248556D01*
X291061Y248488D01*
X291113Y248418D01*
X291162Y248346D01*
X291208Y248272D01*
X291251Y248195D01*
X291290Y248117D01*
X291325Y248037D01*
X291357Y247956D01*
X291386Y247873D01*
X291411Y247789D01*
X291432Y247705D01*
X291449Y247619D01*
X291463Y247533D01*
X291472Y247446D01*
X291478Y247358D01*
X291480Y247271D01*
X291479Y247271D02*
X291479Y245296D01*
D16*
X309880Y287655D03*
X309880Y233045D03*
D11*
X226060Y327660D02*
X226058Y327760D01*
X226052Y327859D01*
X226042Y327959D01*
X226029Y328057D01*
X226011Y328156D01*
X225990Y328253D01*
X225965Y328349D01*
X225936Y328445D01*
X225903Y328539D01*
X225867Y328632D01*
X225827Y328723D01*
X225783Y328813D01*
X225736Y328901D01*
X225686Y328987D01*
X225632Y329071D01*
X225575Y329153D01*
X225515Y329232D01*
X225451Y329310D01*
X225385Y329384D01*
X225316Y329456D01*
X225244Y329525D01*
X225170Y329591D01*
X225092Y329655D01*
X225013Y329715D01*
X224931Y329772D01*
X224847Y329826D01*
X224761Y329876D01*
X224673Y329923D01*
X224583Y329967D01*
X224492Y330007D01*
X224399Y330043D01*
X224305Y330076D01*
X224209Y330105D01*
X224113Y330130D01*
X224016Y330151D01*
X223917Y330169D01*
X223819Y330182D01*
X223719Y330192D01*
X223620Y330198D01*
X223520Y330200D01*
X208280Y330200D02*
X208180Y330198D01*
X208081Y330192D01*
X207981Y330182D01*
X207883Y330169D01*
X207784Y330151D01*
X207687Y330130D01*
X207591Y330105D01*
X207495Y330076D01*
X207401Y330043D01*
X207308Y330007D01*
X207217Y329967D01*
X207127Y329923D01*
X207039Y329876D01*
X206953Y329826D01*
X206869Y329772D01*
X206787Y329715D01*
X206708Y329655D01*
X206630Y329591D01*
X206556Y329525D01*
X206484Y329456D01*
X206415Y329384D01*
X206349Y329310D01*
X206285Y329232D01*
X206225Y329153D01*
X206168Y329071D01*
X206114Y328987D01*
X206064Y328901D01*
X206017Y328813D01*
X205973Y328723D01*
X205933Y328632D01*
X205897Y328539D01*
X205864Y328445D01*
X205835Y328349D01*
X205810Y328253D01*
X205789Y328156D01*
X205771Y328057D01*
X205758Y327959D01*
X205748Y327859D01*
X205742Y327760D01*
X205740Y327660D01*
X205740Y281940D02*
X205742Y281840D01*
X205748Y281741D01*
X205758Y281641D01*
X205771Y281543D01*
X205789Y281444D01*
X205810Y281347D01*
X205835Y281251D01*
X205864Y281155D01*
X205897Y281061D01*
X205933Y280968D01*
X205973Y280877D01*
X206017Y280787D01*
X206064Y280699D01*
X206114Y280613D01*
X206168Y280529D01*
X206225Y280447D01*
X206285Y280368D01*
X206349Y280290D01*
X206415Y280216D01*
X206484Y280144D01*
X206556Y280075D01*
X206630Y280009D01*
X206708Y279945D01*
X206787Y279885D01*
X206869Y279828D01*
X206953Y279774D01*
X207039Y279724D01*
X207127Y279677D01*
X207217Y279633D01*
X207308Y279593D01*
X207401Y279557D01*
X207495Y279524D01*
X207591Y279495D01*
X207687Y279470D01*
X207784Y279449D01*
X207883Y279431D01*
X207981Y279418D01*
X208081Y279408D01*
X208180Y279402D01*
X208280Y279400D01*
X223520Y279400D02*
X223620Y279402D01*
X223719Y279408D01*
X223819Y279418D01*
X223917Y279431D01*
X224016Y279449D01*
X224113Y279470D01*
X224209Y279495D01*
X224305Y279524D01*
X224399Y279557D01*
X224492Y279593D01*
X224583Y279633D01*
X224673Y279677D01*
X224761Y279724D01*
X224847Y279774D01*
X224931Y279828D01*
X225013Y279885D01*
X225092Y279945D01*
X225170Y280009D01*
X225244Y280075D01*
X225316Y280144D01*
X225385Y280216D01*
X225451Y280290D01*
X225515Y280368D01*
X225575Y280447D01*
X225632Y280529D01*
X225686Y280613D01*
X225736Y280699D01*
X225783Y280787D01*
X225827Y280877D01*
X225867Y280968D01*
X225903Y281061D01*
X225936Y281155D01*
X225965Y281251D01*
X225990Y281347D01*
X226011Y281444D01*
X226029Y281543D01*
X226042Y281641D01*
X226052Y281741D01*
X226058Y281840D01*
X226060Y281940D01*
X223520Y330200D02*
X208280Y330200D01*
X226060Y327660D02*
X226060Y323850D01*
X224790Y322580D01*
X205740Y323850D02*
X205740Y327660D01*
X205740Y323850D02*
X207010Y322580D01*
X224790Y287020D02*
X226060Y285750D01*
X224790Y287020D02*
X224790Y322580D01*
X207010Y287020D02*
X205740Y285750D01*
X207010Y287020D02*
X207010Y322580D01*
X226060Y285750D02*
X226060Y281940D01*
X205740Y281940D02*
X205740Y285750D01*
X208280Y279400D02*
X223520Y279400D01*
D12*
X229362Y315903D02*
X238252Y315903D01*
X229362Y315903D02*
X229362Y318373D01*
X229364Y318471D01*
X229370Y318569D01*
X229380Y318667D01*
X229393Y318764D01*
X229411Y318861D01*
X229432Y318957D01*
X229457Y319051D01*
X229486Y319145D01*
X229518Y319238D01*
X229555Y319329D01*
X229594Y319419D01*
X229638Y319507D01*
X229685Y319593D01*
X229735Y319678D01*
X229788Y319760D01*
X229845Y319840D01*
X229905Y319918D01*
X229968Y319993D01*
X230034Y320066D01*
X230103Y320136D01*
X230174Y320203D01*
X230248Y320268D01*
X230325Y320329D01*
X230404Y320388D01*
X230485Y320443D01*
X230568Y320495D01*
X230654Y320543D01*
X230741Y320588D01*
X230830Y320630D01*
X230920Y320668D01*
X231012Y320702D01*
X231105Y320733D01*
X231200Y320760D01*
X231295Y320783D01*
X231392Y320803D01*
X231488Y320818D01*
X231586Y320830D01*
X231684Y320838D01*
X231782Y320842D01*
X231880Y320842D01*
X231978Y320838D01*
X232076Y320830D01*
X232174Y320818D01*
X232270Y320803D01*
X232367Y320783D01*
X232462Y320760D01*
X232557Y320733D01*
X232650Y320702D01*
X232742Y320668D01*
X232832Y320630D01*
X232921Y320588D01*
X233008Y320543D01*
X233094Y320495D01*
X233177Y320443D01*
X233258Y320388D01*
X233337Y320329D01*
X233414Y320268D01*
X233488Y320203D01*
X233559Y320136D01*
X233628Y320066D01*
X233694Y319993D01*
X233757Y319918D01*
X233817Y319840D01*
X233874Y319760D01*
X233927Y319678D01*
X233977Y319593D01*
X234024Y319507D01*
X234068Y319419D01*
X234107Y319329D01*
X234144Y319238D01*
X234176Y319145D01*
X234205Y319051D01*
X234230Y318957D01*
X234251Y318861D01*
X234269Y318764D01*
X234282Y318667D01*
X234292Y318569D01*
X234298Y318471D01*
X234300Y318373D01*
X234301Y318373D02*
X234301Y315903D01*
X234301Y318867D02*
X238252Y320842D01*
X236276Y324753D02*
X229362Y326729D01*
X236276Y324753D02*
X236276Y329692D01*
X234301Y328210D02*
X238252Y328210D01*
D16*
X215900Y277495D03*
X215900Y332105D03*
D10*
X243800Y120800D02*
X365800Y120800D01*
X365800Y-9200D01*
X243800Y-9200D01*
X243800Y120800D01*
D12*
X410803Y57892D02*
X410803Y48804D01*
X410802Y48804D02*
X410800Y48705D01*
X410794Y48605D01*
X410785Y48506D01*
X410772Y48408D01*
X410755Y48310D01*
X410734Y48212D01*
X410709Y48116D01*
X410681Y48021D01*
X410649Y47927D01*
X410614Y47834D01*
X410575Y47742D01*
X410532Y47652D01*
X410487Y47564D01*
X410437Y47477D01*
X410385Y47393D01*
X410329Y47310D01*
X410271Y47230D01*
X410209Y47152D01*
X410144Y47077D01*
X410076Y47004D01*
X410006Y46934D01*
X409933Y46866D01*
X409858Y46801D01*
X409780Y46739D01*
X409700Y46681D01*
X409617Y46625D01*
X409533Y46573D01*
X409446Y46523D01*
X409358Y46478D01*
X409268Y46435D01*
X409176Y46396D01*
X409083Y46361D01*
X408989Y46329D01*
X408894Y46301D01*
X408798Y46276D01*
X408700Y46255D01*
X408602Y46238D01*
X408504Y46225D01*
X408405Y46216D01*
X408305Y46210D01*
X408206Y46208D01*
X406908Y46208D01*
X419646Y57892D02*
X419753Y57890D01*
X419859Y57884D01*
X419965Y57874D01*
X420071Y57861D01*
X420177Y57843D01*
X420281Y57822D01*
X420385Y57797D01*
X420488Y57768D01*
X420589Y57736D01*
X420689Y57699D01*
X420788Y57659D01*
X420886Y57616D01*
X420982Y57569D01*
X421076Y57518D01*
X421168Y57464D01*
X421258Y57407D01*
X421346Y57347D01*
X421431Y57283D01*
X421514Y57216D01*
X421595Y57146D01*
X421673Y57074D01*
X421749Y56998D01*
X421821Y56920D01*
X421891Y56839D01*
X421958Y56756D01*
X422022Y56671D01*
X422082Y56583D01*
X422139Y56493D01*
X422193Y56401D01*
X422244Y56307D01*
X422291Y56211D01*
X422334Y56113D01*
X422374Y56014D01*
X422411Y55914D01*
X422443Y55813D01*
X422472Y55710D01*
X422497Y55606D01*
X422518Y55502D01*
X422536Y55396D01*
X422549Y55290D01*
X422559Y55184D01*
X422565Y55078D01*
X422567Y54971D01*
X419646Y57892D02*
X419525Y57890D01*
X419404Y57884D01*
X419284Y57874D01*
X419163Y57861D01*
X419044Y57843D01*
X418924Y57822D01*
X418806Y57797D01*
X418689Y57768D01*
X418572Y57735D01*
X418457Y57699D01*
X418343Y57658D01*
X418230Y57615D01*
X418118Y57567D01*
X418009Y57516D01*
X417901Y57461D01*
X417794Y57403D01*
X417690Y57342D01*
X417588Y57277D01*
X417488Y57209D01*
X417390Y57138D01*
X417294Y57064D01*
X417201Y56987D01*
X417111Y56906D01*
X417023Y56823D01*
X416938Y56737D01*
X416855Y56648D01*
X416776Y56557D01*
X416699Y56463D01*
X416626Y56367D01*
X416556Y56269D01*
X416489Y56168D01*
X416425Y56065D01*
X416365Y55960D01*
X416308Y55853D01*
X416254Y55745D01*
X416204Y55635D01*
X416158Y55523D01*
X416115Y55410D01*
X416076Y55295D01*
X421594Y52699D02*
X421673Y52776D01*
X421749Y52857D01*
X421822Y52940D01*
X421892Y53025D01*
X421959Y53113D01*
X422023Y53203D01*
X422083Y53295D01*
X422140Y53390D01*
X422194Y53486D01*
X422245Y53584D01*
X422292Y53684D01*
X422336Y53786D01*
X422376Y53889D01*
X422412Y53993D01*
X422444Y54099D01*
X422473Y54205D01*
X422498Y54313D01*
X422520Y54421D01*
X422537Y54531D01*
X422551Y54640D01*
X422560Y54750D01*
X422566Y54861D01*
X422568Y54971D01*
X421594Y52699D02*
X416076Y46208D01*
X422567Y46208D01*
M02*
